<svg xmlns="http://www.w3.org/2000/svg" width="25" height="25" viewBox="0 0 25 25">
  <g id="Group_269" data-name="Group 269" transform="translate(-8 -10)">
    <path id="passkey_24dp_5F6368_FILL0_wght400_GRAD0_opsz24" d="M140.395-786.7a1.266,1.266,0,0,0,.938-.382,1.294,1.294,0,0,0,.378-.947,1.294,1.294,0,0,0-.378-.947,1.266,1.266,0,0,0-.937-.382,1.266,1.266,0,0,0-.937.382,1.294,1.294,0,0,0-.378.947,1.294,1.294,0,0,0,.378.947A1.266,1.266,0,0,0,140.395-786.7Zm.2,11.5-1.316-1.33a1.66,1.66,0,0,1-.2-.465v-5.918a4.533,4.533,0,0,1-2.368-1.646,4.518,4.518,0,0,1-.921-2.809,4.509,4.509,0,0,1,1.349-3.291,4.414,4.414,0,0,1,3.257-1.363,4.414,4.414,0,0,1,3.257,1.363A4.509,4.509,0,0,1,145-787.367a4.432,4.432,0,0,1-.839,2.66,4.655,4.655,0,0,1-2.122,1.662l1.184,1.2a.641.641,0,0,1,.2.466.641.641,0,0,1-.2.465l-1.053,1.064a.641.641,0,0,0-.2.465.641.641,0,0,0,.2.465l1.053,1.064a.641.641,0,0,1,.2.465.641.641,0,0,1-.2.466l-1.711,1.729a.628.628,0,0,1-.461.2A.628.628,0,0,1,140.592-775.2Z" transform="translate(-112 810)" fill="#003346"/>
    <path id="passkey_24dp_5F6368_FILL0_wght400_GRAD0_opsz24-2" data-name="passkey_24dp_5F6368_FILL0_wght400_GRAD0_opsz24" d="M122.632-778.723a2.521,2.521,0,0,1-1.859-.781,2.574,2.574,0,0,1-.773-1.878v-1.064a3.926,3.926,0,0,1,.576-2.078,3.854,3.854,0,0,1,1.53-1.446,19.405,19.405,0,0,1,4.145-1.546,17.923,17.923,0,0,1,4.276-.515q.461,0,.921.017a8.611,8.611,0,0,1,.921.083.825.825,0,0,1,.576.283.912.912,0,0,1,.214.615,7.17,7.17,0,0,0,.757,2.942,7.255,7.255,0,0,0,1.842,2.344,1.194,1.194,0,0,1,.362.416,1.157,1.157,0,0,1,.132.549v.731a1.294,1.294,0,0,1-.378.947,1.266,1.266,0,0,1-.937.382Zm7.895-10.638a5.041,5.041,0,0,1-3.717-1.562,5.149,5.149,0,0,1-1.546-3.757,5.149,5.149,0,0,1,1.546-3.757A5.042,5.042,0,0,1,130.526-800a5.042,5.042,0,0,1,3.717,1.563,5.149,5.149,0,0,1,1.546,3.757,5.149,5.149,0,0,1-1.546,3.757A5.041,5.041,0,0,1,130.526-789.362Z" transform="translate(-112 810)" fill="#b5b5b5"/>
  </g>
</svg>
