<svg xmlns="http://www.w3.org/2000/svg" width="25" height="20" viewBox="0 0 25 20">
  <g id="Group_307" data-name="Group 307" transform="translate(-8 -10)">
    <path id="domain_verification_24dp_5F6368_FILL0_wght400_GRAD0_opsz24" d="M82.5-780a2.407,2.407,0,0,1-1.766-.734A2.407,2.407,0,0,1,80-782.5v-15a2.407,2.407,0,0,1,.734-1.766A2.407,2.407,0,0,1,82.5-800h20a2.407,2.407,0,0,1,1.766.734A2.407,2.407,0,0,1,105-797.5v15a2.407,2.407,0,0,1-.734,1.766A2.407,2.407,0,0,1,102.5-780Zm0-2.5h20V-795h-20Zm0,0Z" transform="translate(-72 810)" fill="#b5b5b5"/>
    <path id="domain_verification_24dp_5F6368_FILL0_wght400_GRAD0_opsz24-2" data-name="domain_verification_24dp_5F6368_FILL0_wght400_GRAD0_opsz24" d="M91.188-787.937l4.344-4.344a1.235,1.235,0,0,1,.906-.375,1.235,1.235,0,0,1,.906.375,1.235,1.235,0,0,1,.375.906,1.235,1.235,0,0,1-.375.906l-5.281,5.281a1.2,1.2,0,0,1-.875.375,1.2,1.2,0,0,1-.875-.375l-2.656-2.656a1.235,1.235,0,0,1-.375-.906,1.235,1.235,0,0,1,.375-.906,1.235,1.235,0,0,1,.906-.375,1.235,1.235,0,0,1,.906.375Z" transform="translate(-72 810)" fill="#003346"/>
  </g>
</svg>
