<svg xmlns="http://www.w3.org/2000/svg" width="9" height="15" viewBox="0 0 9 15">
  <path id="chevron_left_24dp_FILL0_wght400_GRAD0_opsz24" d="M340.264-695.5l5.359,5.247a1.262,1.262,0,0,1,.378.942,1.263,1.263,0,0,1-.378.942,1.315,1.315,0,0,1-.962.37,1.314,1.314,0,0,1-.962-.37l-6.321-6.189a1.179,1.179,0,0,1-.292-.437,1.463,1.463,0,0,1-.086-.5,1.466,1.466,0,0,1,.086-.5,1.177,1.177,0,0,1,.292-.437l6.321-6.188a1.319,1.319,0,0,1,.962-.37,1.319,1.319,0,0,1,.962.37,1.262,1.262,0,0,1,.378.942,1.261,1.261,0,0,1-.378.942Z" transform="translate(-337 703)" fill="#4c8b92"/>
</svg>
