<svg xmlns="http://www.w3.org/2000/svg" width="25" height="25" viewBox="0 0 25 25">
  <g id="Group_286" data-name="Group 286" transform="translate(-8 -8)">
    <g id="Group_285" data-name="Group 285" transform="translate(-3 2)">
      <path id="category_24dp_5F6368_FILL0_wght400_GRAD0_opsz24" d="M125.822-834.415l4.9-7.962a1.206,1.206,0,0,1,.493-.475,1.384,1.384,0,0,1,.625-.147,1.384,1.384,0,0,1,.625.147,1.206,1.206,0,0,1,.493.475l4.9,7.962a1.313,1.313,0,0,1,.2.688,1.322,1.322,0,0,1-.164.655,1.277,1.277,0,0,1-.461.475,1.3,1.3,0,0,1-.691.18h-9.8a1.3,1.3,0,0,1-.691-.18,1.277,1.277,0,0,1-.461-.475,1.322,1.322,0,0,1-.164-.655A1.313,1.313,0,0,1,125.822-834.415ZM120-819.966v-7.864a1.266,1.266,0,0,1,.378-.934,1.276,1.276,0,0,1,.938-.377h7.895a1.276,1.276,0,0,1,.938.377,1.266,1.266,0,0,1,.378.934v7.864a1.266,1.266,0,0,1-.378.934,1.276,1.276,0,0,1-.937.377h-7.895a1.276,1.276,0,0,1-.937-.377A1.266,1.266,0,0,1,120-819.966Zm2.632-1.311h5.263v-5.242h-5.263Zm6.645-13.761h5.132l-2.566-4.128ZM131.842-835.038ZM127.895-826.519Z" transform="translate(-109 849)" fill="#b5b5b5"/>
      <path id="category_24dp_5F6368_FILL0_wght400_GRAD0_opsz24-2" data-name="category_24dp_5F6368_FILL0_wght400_GRAD0_opsz24" d="M139.079-818a5.721,5.721,0,0,1-4.194-1.72,5.676,5.676,0,0,1-1.727-4.178,5.676,5.676,0,0,1,1.727-4.178,5.722,5.722,0,0,1,4.194-1.72,5.721,5.721,0,0,1,4.194,1.72A5.676,5.676,0,0,1,145-823.9a5.676,5.676,0,0,1-1.727,4.178A5.721,5.721,0,0,1,139.079-818Zm0-2.621a3.183,3.183,0,0,0,2.336-.95,3.158,3.158,0,0,0,.954-2.326,3.158,3.158,0,0,0-.954-2.326,3.183,3.183,0,0,0-2.336-.95,3.183,3.183,0,0,0-2.336.95,3.158,3.158,0,0,0-.954,2.326,3.158,3.158,0,0,0,.954,2.326A3.183,3.183,0,0,0,139.079-820.621ZM139.079-823.9Z" transform="translate(-109 849)" fill="#003346"/>
    </g>
  </g>
</svg>
