<svg xmlns="http://www.w3.org/2000/svg" width="25" height="18" viewBox="0 0 25 18">
  <g id="Group_283" data-name="Group 283" transform="translate(-7.5 -11)">
    <path id="playlist_add_24dp_5F6368_FILL0_wght400_GRAD0_opsz24" d="M138.421-702a1.289,1.289,0,0,1-.937-.37,1.23,1.23,0,0,1-.378-.916v-3.857h-3.947a1.289,1.289,0,0,1-.937-.37,1.229,1.229,0,0,1-.378-.916,1.229,1.229,0,0,1,.378-.916,1.289,1.289,0,0,1,.938-.37h3.947v-3.857a1.23,1.23,0,0,1,.378-.916,1.289,1.289,0,0,1,.938-.37,1.289,1.289,0,0,1,.938.37,1.23,1.23,0,0,1,.378.916v3.857h3.947a1.289,1.289,0,0,1,.938.37,1.229,1.229,0,0,1,.378.916,1.229,1.229,0,0,1-.378.916,1.289,1.289,0,0,1-.937.37h-3.947v3.857a1.23,1.23,0,0,1-.378.916A1.289,1.289,0,0,1,138.421-702Z" transform="translate(-112.5 731)" fill="#003346"/>
    <path id="playlist_add_24dp_5F6368_FILL0_wght400_GRAD0_opsz24-2" data-name="playlist_add_24dp_5F6368_FILL0_wght400_GRAD0_opsz24" d="M121.316-707.143a1.289,1.289,0,0,1-.937-.37,1.229,1.229,0,0,1-.378-.916,1.229,1.229,0,0,1,.378-.916,1.289,1.289,0,0,1,.938-.37h6.579a1.289,1.289,0,0,1,.938.37,1.229,1.229,0,0,1,.378.916,1.229,1.229,0,0,1-.378.916,1.289,1.289,0,0,1-.937.37Zm0-5.143a1.289,1.289,0,0,1-.937-.37,1.229,1.229,0,0,1-.378-.916,1.23,1.23,0,0,1,.378-.916,1.289,1.289,0,0,1,.938-.37h11.842a1.289,1.289,0,0,1,.938.37,1.23,1.23,0,0,1,.378.916,1.229,1.229,0,0,1-.378.916,1.289,1.289,0,0,1-.937.37Zm0-5.143a1.289,1.289,0,0,1-.937-.37,1.229,1.229,0,0,1-.378-.916,1.23,1.23,0,0,1,.378-.916,1.289,1.289,0,0,1,.938-.37h11.842a1.289,1.289,0,0,1,.938.37,1.23,1.23,0,0,1,.378.916,1.229,1.229,0,0,1-.378.916,1.289,1.289,0,0,1-.937.37Z" transform="translate(-112.5 731)" fill="#b5b5b5"/>
  </g>
</svg>
