<svg id="icon" xmlns="http://www.w3.org/2000/svg" width="24" height="24" viewBox="0 0 24 24">
  <rect id="Rec" width="24" height="24" fill="none"/>
  <path id="restart_alt_FILL0_wght400_GRAD0_opsz24" d="M167-841.55a7.718,7.718,0,0,1-5.012-2.638A7.793,7.793,0,0,1,160-849.5a7.928,7.928,0,0,1,.65-3.163,7.8,7.8,0,0,1,1.85-2.638l1.425,1.425a5.635,5.635,0,0,0-1.437,1.975,5.971,5.971,0,0,0-.488,2.4,5.912,5.912,0,0,0,1.4,3.888,5.794,5.794,0,0,0,3.6,2.063Z" transform="translate(-155.999 862.774)" fill="#b5b5b5"/>
  <path id="restart_alt_FILL0_wght400_GRAD0_opsz24-2" data-name="restart_alt_FILL0_wght400_GRAD0_opsz24" d="M169-841.55v-2a5.967,5.967,0,0,0,3.588-2.075A5.833,5.833,0,0,0,174-849.5a5.786,5.786,0,0,0-1.75-4.25A5.786,5.786,0,0,0,168-855.5h-.075l1.1,1.1-1.4,1.4-3.5-3.5,3.5-3.5,1.4,1.4-1.1,1.1H168a7.721,7.721,0,0,1,5.675,2.325A7.721,7.721,0,0,1,176-849.5a7.761,7.761,0,0,1-1.988,5.288A7.823,7.823,0,0,1,169-841.55Z" transform="translate(-155.999 862.774)" fill="#003346"/>
</svg>
