<svg xmlns="http://www.w3.org/2000/svg" width="25" height="14.474" viewBox="0 0 25 14.474">
  <g id="Group_307" data-name="Group 307" transform="translate(-8 -27)">
    <path id="videogame_asset_24dp_5F6368_FILL0_wght300_GRAD0_opsz24" d="M102.379-685.526a2.3,2.3,0,0,1-1.688-.691,2.3,2.3,0,0,1-.691-1.692v-9.708a2.3,2.3,0,0,1,.691-1.692,2.3,2.3,0,0,1,1.688-.691h20.243a2.3,2.3,0,0,1,1.688.691,2.3,2.3,0,0,1,.691,1.692v9.708a2.3,2.3,0,0,1-.691,1.692,2.3,2.3,0,0,1-1.688.691Zm0-1.974h20.243a.386.386,0,0,0,.278-.127.386.386,0,0,0,.127-.278v-9.716a.386.386,0,0,0-.127-.278.386.386,0,0,0-.278-.127H102.379a.386.386,0,0,0-.278.127.386.386,0,0,0-.127.278v9.716a.386.386,0,0,0,.127.278A.386.386,0,0,0,102.379-687.5Zm13.409-1.645a1.589,1.589,0,0,0,1.165-.479,1.582,1.582,0,0,0,.481-1.164,1.589,1.589,0,0,0-.479-1.165,1.582,1.582,0,0,0-1.164-.481,1.589,1.589,0,0,0-1.165.479,1.582,1.582,0,0,0-.481,1.164,1.589,1.589,0,0,0,.479,1.165A1.582,1.582,0,0,0,115.788-689.145Zm3.947-3.947a1.589,1.589,0,0,0,1.165-.479,1.582,1.582,0,0,0,.481-1.164,1.589,1.589,0,0,0-.479-1.165,1.582,1.582,0,0,0-1.164-.481,1.589,1.589,0,0,0-1.165.479,1.582,1.582,0,0,0-.481,1.164,1.589,1.589,0,0,0,.479,1.165A1.582,1.582,0,0,0,119.735-693.092ZM101.974-687.5v0Z" transform="translate(-92 727)" fill="#b5b5b5"/>
    <path id="videogame_asset_24dp_5F6368_FILL0_wght300_GRAD0_opsz24-2" data-name="videogame_asset_24dp_5F6368_FILL0_wght300_GRAD0_opsz24" d="M106.25-691.776v1.645a.954.954,0,0,0,.284.7.955.955,0,0,0,.7.284.953.953,0,0,0,.7-.284.955.955,0,0,0,.284-.7v-1.645h1.645a.954.954,0,0,0,.7-.284.955.955,0,0,0,.284-.7.953.953,0,0,0-.284-.7.954.954,0,0,0-.7-.284h-1.645v-1.645a.954.954,0,0,0-.284-.7.955.955,0,0,0-.7-.284.953.953,0,0,0-.7.284.955.955,0,0,0-.284.7v1.645h-1.645a.954.954,0,0,0-.7.284.955.955,0,0,0-.284.7.953.953,0,0,0,.284.7.955.955,0,0,0,.7.284Z" transform="translate(-92 727)" fill="#003346"/>
  </g>
</svg>
