<svg xmlns="http://www.w3.org/2000/svg" width="25" height="20.455" viewBox="0 0 25 20.455">
  <g id="Group_325" data-name="Group 325" transform="translate(-7.5 -21)">
    <path id="stacked_email_24dp_5F6368_FILL0_wght400_GRAD0_opsz24" d="M46.818-824.091a2.189,2.189,0,0,1-1.605-.668,2.189,2.189,0,0,1-.668-1.605v-11.364a2.188,2.188,0,0,1,.668-1.605A2.188,2.188,0,0,1,46.818-840H62.727a2.188,2.188,0,0,1,1.605.668A2.188,2.188,0,0,1,65-837.727v11.364a2.189,2.189,0,0,1-.668,1.605,2.189,2.189,0,0,1-1.605.668Zm7.3-5.8-7.3-5.085v8.608H62.727v-8.608l-7.3,5.085a1.1,1.1,0,0,1-.653.227A1.1,1.1,0,0,1,54.119-829.886Zm.653-2.33,7.955-5.511H46.818Zm7.955-2.841v-2.67H46.818v0H62.727Z" transform="translate(-32.5 861)" fill="#b5b5b5"/>
    <path id="stacked_email_24dp_5F6368_FILL0_wght400_GRAD0_opsz24-2" data-name="stacked_email_24dp_5F6368_FILL0_wght400_GRAD0_opsz24" d="M42.273-819.545a2.189,2.189,0,0,1-1.605-.668A2.189,2.189,0,0,1,40-821.818v-13.068a1.1,1.1,0,0,1,.327-.81,1.1,1.1,0,0,1,.81-.327,1.1,1.1,0,0,1,.81.327,1.1,1.1,0,0,1,.327.81v13.068H59.886a1.1,1.1,0,0,1,.81.327,1.1,1.1,0,0,1,.327.81,1.1,1.1,0,0,1-.327.81,1.1,1.1,0,0,1-.81.327Z" transform="translate(-32.5 861)" fill="#003346"/>
  </g>
</svg>

