<svg xmlns="http://www.w3.org/2000/svg" width="22.602" height="22.599" viewBox="0 0 22.602 22.599">
  <path id="Icon_fa-solid-layer-group" data-name="Icon fa-solid-layer-group" d="M12.513.23a2.47,2.47,0,0,1,2.075,0l9.65,4.459a1.061,1.061,0,0,1,0,1.925l-9.65,4.459a2.47,2.47,0,0,1-2.075,0L2.864,6.613a1.061,1.061,0,0,1,0-1.925L12.513.23ZM21.89,9.253l2.348,1.086a1.061,1.061,0,0,1,0,1.925l-9.65,4.459a2.47,2.47,0,0,1-2.075,0l-9.65-4.459a1.061,1.061,0,0,1,0-1.925L5.212,9.253l6.71,3.1a3.889,3.889,0,0,0,3.258,0l6.71-3.1ZM15.18,18l6.71-3.1,2.348,1.086a1.061,1.061,0,0,1,0,1.925l-9.65,4.459a2.47,2.47,0,0,1-2.075,0l-9.65-4.459a1.061,1.061,0,0,1,0-1.925L5.212,14.9l6.71,3.1a3.889,3.889,0,0,0,3.258,0Z" transform="translate(-2.25 -0.002)" fill="#fff"/>
</svg>
