<svg xmlns="http://www.w3.org/2000/svg" width="24" height="24" viewBox="0 0 24 24">
  <path id="work_history" d="M82.286-860.571v0Zm0,2.286a2.2,2.2,0,0,1-1.614-.671A2.2,2.2,0,0,1,80-860.571v-12.571a2.2,2.2,0,0,1,.671-1.614,2.2,2.2,0,0,1,1.614-.671h4.571v-2.286a2.2,2.2,0,0,1,.671-1.614A2.2,2.2,0,0,1,89.143-880h4.571a2.2,2.2,0,0,1,1.614.671A2.2,2.2,0,0,1,96-877.714v2.286h4.571a2.2,2.2,0,0,1,1.614.671,2.2,2.2,0,0,1,.671,1.614v4.886a6.923,6.923,0,0,0-1.086-.643,9.523,9.523,0,0,0-1.2-.471v-3.771H82.286v12.571h8.086a8.018,8.018,0,0,0,.257,1.171,7.9,7.9,0,0,0,.429,1.114Zm6.857-17.143h4.571v-2.286H89.143ZM98.286-856a5.507,5.507,0,0,1-4.043-1.672,5.507,5.507,0,0,1-1.671-4.043,5.508,5.508,0,0,1,1.671-4.043,5.508,5.508,0,0,1,4.043-1.671,5.508,5.508,0,0,1,4.043,1.671A5.508,5.508,0,0,1,104-861.714a5.507,5.507,0,0,1-1.671,4.043A5.507,5.507,0,0,1,98.286-856Zm.571-5.943v-3.2H97.714v3.657l2.457,2.457.8-.8Z" transform="translate(-80 880)" fill="#fff"/>
</svg>
