<svg xmlns="http://www.w3.org/2000/svg" width="25" height="18.421" viewBox="0 0 25 18.421">
  <g id="Group_302" data-name="Group 302" transform="translate(-7.5 -10.79)">
    <path id="playlist_add_24dp_5F6368_FILL0_wght400_GRAD0_opsz24_1_" data-name="playlist_add_24dp_5F6368_FILL0_wght400_GRAD0_opsz24 (1)" d="M138.421-701.579a1.273,1.273,0,0,1-.937-.378,1.273,1.273,0,0,1-.378-.937v-3.947h-3.947a1.273,1.273,0,0,1-.937-.378,1.273,1.273,0,0,1-.378-.937,1.273,1.273,0,0,1,.378-.937,1.273,1.273,0,0,1,.938-.378h3.947v-3.947a1.273,1.273,0,0,1,.378-.937,1.273,1.273,0,0,1,.938-.378,1.273,1.273,0,0,1,.938.378,1.273,1.273,0,0,1,.378.938v3.947h3.947a1.273,1.273,0,0,1,.938.378,1.273,1.273,0,0,1,.378.938,1.273,1.273,0,0,1-.378.938,1.273,1.273,0,0,1-.937.378h-3.947v3.947a1.273,1.273,0,0,1-.378.938A1.273,1.273,0,0,1,138.421-701.579Z" transform="translate(-112.5 730.79)" fill="#003346"/>
    <path id="playlist_add_24dp_5F6368_FILL0_wght400_GRAD0_opsz24_1_2" data-name="playlist_add_24dp_5F6368_FILL0_wght400_GRAD0_opsz24 (1)" d="M121.316-706.842a1.273,1.273,0,0,1-.937-.378,1.273,1.273,0,0,1-.378-.937,1.273,1.273,0,0,1,.378-.937,1.273,1.273,0,0,1,.938-.378h6.579a1.273,1.273,0,0,1,.938.378,1.273,1.273,0,0,1,.378.938,1.273,1.273,0,0,1-.378.938,1.273,1.273,0,0,1-.938.378Zm0-5.263a1.273,1.273,0,0,1-.937-.378,1.273,1.273,0,0,1-.378-.937,1.273,1.273,0,0,1,.378-.937,1.273,1.273,0,0,1,.938-.378h11.842a1.273,1.273,0,0,1,.938.378,1.273,1.273,0,0,1,.378.938,1.273,1.273,0,0,1-.378.938,1.273,1.273,0,0,1-.937.378Zm0-5.263a1.273,1.273,0,0,1-.937-.378,1.273,1.273,0,0,1-.378-.937,1.273,1.273,0,0,1,.378-.937,1.273,1.273,0,0,1,.938-.378h11.842a1.273,1.273,0,0,1,.938.378,1.273,1.273,0,0,1,.378.938,1.273,1.273,0,0,1-.378.938,1.273,1.273,0,0,1-.937.378Z" transform="translate(-112.5 730.79)" fill="#b5b5b5"/>
  </g>
</svg>
