<svg xmlns="http://www.w3.org/2000/svg" width="20" height="20" viewBox="0 0 20 20">
  <path id="logout_FILL0_wght400_GRAD0_opsz24" d="M122.273-820a2.206,2.206,0,0,1-1.605-.652A2.112,2.112,0,0,1,120-822.22v-15.557a2.11,2.11,0,0,1,.667-1.567,2.2,2.2,0,0,1,1.605-.657h6.818a1.118,1.118,0,0,1,.81.322,1.061,1.061,0,0,1,.327.791,1.076,1.076,0,0,1-.327.793,1.126,1.126,0,0,1-.81.317h-6.818v15.557h6.818a1.123,1.123,0,0,1,.81.318,1.066,1.066,0,0,1,.327.791,1.056,1.056,0,0,1-.327.791,1.107,1.107,0,0,1-.81.32Zm13.836-8.887h-8.153a1.106,1.106,0,0,1-.81-.32,1.071,1.071,0,0,1-.327-.793,1.06,1.06,0,0,1,.327-.789,1.108,1.108,0,0,1,.81-.322h8.153l-2.131-2.08a1.021,1.021,0,0,1-.312-.754,1.1,1.1,0,0,1,.312-.774,1.084,1.084,0,0,1,.8-.346,1.085,1.085,0,0,1,.823.317l4.063,3.975A1.045,1.045,0,0,1,140-830a1.046,1.046,0,0,1-.341.778l-4.063,3.975a1.083,1.083,0,0,1-.81.318,1.174,1.174,0,0,1-.81-.347,1.064,1.064,0,0,1-.3-.791,1.08,1.08,0,0,1,.327-.766Z" transform="translate(-120 840)" fill="#003346"/>
</svg>
