<svg xmlns="http://www.w3.org/2000/svg" width="24" height="25" viewBox="0 0 24 25">
  <g id="Group_305" data-name="Group 305" transform="translate(-8 -8)">
    <path id="notification_add_24dp_5F6368_FILL0_wght400_GRAD0_opsz24" d="M170.105-855a2.446,2.446,0,0,1-1.784-.734,2.4,2.4,0,0,1-.742-1.766h5.053a2.4,2.4,0,0,1-.742,1.766A2.446,2.446,0,0,1,170.105-855Zm-8.842-3.75a1.229,1.229,0,0,1-.9-.359A1.2,1.2,0,0,1,160-860a1.2,1.2,0,0,1,.363-.891,1.229,1.229,0,0,1,.9-.359h1.263V-870a7.271,7.271,0,0,1,1.579-4.609,7.293,7.293,0,0,1,4.105-2.641v-.875a1.8,1.8,0,0,1,.553-1.328,1.837,1.837,0,0,1,1.342-.547,1.837,1.837,0,0,1,1.342.547,1.8,1.8,0,0,1,.553,1.328v.875q.316.063.6.141a2.046,2.046,0,0,1,.537.234,1.594,1.594,0,0,1,.663.7,1.016,1.016,0,0,1,0,.922,1.328,1.328,0,0,1-.679.672,1.159,1.159,0,0,1-.932.016,5.964,5.964,0,0,0-1.137-.359,5.448,5.448,0,0,0-.947-.078,4.891,4.891,0,0,0-3.568,1.469A4.79,4.79,0,0,0,165.053-870v8.75h10.105v-2.5a1.123,1.123,0,0,1,.395-.937,1.368,1.368,0,0,1,.868-.312,1.368,1.368,0,0,1,.868.313,1.123,1.123,0,0,1,.395.938v2.5h1.263a1.229,1.229,0,0,1,.9.359,1.2,1.2,0,0,1,.363.891,1.2,1.2,0,0,1-.363.891,1.229,1.229,0,0,1-.9.359ZM170.105-868.125Z" transform="translate(-152 888)" fill="#b5b5b5"/>
    <path id="notification_add_24dp_5F6368_FILL0_wght400_GRAD0_opsz24-2" data-name="notification_add_24dp_5F6368_FILL0_wght400_GRAD0_opsz24" d="M177.684-870h-2.526a1.229,1.229,0,0,1-.9-.359,1.2,1.2,0,0,1-.363-.891,1.2,1.2,0,0,1,.363-.891,1.229,1.229,0,0,1,.9-.359h2.526V-875a1.2,1.2,0,0,1,.363-.891,1.229,1.229,0,0,1,.9-.359,1.229,1.229,0,0,1,.9.359,1.2,1.2,0,0,1,.363.891v2.5h2.526a1.229,1.229,0,0,1,.9.359,1.2,1.2,0,0,1,.363.891,1.2,1.2,0,0,1-.363.891,1.229,1.229,0,0,1-.9.359h-2.526v2.5a1.2,1.2,0,0,1-.363.891,1.229,1.229,0,0,1-.9.359,1.229,1.229,0,0,1-.9-.359,1.2,1.2,0,0,1-.363-.891Z" transform="translate(-152 888)" fill="#003346"/>
  </g>
</svg>
