<svg xmlns="http://www.w3.org/2000/svg" width="22.902" height="23" viewBox="0 0 22.902 23">
  <g id="Group_326" data-name="Group 326" transform="translate(-8.549 -9)">
    <path id="notifications_active_24dp_5F6368_FILL0_wght400_GRAD0_opsz24" d="M85.1-860.45a1.113,1.113,0,0,1-.819-.331,1.113,1.113,0,0,1-.331-.819,1.113,1.113,0,0,1,.331-.819,1.113,1.113,0,0,1,.819-.331h1.15v-8.05a6.734,6.734,0,0,1,1.438-4.241,6.633,6.633,0,0,1,3.738-2.429v-.805a1.663,1.663,0,0,1,.5-1.222,1.663,1.663,0,0,1,1.222-.5,1.663,1.663,0,0,1,1.222.5,1.663,1.663,0,0,1,.5,1.222v.805a6.633,6.633,0,0,1,3.738,2.429,6.734,6.734,0,0,1,1.438,4.241v8.05h1.15a1.113,1.113,0,0,1,.819.331,1.113,1.113,0,0,1,.331.819,1.113,1.113,0,0,1-.331.819,1.113,1.113,0,0,1-.819.331ZM93.155-869.075Zm0,12.075a2.215,2.215,0,0,1-1.624-.676,2.215,2.215,0,0,1-.676-1.624h4.6a2.215,2.215,0,0,1-.676,1.624A2.215,2.215,0,0,1,93.155-857Zm-4.6-5.75h9.2v-8.05a4.429,4.429,0,0,0-1.351-3.249,4.429,4.429,0,0,0-3.249-1.351,4.429,4.429,0,0,0-3.249,1.351,4.429,4.429,0,0,0-1.351,3.249Z" transform="translate(-73.155 889)" fill="#b5b5b5"/>
    <path id="notifications_active_24dp_5F6368_FILL0_wght400_GRAD0_opsz24-2" data-name="notifications_active_24dp_5F6368_FILL0_wght400_GRAD0_opsz24" d="M82.8-870.8a1.051,1.051,0,0,1-.819-.374,1.062,1.062,0,0,1-.273-.863,11.026,11.026,0,0,1,1.208-4.011,11.663,11.663,0,0,1,2.5-3.234,1.161,1.161,0,0,1,.848-.287.97.97,0,0,1,.762.431,1.187,1.187,0,0,1,.23.862,1.293,1.293,0,0,1-.431.805A9.046,9.046,0,0,0,84.99-875a9.586,9.586,0,0,0-.949,3.048,1.312,1.312,0,0,1-.4.819A1.161,1.161,0,0,1,82.8-870.8Zm20.7,0a1.161,1.161,0,0,1-.834-.331,1.312,1.312,0,0,1-.4-.819A9.586,9.586,0,0,0,101.32-875a9.047,9.047,0,0,0-1.84-2.472,1.293,1.293,0,0,1-.431-.805,1.187,1.187,0,0,1,.23-.862.97.97,0,0,1,.762-.431,1.161,1.161,0,0,1,.848.287,11.663,11.663,0,0,1,2.5,3.234,11.026,11.026,0,0,1,1.208,4.011,1.062,1.062,0,0,1-.273.863A1.051,1.051,0,0,1,103.5-870.8Z" transform="translate(-73.155 889)" fill="#003346"/>
  </g>
</svg>
