<svg id="icon" xmlns="http://www.w3.org/2000/svg" width="24" height="24" viewBox="0 0 24 24">
  <rect id="Rec" width="24" height="24" fill="none"/>
  <path id="pending_FILL0_wght400_GRAD0_opsz24" d="M87-866a6.816,6.816,0,0,1-2.73-.551,7.07,7.07,0,0,1-2.222-1.5,7.07,7.07,0,0,1-1.5-2.223A6.817,6.817,0,0,1,80-873a6.817,6.817,0,0,1,.551-2.73,7.07,7.07,0,0,1,1.5-2.223,7.07,7.07,0,0,1,2.222-1.5A6.817,6.817,0,0,1,87-880a6.817,6.817,0,0,1,2.73.551,7.07,7.07,0,0,1,2.223,1.5,7.07,7.07,0,0,1,1.5,2.223A6.817,6.817,0,0,1,94-873a6.816,6.816,0,0,1-.551,2.73,7.07,7.07,0,0,1-1.5,2.223,7.07,7.07,0,0,1-2.223,1.5A6.816,6.816,0,0,1,87-866Zm0-1.4a5.4,5.4,0,0,0,3.973-1.628A5.4,5.4,0,0,0,92.6-873a5.4,5.4,0,0,0-1.628-3.972A5.4,5.4,0,0,0,87-878.6a5.4,5.4,0,0,0-3.972,1.628A5.4,5.4,0,0,0,81.4-873a5.4,5.4,0,0,0,1.628,3.972A5.4,5.4,0,0,0,87-867.4Z" transform="translate(-75 885)" fill="#b5b5b5"/>
  <path id="pending_FILL0_wght400_GRAD0_opsz24-2" data-name="pending_FILL0_wght400_GRAD0_opsz24" d="M90.5-871.95a1.013,1.013,0,0,0,.744-.306A1.013,1.013,0,0,0,91.55-873a1.013,1.013,0,0,0-.306-.744,1.013,1.013,0,0,0-.744-.306,1.013,1.013,0,0,0-.744.306,1.013,1.013,0,0,0-.306.744,1.013,1.013,0,0,0,.306.744A1.013,1.013,0,0,0,90.5-871.95Z" transform="translate(-75 885)" fill="#003346"/>
  <path id="pending_FILL0_wght400_GRAD0_opsz24-3" data-name="pending_FILL0_wght400_GRAD0_opsz24" d="M90.5-871.95a1.013,1.013,0,0,0,.744-.306A1.013,1.013,0,0,0,91.55-873a1.013,1.013,0,0,0-.306-.744,1.013,1.013,0,0,0-.744-.306,1.013,1.013,0,0,0-.744.306,1.013,1.013,0,0,0-.306.744,1.013,1.013,0,0,0,.306.744A1.013,1.013,0,0,0,90.5-871.95Z" transform="translate(-78.5 885)" fill="#003346"/>
  <path id="pending_FILL0_wght400_GRAD0_opsz24-4" data-name="pending_FILL0_wght400_GRAD0_opsz24" d="M90.5-871.95a1.013,1.013,0,0,0,.744-.306A1.013,1.013,0,0,0,91.55-873a1.013,1.013,0,0,0-.306-.744,1.013,1.013,0,0,0-.744-.306,1.013,1.013,0,0,0-.744.306,1.013,1.013,0,0,0-.306.744,1.013,1.013,0,0,0,.306.744A1.013,1.013,0,0,0,90.5-871.95Z" transform="translate(-82 885)" fill="#003346"/>
</svg>
