<svg xmlns="http://www.w3.org/2000/svg" width="25" height="18" viewBox="0 0 25 18">
  <g id="Group_288" data-name="Group 288" transform="translate(-8 -11)">
    <path id="checklist_rtl_24dp_5F6368_FILL0_wght400_GRAD0_opsz24" d="M98.327-771.58l4.534-4.48a1.177,1.177,0,0,1,.894-.363,1.293,1.293,0,0,1,.894.394,1.258,1.258,0,0,1,.351.883,1.258,1.258,0,0,1-.351.883l-5.4,5.363a1.232,1.232,0,0,1-.894.379,1.232,1.232,0,0,1-.894-.379l-2.746-2.713a1.189,1.189,0,0,1-.351-.883,1.189,1.189,0,0,1,.351-.883,1.219,1.219,0,0,1,.894-.347,1.219,1.219,0,0,1,.894.347Z" transform="translate(-72 797.52)" fill="#003346"/>
    <path id="checklist_rtl_24dp_5F6368_FILL0_wght400_GRAD0_opsz24-2" data-name="checklist_rtl_24dp_5F6368_FILL0_wght400_GRAD0_opsz24" d="M98.327-781.676l4.534-4.48a1.177,1.177,0,0,1,.894-.363,1.292,1.292,0,0,1,.894.394,1.258,1.258,0,0,1,.351.883,1.258,1.258,0,0,1-.351.883l-5.4,5.364a1.232,1.232,0,0,1-.894.379,1.232,1.232,0,0,1-.894-.379l-2.746-2.713a1.189,1.189,0,0,1-.351-.883,1.189,1.189,0,0,1,.351-.883,1.219,1.219,0,0,1,.894-.347,1.219,1.219,0,0,1,.894.347Zm-17.05,11.137a1.244,1.244,0,0,1-.91-.363,1.214,1.214,0,0,1-.367-.9,1.214,1.214,0,0,1,.367-.9,1.243,1.243,0,0,1,.91-.363h8.94a1.243,1.243,0,0,1,.91.363,1.214,1.214,0,0,1,.367.9,1.214,1.214,0,0,1-.367.9,1.244,1.244,0,0,1-.91.363Zm0-10.1a1.243,1.243,0,0,1-.91-.363,1.213,1.213,0,0,1-.367-.9,1.213,1.213,0,0,1,.367-.9,1.243,1.243,0,0,1,.91-.363h8.94a1.243,1.243,0,0,1,.91.363,1.213,1.213,0,0,1,.367.9,1.213,1.213,0,0,1-.367.9,1.243,1.243,0,0,1-.91.363Z" transform="translate(-72 797.52)" fill="#b5b5b5"/>
  </g>
</svg>
