<svg id="icon" xmlns="http://www.w3.org/2000/svg" width="24" height="24" viewBox="0 0 24 24">
  <rect id="Rec" width="24" height="24" fill="none"/>
  <path id="task_alt_FILL0_wght400_GRAD0_opsz24" d="M87.5-865a7.3,7.3,0,0,1-2.925-.591,7.574,7.574,0,0,1-2.381-1.6,7.574,7.574,0,0,1-1.6-2.381A7.3,7.3,0,0,1,80-872.5a7.3,7.3,0,0,1,.591-2.925,7.574,7.574,0,0,1,1.6-2.381,7.574,7.574,0,0,1,2.381-1.6A7.3,7.3,0,0,1,87.5-880a7.362,7.362,0,0,1,2.306.356,7.707,7.707,0,0,1,2.006.994l-1.088,1.106a6.451,6.451,0,0,0-1.519-.7A5.663,5.663,0,0,0,87.5-878.5a5.784,5.784,0,0,0-4.247,1.753A5.784,5.784,0,0,0,81.5-872.5a5.784,5.784,0,0,0,1.753,4.247A5.784,5.784,0,0,0,87.5-866.5a5.784,5.784,0,0,0,4.247-1.753A5.784,5.784,0,0,0,93.5-872.5a6.107,6.107,0,0,0-.037-.675,5.525,5.525,0,0,0-.113-.656l1.219-1.219a8.164,8.164,0,0,1,.319,1.237A7.539,7.539,0,0,1,95-872.5a7.3,7.3,0,0,1-.591,2.925,7.574,7.574,0,0,1-1.6,2.381,7.574,7.574,0,0,1-2.381,1.6A7.3,7.3,0,0,1,87.5-865Z" transform="translate(-75.5 884.5)" fill="#b5b5b5"/>
  <path id="task_alt_FILL0_wght400_GRAD0_opsz24-2" data-name="task_alt_FILL0_wght400_GRAD0_opsz24" d="M86.45-869.05l-3.187-3.187,1.05-1.05,2.137,2.137,7.5-7.519,1.05,1.05Z" transform="translate(-75.5 884.5)" fill="#003346"/>
</svg>
