<svg xmlns="http://www.w3.org/2000/svg" width="22" height="22" viewBox="0 0 22 22">
  <path id="summarize_FILL0_wght400_GRAD0_opsz24" d="M126.111-832.667a1.183,1.183,0,0,0,.871-.351,1.183,1.183,0,0,0,.351-.871,1.183,1.183,0,0,0-.351-.871,1.183,1.183,0,0,0-.871-.351,1.183,1.183,0,0,0-.871.351,1.183,1.183,0,0,0-.351.871,1.183,1.183,0,0,0,.351.871A1.183,1.183,0,0,0,126.111-832.667Zm0,4.889a1.183,1.183,0,0,0,.871-.351,1.183,1.183,0,0,0,.351-.871,1.183,1.183,0,0,0-.351-.871,1.183,1.183,0,0,0-.871-.351,1.183,1.183,0,0,0-.871.351,1.183,1.183,0,0,0-.351.871,1.183,1.183,0,0,0,.351.871A1.183,1.183,0,0,0,126.111-827.778Zm0,4.889a1.183,1.183,0,0,0,.871-.351,1.183,1.183,0,0,0,.351-.871,1.183,1.183,0,0,0-.351-.871,1.183,1.183,0,0,0-.871-.351,1.183,1.183,0,0,0-.871.351,1.183,1.183,0,0,0-.351.871,1.183,1.183,0,0,0,.351.871A1.183,1.183,0,0,0,126.111-822.889ZM122.444-818a2.354,2.354,0,0,1-1.726-.718,2.354,2.354,0,0,1-.718-1.726v-17.111a2.354,2.354,0,0,1,.718-1.726,2.354,2.354,0,0,1,1.726-.718h13.444L142-833.889v13.444a2.354,2.354,0,0,1-.718,1.726,2.354,2.354,0,0,1-1.726.718Zm0-2.444h17.111v-12.222h-4.889v-4.889H122.444Zm0-17.111v0Z" transform="translate(-120 840)" fill="#fff"/>
</svg>
