<svg xmlns="http://www.w3.org/2000/svg" width="24" height="25" viewBox="0 0 24 25">
  <g id="Group_287" data-name="Group 287" transform="translate(-8 -8)">
    <path id="inventory_24dp_5F6368_FILL0_wght400_GRAD0_opsz24" d="M122.51-895a2.421,2.421,0,0,1-1.773-.734A2.4,2.4,0,0,1,120-897.5V-915a2.4,2.4,0,0,1,.737-1.766,2.422,2.422,0,0,1,1.773-.734h5.239a3.409,3.409,0,0,1,1.349-1.8,3.747,3.747,0,0,1,2.2-.7,3.774,3.774,0,0,1,2.243.7,3.434,3.434,0,0,1,1.333,1.8h5.208a2.422,2.422,0,0,1,1.773.734,2.4,2.4,0,0,1,.737,1.766v5a1.207,1.207,0,0,1-.361.891,1.217,1.217,0,0,1-.894.359,1.217,1.217,0,0,1-.894-.359,1.207,1.207,0,0,1-.361-.891v-5h-2.51v2.5a1.207,1.207,0,0,1-.361.891,1.217,1.217,0,0,1-.894.359H126.275a1.217,1.217,0,0,1-.894-.359,1.207,1.207,0,0,1-.361-.891V-915h-2.51v17.5h6.275a1.217,1.217,0,0,1,.894.359,1.207,1.207,0,0,1,.361.891,1.207,1.207,0,0,1-.361.891,1.217,1.217,0,0,1-.894.359Zm8.784-20a1.217,1.217,0,0,0,.894-.359,1.207,1.207,0,0,0,.361-.891,1.207,1.207,0,0,0-.361-.891,1.217,1.217,0,0,0-.894-.359,1.217,1.217,0,0,0-.894.359,1.207,1.207,0,0,0-.361.891,1.207,1.207,0,0,0,.361.891A1.217,1.217,0,0,0,131.294-915Z" transform="translate(-112 928)" fill="#b5b5b5"/>
    <path id="inventory_24dp_5F6368_FILL0_wght400_GRAD0_opsz24-2" data-name="inventory_24dp_5F6368_FILL0_wght400_GRAD0_opsz24" d="M135.686-899.844l6.212-6.187a1.193,1.193,0,0,1,.878-.344,1.193,1.193,0,0,1,.878.344,1.183,1.183,0,0,1,.345.875,1.183,1.183,0,0,1-.345.875l-7.09,7.063a1.206,1.206,0,0,1-.878.375,1.206,1.206,0,0,1-.878-.375l-3.576-3.563a1.183,1.183,0,0,1-.345-.875,1.183,1.183,0,0,1,.345-.875,1.192,1.192,0,0,1,.878-.344,1.192,1.192,0,0,1,.878.344Z" transform="translate(-112 928)" fill="#003346"/>
  </g>
</svg>
