<svg xmlns="http://www.w3.org/2000/svg" width="16.332" height="16.332" viewBox="0 0 16.332 16.332">
  <g id="noun-business-entity-4456170" transform="translate(-2 -2)">
    <g id="Group_2233" data-name="Group 2233" transform="translate(2 2)">
      <path id="Path_242" data-name="Path 242" d="M17.166,16V12.511h0V11.333a.583.583,0,0,0-.583-.583H15.416V9.583A.583.583,0,0,0,14.833,9h-3.5a.583.583,0,0,0-.583.583V10.75H9.583A.583.583,0,0,0,9,11.333V12.51H9V16a.583.583,0,0,0,.583.583h7A.583.583,0,0,0,17.166,16Zm-5.25-5.833H14.25v.583H11.916ZM16,11.916V12.1l-2.445.978h-.942L10.167,12.1v-.188Zm-5.833,3.5V13.361l2.117.847a.585.585,0,0,0,.216.041h1.167a.585.585,0,0,0,.216-.041L16,13.361v2.055Z" transform="translate(-4.917 -4.917)" fill="#b5b5b5"/>
      <path id="Path_243" data-name="Path 243" d="M3.75,5.5A1.727,1.727,0,0,0,4.5,5.324l0,.005L5.671,6.5A.583.583,0,0,0,6.5,5.671L5.329,4.5l-.005,0A1.725,1.725,0,0,0,5.5,3.75,1.75,1.75,0,1,0,3.75,5.5Zm0-2.333a.583.583,0,1,1-.583.583A.584.584,0,0,1,3.75,3.167Z" transform="translate(-2 -2)" fill="#003346"/>
      <path id="Path_244" data-name="Path 244" d="M5.671,22.171,4.5,23.337l0,.005a1.725,1.725,0,0,0-.751-.176,1.75,1.75,0,1,0,1.75,1.75,1.725,1.725,0,0,0-.176-.751l.005,0L6.5,23a.583.583,0,0,0-.825-.825ZM3.75,25.5a.583.583,0,1,1,.583-.583A.584.584,0,0,1,3.75,25.5Z" transform="translate(-2 -10.334)" fill="#003346"/>
      <path id="Path_245" data-name="Path 245" d="M22.583,6.666A.582.582,0,0,0,23,6.5l1.167-1.167,0-.005a1.725,1.725,0,0,0,.751.176,1.75,1.75,0,1,0-1.75-1.75,1.725,1.725,0,0,0,.176.751l-.005,0L22.171,5.671a.583.583,0,0,0,.412,1Zm2.333-3.5a.583.583,0,1,1-.583.583A.584.584,0,0,1,24.916,3.167Z" transform="translate(-10.334 -2)" fill="#003346"/>
      <path id="Path_246" data-name="Path 246" d="M24.916,23.166a1.725,1.725,0,0,0-.751.176l0-.005L23,22.171a.583.583,0,0,0-.825.825l1.167,1.167.005,0a1.727,1.727,0,0,0-.176.751,1.75,1.75,0,1,0,1.75-1.75Zm0,2.333a.583.583,0,1,1,.583-.583A.584.584,0,0,1,24.916,25.5Z" transform="translate(-10.334 -10.334)" fill="#003346"/>
    </g>
  </g>
</svg>
