<svg id="icon" xmlns="http://www.w3.org/2000/svg" width="24" height="24" viewBox="0 0 24 24">
  <rect id="Rec" width="24" height="24" fill="none"/>
  <path id="cases_FILL0_wght400_GRAD0_opsz24" d="M44.091-908.409a1.313,1.313,0,0,1-.963-.4,1.313,1.313,0,0,1-.4-.963v-7.5h3.409v-1.364a1.313,1.313,0,0,1,.4-.963,1.313,1.313,0,0,1,.963-.4h2.727a1.313,1.313,0,0,1,.963.4,1.313,1.313,0,0,1,.4.963v1.364H55v7.5a1.313,1.313,0,0,1-.4.963,1.313,1.313,0,0,1-.963.4Zm0-1.364h9.545v-6.136H44.091Zm3.409-7.5h2.727v-1.364H47.5Zm-3.409,7.5v0Z" transform="translate(-35.5 924.842)" fill="#b5b5b5"/>
  <path id="cases_FILL0_wght400_GRAD0_opsz24-2" data-name="cases_FILL0_wght400_GRAD0_opsz24" d="M41.364-905.682a1.313,1.313,0,0,1-.963-.4,1.313,1.313,0,0,1-.4-.963v-7.5h1.364v7.5H52.955v1.364Z" transform="translate(-35.5 924.841)" fill="#003346"/>
</svg>
