<svg xmlns="http://www.w3.org/2000/svg" width="18" height="20" viewBox="0 0 18 20">
  <path id="contract_FILL0_wght400_GRAD0_opsz24" d="M123-860a2.9,2.9,0,0,1-2.125-.875A2.892,2.892,0,0,1,120-863v-3h3v-14h15v17a2.892,2.892,0,0,1-.875,2.125A2.894,2.894,0,0,1,135-860Zm12-2a.966.966,0,0,0,.713-.288A.967.967,0,0,0,136-863v-15H125v12h9v3a.965.965,0,0,0,.288.712A.965.965,0,0,0,135-862Zm-9-11v-2h9v2Zm0,3v-2h9v2Zm-3,8h9v-2H122v1a.966.966,0,0,0,.288.712A.965.965,0,0,0,123-862Zm0,0h0Z" transform="translate(-120 879.999)" fill="#fff"/>
</svg>
