<svg xmlns="http://www.w3.org/2000/svg" width="25" height="18.182" viewBox="0 0 25 18.182">
  <g id="Group_284" data-name="Group 284" transform="translate(-7.5 -11)">
    <path id="group_24dp_5F6368_FILL0_wght400_GRAD0_opsz24" d="M62.727-781.818h-2.9a4.147,4.147,0,0,0,.469-1.094,4.531,4.531,0,0,0,.156-1.179v-1.136a4.572,4.572,0,0,0-.7-2.4,6.139,6.139,0,0,0-1.974-1.974,14.335,14.335,0,0,1,2.727.582,14.219,14.219,0,0,1,2.386,1.008,5.033,5.033,0,0,1,1.563,1.264,2.427,2.427,0,0,1,.54,1.52v1.136a2.188,2.188,0,0,1-.668,1.605A2.188,2.188,0,0,1,62.727-781.818Zm-2.273-13.636a4.377,4.377,0,0,1-1.335,3.21,4.377,4.377,0,0,1-3.21,1.335,5.673,5.673,0,0,1-.8-.071,6.958,6.958,0,0,1-.8-.156,6.758,6.758,0,0,0,1.179-2.017,6.551,6.551,0,0,0,.412-2.3,6.551,6.551,0,0,0-.412-2.3,6.758,6.758,0,0,0-1.179-2.017,3.451,3.451,0,0,1,.8-.185,7.453,7.453,0,0,1,.8-.043,4.377,4.377,0,0,1,3.21,1.335A4.377,4.377,0,0,1,60.455-795.455Z" transform="translate(-32.5 811)" fill="#003346"/>
    <path id="group_24dp_5F6368_FILL0_wght400_GRAD0_opsz24-2" data-name="group_24dp_5F6368_FILL0_wght400_GRAD0_opsz24" d="M40-785a3.329,3.329,0,0,1,.5-1.776,3.314,3.314,0,0,1,1.321-1.236,16.87,16.87,0,0,1,3.58-1.321,15.634,15.634,0,0,1,3.693-.44,15.634,15.634,0,0,1,3.693.44,16.87,16.87,0,0,1,3.58,1.321,3.314,3.314,0,0,1,1.321,1.236,3.329,3.329,0,0,1,.5,1.776v.909a2.188,2.188,0,0,1-.668,1.605,2.189,2.189,0,0,1-1.605.668H42.273a2.189,2.189,0,0,1-1.605-.668A2.188,2.188,0,0,1,40-784.091Zm9.091-5.909a4.377,4.377,0,0,1-3.21-1.335,4.377,4.377,0,0,1-1.335-3.21,4.377,4.377,0,0,1,1.335-3.21A4.377,4.377,0,0,1,49.091-800a4.377,4.377,0,0,1,3.21,1.335,4.377,4.377,0,0,1,1.335,3.21,4.377,4.377,0,0,1-1.335,3.21A4.377,4.377,0,0,1,49.091-790.909Zm-6.818,6.818H55.909V-785a1.068,1.068,0,0,0-.156-.568,1.106,1.106,0,0,0-.412-.4,14.813,14.813,0,0,0-3.1-1.151,13.183,13.183,0,0,0-3.153-.384,13.183,13.183,0,0,0-3.153.384,14.813,14.813,0,0,0-3.1,1.151,1.106,1.106,0,0,0-.412.4,1.068,1.068,0,0,0-.156.568Zm6.818-9.091a2.189,2.189,0,0,0,1.605-.668,2.188,2.188,0,0,0,.668-1.605,2.188,2.188,0,0,0-.668-1.605,2.189,2.189,0,0,0-1.605-.668,2.189,2.189,0,0,0-1.605.668,2.188,2.188,0,0,0-.668,1.605,2.188,2.188,0,0,0,.668,1.605A2.189,2.189,0,0,0,49.091-793.182ZM49.091-784.091ZM49.091-795.455Z" transform="translate(-32.5 811)" fill="#b5b5b5"/>
  </g>
</svg>
