<svg xmlns="http://www.w3.org/2000/svg" width="25" height="18" viewBox="0 0 25 18">
  <g id="Group_268" data-name="Group 268" transform="translate(-10 -11)">
    <path id="person_add_24dp_5F6368_FILL0_wght400_GRAD0_opsz24" d="M49-791a4.333,4.333,0,0,1-3.178-1.322A4.333,4.333,0,0,1,44.5-795.5a4.334,4.334,0,0,1,1.322-3.178A4.334,4.334,0,0,1,49-800a4.334,4.334,0,0,1,3.178,1.322A4.334,4.334,0,0,1,53.5-795.5a4.333,4.333,0,0,1-1.322,3.178A4.333,4.333,0,0,1,49-791Zm-9,6.75v-.9a3.3,3.3,0,0,1,.492-1.758,3.28,3.28,0,0,1,1.308-1.223,16.7,16.7,0,0,1,3.544-1.308A15.474,15.474,0,0,1,49-789.875a15.474,15.474,0,0,1,3.656.436,16.7,16.7,0,0,1,3.544,1.308,3.281,3.281,0,0,1,1.308,1.223A3.3,3.3,0,0,1,58-785.15v.9a2.167,2.167,0,0,1-.661,1.589A2.167,2.167,0,0,1,55.75-782H42.25a2.167,2.167,0,0,1-1.589-.661A2.167,2.167,0,0,1,40-784.25Zm2.25,0h13.5v-.9a1.057,1.057,0,0,0-.155-.562,1.1,1.1,0,0,0-.408-.394,14.669,14.669,0,0,0-3.066-1.139,13.042,13.042,0,0,0-3.122-.38,13.042,13.042,0,0,0-3.122.38,14.669,14.669,0,0,0-3.066,1.139,1.1,1.1,0,0,0-.408.394,1.057,1.057,0,0,0-.155.562Zm6.75-9a2.167,2.167,0,0,0,1.589-.661,2.167,2.167,0,0,0,.661-1.589,2.166,2.166,0,0,0-.661-1.589A2.167,2.167,0,0,0,49-797.75a2.167,2.167,0,0,0-1.589.661,2.166,2.166,0,0,0-.661,1.589,2.167,2.167,0,0,0,.661,1.589A2.167,2.167,0,0,0,49-793.25ZM49-795.5ZM49-784.25Z" transform="translate(-30 811)" fill="#b5b5b5"/>
    <path id="person_add_24dp_5F6368_FILL0_wght400_GRAD0_opsz24-2" data-name="person_add_24dp_5F6368_FILL0_wght400_GRAD0_opsz24" d="M56.1-792.557h-2.25a1.088,1.088,0,0,1-.8-.323,1.088,1.088,0,0,1-.323-.8,1.089,1.089,0,0,1,.323-.8,1.089,1.089,0,0,1,.8-.323H56.1v-2.25a1.089,1.089,0,0,1,.323-.8,1.089,1.089,0,0,1,.8-.323,1.089,1.089,0,0,1,.8.323,1.089,1.089,0,0,1,.323.8v2.25H60.6a1.089,1.089,0,0,1,.8.323,1.089,1.089,0,0,1,.323.8,1.088,1.088,0,0,1-.323.8,1.088,1.088,0,0,1-.8.323h-2.25v2.25a1.088,1.088,0,0,1-.323.8,1.088,1.088,0,0,1-.8.323,1.088,1.088,0,0,1-.8-.323,1.088,1.088,0,0,1-.323-.8Z" transform="translate(-26.727 811.432)" fill="#003346"/>
  </g>
</svg>
