<svg xmlns="http://www.w3.org/2000/svg" width="25" height="20" viewBox="0 0 25 20">
  <g id="Group_306" data-name="Group 306" transform="translate(-7.5 -10)">
    <path id="rule_24dp_5F6368_FILL0_wght400_GRAD0_opsz24" d="M99.157-769.375l-2.427,2.494a1.194,1.194,0,0,1-.894.361,1.194,1.194,0,0,1-.894-.361,1.263,1.263,0,0,1-.351-.919,1.263,1.263,0,0,1,.351-.919l2.427-2.494-2.427-2.494a1.263,1.263,0,0,1-.351-.919,1.263,1.263,0,0,1,.351-.919,1.194,1.194,0,0,1,.894-.361,1.194,1.194,0,0,1,.894.361l2.427,2.494,2.427-2.494a1.194,1.194,0,0,1,.894-.361,1.194,1.194,0,0,1,.894.361,1.263,1.263,0,0,1,.351.919,1.263,1.263,0,0,1-.351.919l-2.427,2.494,2.427,2.494a1.263,1.263,0,0,1,.351.919,1.263,1.263,0,0,1-.351.919,1.194,1.194,0,0,1-.894.361,1.194,1.194,0,0,1-.894-.361Z" transform="translate(-72.5 796.52)" fill="#003346"/>
    <path id="rule_24dp_5F6368_FILL0_wght400_GRAD0_opsz24-2" data-name="rule_24dp_5F6368_FILL0_wght400_GRAD0_opsz24" d="M98.327-781.483l4.534-4.659a1.154,1.154,0,0,1,.894-.377,1.27,1.27,0,0,1,.894.41,1.337,1.337,0,0,1,.351.919,1.337,1.337,0,0,1-.351.919l-5.4,5.578a1.21,1.21,0,0,1-.894.394,1.21,1.21,0,0,1-.894-.394l-2.746-2.822a1.263,1.263,0,0,1-.351-.919,1.263,1.263,0,0,1,.351-.919,1.194,1.194,0,0,1,.894-.361,1.194,1.194,0,0,1,.894.361Zm-17.05,8.958h8.94a1.219,1.219,0,0,1,.91.377,1.288,1.288,0,0,1,.367.935,1.288,1.288,0,0,1-.367.935,1.219,1.219,0,0,1-.91.377h-8.94a1.219,1.219,0,0,1-.91-.377,1.288,1.288,0,0,1-.367-.935,1.288,1.288,0,0,1,.367-.935A1.219,1.219,0,0,1,81.277-772.525Zm0-10.5h8.94a1.219,1.219,0,0,1,.91.377,1.288,1.288,0,0,1,.367.935,1.288,1.288,0,0,1-.367.935,1.219,1.219,0,0,1-.91.377h-8.94a1.219,1.219,0,0,1-.91-.377,1.288,1.288,0,0,1-.367-.935,1.288,1.288,0,0,1,.367-.935A1.219,1.219,0,0,1,81.277-783.025Z" transform="translate(-72.5 796.52)" fill="#b5b5b5"/>
  </g>
</svg>
