<svg xmlns="http://www.w3.org/2000/svg" width="18.182" height="25" viewBox="0 0 18.182 25">
  <g id="Group_304" data-name="Group 304" transform="translate(-10.91 -7.591)">
    <path id="mitre_24dp_5F6368_FILL0_wght400_GRAD0_opsz24" d="M160-897.273v-2.273a2.188,2.188,0,0,1,.668-1.605,2.188,2.188,0,0,1,1.605-.668h.568v-2.273h-.568a2.188,2.188,0,0,1-1.605-.668,2.188,2.188,0,0,1-.668-1.605v-2.273a2.189,2.189,0,0,1,.668-1.605,2.188,2.188,0,0,1,1.605-.668h.568v-2.273h-.568a2.188,2.188,0,0,1-1.605-.668,2.188,2.188,0,0,1-.668-1.605v-2.273a2.188,2.188,0,0,1,.668-1.605,2.188,2.188,0,0,1,1.605-.668h3.409a2.188,2.188,0,0,1,1.605.668,2.188,2.188,0,0,1,.668,1.605v2.273a2.188,2.188,0,0,1-.668,1.605,2.188,2.188,0,0,1-1.605.668h-.568v2.273h.568a2.188,2.188,0,0,1,1.605.668,2.189,2.189,0,0,1,.668,1.605v2.273a2.188,2.188,0,0,1-.668,1.605,2.188,2.188,0,0,1-1.605.668h-.568v2.273h.568a2.188,2.188,0,0,1,1.605.668,2.188,2.188,0,0,1,.668,1.605v2.273a2.189,2.189,0,0,1-.668,1.605,2.188,2.188,0,0,1-1.605.668h-3.409a2.188,2.188,0,0,1-1.605-.668A2.189,2.189,0,0,1,160-897.273Zm2.273,0h3.409v-2.273h-3.409Zm0-9.091h3.409v-2.273h-3.409Zm0-9.091h3.409v-2.273h-3.409ZM163.977-898.409ZM163.977-907.5ZM163.977-916.591Z" transform="translate(-149.09 927.591)" fill="#b5b5b5"/>
    <path id="mitre_24dp_5F6368_FILL0_wght400_GRAD0_opsz24-2" data-name="mitre_24dp_5F6368_FILL0_wght400_GRAD0_opsz24" d="M170.227-906.364v-2.273a2.189,2.189,0,0,1,.668-1.605,2.189,2.189,0,0,1,1.605-.668h.568v-2.273H172.5a2.189,2.189,0,0,1-1.605-.668,2.188,2.188,0,0,1-.668-1.605v-2.273a2.188,2.188,0,0,1,.668-1.605A2.189,2.189,0,0,1,172.5-920h3.409a2.189,2.189,0,0,1,1.605.668,2.188,2.188,0,0,1,.668,1.605v2.273a2.188,2.188,0,0,1-.668,1.605,2.189,2.189,0,0,1-1.605.668h-.568v2.273h.568a2.189,2.189,0,0,1,1.605.668,2.189,2.189,0,0,1,.668,1.605v2.273a2.188,2.188,0,0,1-.668,1.605,2.189,2.189,0,0,1-1.605.668H172.5a2.189,2.189,0,0,1-1.605-.668A2.188,2.188,0,0,1,170.227-906.364Zm2.273,0h3.409v-2.273H172.5Zm0-9.091h3.409v-2.273H172.5ZM174.2-907.5ZM174.2-916.591Z" transform="translate(-149.09 927.591)" fill="#003346"/>
  </g>
</svg>
