<?xml version="1.0" encoding="UTF-8"?>
<svg version="1.1" xmlns="http://www.w3.org/2000/svg" width="688" height="763">
<path d="M0 0 C6.95827559 6.95827559 9.49783733 14.90902299 9.50447559 24.69234276 C9.50928531 25.77168667 9.50928531 25.77168667 9.51419219 26.87283552 C9.52247882 29.2786174 9.51657265 31.68414945 9.51069641 34.0899353 C9.5137177 35.83435467 9.51760708 37.57877272 9.52228898 39.32318842 C9.53258055 44.11288601 9.53038419 48.90250883 9.52610838 53.69221258 C9.52364327 58.8593257 9.53265265 64.02642072 9.54014587 69.19352722 C9.55290085 79.31495119 9.55468557 89.43634864 9.55234561 99.5577793 C9.55056319 107.7840835 9.55231046 116.01037965 9.55657005 124.23668289 C9.55746284 125.9923292 9.55746284 125.9923292 9.55837366 127.7834431 C9.5595854 130.16111178 9.56079953 132.53878046 9.56201603 134.91644914 C9.57289464 157.21865887 9.57072755 179.52085347 9.56463119 201.82306404 C9.5594617 222.22814875 9.57071775 242.63318572 9.58972941 263.03826098 C9.60909881 283.98783047 9.61736538 304.93737736 9.61360615 325.88695586 C9.61169275 337.6494902 9.61419521 349.41198391 9.62832069 361.17451096 C9.64022401 371.18799611 9.64165114 381.20141563 9.62953053 391.21490167 C9.62363451 396.32383021 9.62256244 401.43263862 9.63453293 406.54155922 C9.64536669 411.21969705 9.6423182 415.89761409 9.62827124 420.57574148 C9.62561741 422.26679817 9.62801236 423.95787201 9.63600711 425.64891188 C9.68396143 436.55004511 9.55149898 446.36979853 2.25 455.25 C-3.69453607 460.87731025 -10.30750105 464.0678243 -18.55078125 464.34375 C-26.84302877 463.88498112 -33.75638567 461.08162476 -39.75 455.25 C-47.91252889 445.04683888 -47.04164592 432.69918252 -47.01069641 420.29727173 C-47.01372005 418.57715005 -47.0176106 416.85702972 -47.02228898 415.13691175 C-47.03255026 410.42819301 -47.03039193 405.71955058 -47.02610838 401.01082563 C-47.02363778 395.92550814 -47.03265947 390.84020886 -47.04014587 385.75489807 C-47.05288543 375.79931747 -47.0546875 365.84376384 -47.05234561 355.88817646 C-47.05056152 347.79497891 -47.05231405 339.70178955 -47.05657005 331.60859299 C-47.05716524 330.45608692 -47.05776043 329.30358086 -47.05837366 328.11615037 C-47.05958543 325.77472549 -47.06079956 323.4333006 -47.06201603 321.09187572 C-47.07288864 299.1415088 -47.07073036 277.19115724 -47.06463119 255.24078946 C-47.05946188 235.16771471 -47.07071836 215.09468848 -47.08972941 195.02162333 C-47.10910925 174.40077792 -47.11736357 153.77995547 -47.11360615 133.15910089 C-47.11169439 121.58598698 -47.11417935 110.01291437 -47.12832069 98.43980789 C-47.14023728 88.5878772 -47.14163619 78.73601324 -47.12953053 68.88408162 C-47.12364394 63.859821 -47.12253642 58.83568244 -47.13453293 53.81142998 C-47.14539843 49.20727074 -47.14228038 44.60333536 -47.12827124 39.99918656 C-47.12562618 38.3384486 -47.12798484 36.67769306 -47.13600711 35.01697238 C-47.2451555 10.72521651 -47.2451555 10.72521651 -39.625 2.75 C-28.0952458 -8.76124738 -13.3473562 -8.49377213 0 0 Z " fill="#96ED45" transform="translate(300.75,25.75)"/>
<path d="M0 0 C7.17626559 4.17828622 11.95827388 10.11359836 14.5625 18 C14.93969816 21.60979402 14.93969816 21.60979402 14.94281673 25.53604698 C14.94747665 26.26573983 14.95213657 26.99543269 14.9569377 27.74723744 C14.96887006 30.1875825 14.9594993 32.62736899 14.95018005 35.06771851 C14.95435375 36.83688846 14.95983146 38.60605573 14.96649987 40.37521803 C14.98096857 45.23335557 14.97670527 50.09132365 14.96933305 54.94947052 C14.96460721 60.19021198 14.97710609 65.43091647 14.98735046 70.67164612 C15.00455539 80.93746111 15.00537493 91.20321495 15.00013756 101.46904062 C14.99609769 109.81262504 14.99753725 118.15619137 15.00288582 126.49977493 C15.00363424 127.68685797 15.00438266 128.87394101 15.00515376 130.09699626 C15.00668523 132.50848694 15.00822357 134.91997762 15.00976873 137.3314683 C15.02349997 159.95129579 15.01805175 182.57108871 15.00658352 205.19091542 C14.99665105 225.88700915 15.00959097 246.58301349 15.03351771 267.27909343 C15.05789744 288.52699098 15.06751931 309.77484687 15.06086498 331.02275813 C15.05737019 342.952977 15.05962199 354.88312711 15.07711601 366.81333542 C15.0918239 376.96957026 15.09249191 387.12568791 15.0750451 397.28192042 C15.06652103 402.46378928 15.06441996 407.6454487 15.07969666 412.82730675 C15.09351172 417.57212014 15.08882149 422.31654401 15.06945742 427.06133468 C15.06568733 428.77661628 15.06864839 430.49192884 15.07906907 432.20718293 C15.13660269 442.40335863 14.38822681 449.98814359 8.8125 458.75 C2.96303653 464.59946347 -3.75627096 467.85476557 -12.03515625 468.06640625 C-20.45195488 467.67575315 -27.9389061 465.03939279 -33.8125 458.8125 C-40.88620695 449.11873181 -41.00980097 439.29355859 -40.93870544 427.76133728 C-40.94260198 426.01020102 -40.94824524 424.25906793 -40.95547634 422.50794226 C-40.97019817 417.7135306 -40.96006921 412.91944849 -40.94573963 408.12504756 C-40.93461521 402.94775413 -40.94657728 397.77050636 -40.95558167 392.59321594 C-40.96950579 382.45812922 -40.96196415 372.32316721 -40.94690608 362.18808644 C-40.93003608 350.38365724 -40.93325748 338.57925901 -40.93700016 326.77482147 C-40.94287717 305.71240462 -40.92871307 284.65004758 -40.90405273 263.58764648 C-40.8801294 243.15240233 -40.87304988 222.71723807 -40.88354492 202.28198242 C-40.89495526 180.02466452 -40.89688298 157.76738355 -40.88244683 135.51006609 C-40.880921 133.13660435 -40.87940064 130.76314261 -40.87788582 128.38968086 C-40.877128 127.2219144 -40.87637019 126.05414793 -40.87558941 124.8509946 C-40.87084773 116.62365387 -40.87269719 108.39632965 -40.87695122 100.16898918 C-40.8818788 90.14275817 -40.87588927 80.11660267 -40.85605692 70.09038895 C-40.84618827 64.97537016 -40.84107528 59.86046635 -40.84894943 54.74544144 C-40.85601189 50.06186164 -40.84918829 45.37851373 -40.8313458 40.69496448 C-40.82730502 39.00198293 -40.82829498 37.30898022 -40.83486467 35.61600661 C-40.87811532 23.42591754 -40.16216028 13.3614968 -31.4375 4 C-22.62503866 -2.97653189 -10.35435909 -4.70940988 0 0 Z " fill="#96ED45" transform="translate(404.4375,22)"/>
<path d="M0 0 C2.75 2.4375 2.75 2.4375 5 5 C5.721875 5.804375 6.44375 6.60875 7.1875 7.4375 C11.56971494 13.63304527 11.28870694 19.95599019 11.26742554 27.25288391 C11.27195665 28.39097148 11.27648776 29.52905904 11.28115618 30.70163411 C11.29382306 34.51768334 11.29217831 38.33359027 11.29052734 42.1496582 C11.29542435 44.88467955 11.30325972 47.61969089 11.31088257 50.35470581 C11.3274813 57.01446848 11.3329916 63.67419575 11.33410732 70.33397738 C11.33505833 75.74852226 11.33917122 81.16305548 11.34550858 86.57759666 C11.36311785 101.93573315 11.37234793 117.29384171 11.37084763 132.65198836 C11.37076772 133.4796032 11.3706878 134.30721804 11.37060547 135.15991211 C11.37052371 135.98853983 11.37044195 136.81716755 11.37035771 137.6709052 C11.36954488 151.09870058 11.38868258 164.52638378 11.4168822 177.95414672 C11.44562254 191.7484495 11.45942187 205.54269759 11.45769465 219.33703107 C11.45703115 227.07878845 11.46250591 234.82042821 11.48405075 242.56215858 C11.5022777 249.15380411 11.50659753 255.7452787 11.4930319 262.33693854 C11.48650966 265.69820671 11.48853829 269.05887997 11.5037384 272.42016029 C11.51916989 276.06912108 11.50989514 279.71722291 11.49447632 283.36616516 C11.50476344 284.42143144 11.51505057 285.47669773 11.52564943 286.56394178 C11.45140759 294.52351309 9.84180841 300.72099029 4.5625 306.8125 C3.716875 307.534375 2.87125 308.25625 2 309 C0.7625 310.0828125 0.7625 310.0828125 -0.5 311.1875 C-6.11873915 315.26108589 -12.18337788 316.07310051 -19 316 C-27.47812992 314.54244185 -34.20770555 310.80716917 -39.59035528 304.05190706 C-44.27467528 297.23331715 -44.43255874 289.54027616 -44.38095093 281.53820801 C-44.38797089 279.85173306 -44.38797089 279.85173306 -44.39513266 278.13118792 C-44.40705833 274.37965482 -44.39763459 270.62848866 -44.38818359 266.87695312 C-44.39225037 264.18089234 -44.3974847 261.48485647 -44.40411377 258.7888031 C-44.41742606 252.23570433 -44.41458458 245.68270888 -44.40587585 239.12960613 C-44.39908982 233.80189537 -44.39818655 228.47421348 -44.4014473 223.14649963 C-44.401907 222.38709321 -44.40236669 221.62768678 -44.40284032 220.84526804 C-44.40379954 219.30235842 -44.40477218 217.75944881 -44.4057581 216.2165392 C-44.41430465 201.7620545 -44.4044894 187.30762695 -44.388357 172.85315162 C-44.37495448 160.4611545 -44.37728278 148.0692417 -44.39111328 135.67724609 C-44.40718209 121.27309199 -44.41348075 106.86898793 -44.40427649 92.46482611 C-44.40332088 90.92771753 -44.40237777 89.39060895 -44.4014473 87.85350037 C-44.40098447 87.09729134 -44.40052164 86.34108232 -44.40004479 85.56195787 C-44.3974588 80.2430803 -44.40181745 74.92423458 -44.40888596 69.60536194 C-44.41731562 63.11993454 -44.41499009 56.63461602 -44.39904372 50.14920104 C-44.39118062 46.84271727 -44.38966136 43.53645144 -44.39799118 40.2299633 C-44.40619984 36.64039258 -44.39589239 33.0513304 -44.38095093 29.46179199 C-44.38764309 28.42413586 -44.39433526 27.38647973 -44.40123022 26.31737947 C-44.32104239 16.37182488 -42.15348882 9.22999373 -35.25390625 1.94921875 C-25.43330442 -6.54381472 -10.69383638 -7.30013032 0 0 Z " fill="#96ED45" transform="translate(521,287)"/>
<path d="M0 0 C6.15993662 5.31468216 9.41434591 11.49710027 10.27920997 19.62350166 C10.3875512 22.57109952 10.40477495 25.50550701 10.38768005 28.45506287 C10.39306559 29.57867393 10.39845113 30.702285 10.40399987 31.85994488 C10.41825918 35.60913528 10.41118049 39.3579716 10.40405273 43.10717773 C10.40975733 45.80161651 10.41662175 48.49603024 10.42485046 51.19046021 C10.4420093 57.73987733 10.4428846 64.2891984 10.43763756 70.83863216 C10.43358937 76.16395194 10.43504711 81.48924341 10.44038582 86.81456184 C10.44113424 87.57367955 10.44188266 88.33279725 10.44265376 89.11491852 C10.4441853 90.65726241 10.44572365 92.19960629 10.44726873 93.74195016 C10.46098309 108.19169255 10.45556346 122.64138072 10.44408352 137.09112186 C10.43415111 150.29819475 10.44709381 163.50512754 10.47101771 176.71217882 C10.49542438 190.28849558 10.5050128 203.86474714 10.49836498 217.4410854 C10.49487639 225.05706772 10.49708106 232.67294232 10.51461601 240.288908 C10.52935759 246.77176691 10.52994796 253.25444221 10.5125451 259.73729759 C10.50404884 263.04194203 10.50403076 266.3461923 10.51719666 269.65083122 C10.53040341 273.24017996 10.51886024 276.82864259 10.50120544 280.41795349 C10.51561295 281.97006843 10.51561295 281.97006843 10.53031152 283.55353922 C10.43956094 292.54412752 8.10373255 300.78673651 1.8203125 307.46484375 C-4.50084144 312.79577401 -11.77789444 315.23604131 -20 315 C-28.5089381 314.0927465 -34.33079008 310.41515859 -40 304 C-43.14210219 299.22358292 -45.12198321 295.05663567 -45.13422108 289.29874992 C-45.13867892 288.3264597 -45.14313676 287.35416948 -45.14772969 286.35241592 C-45.14754533 285.28171895 -45.14736097 284.21102197 -45.14717102 283.10787964 C-45.15084771 281.97235535 -45.1545244 280.83683106 -45.1583125 279.66689694 C-45.16937259 275.84156611 -45.17319713 272.01626242 -45.17700195 268.19091797 C-45.1827317 265.45634223 -45.18989855 262.72177058 -45.19691467 259.98719788 C-45.21667935 251.76586792 -45.22674577 243.54453674 -45.23564246 235.32318896 C-45.24002578 231.45113685 -45.24539252 227.5790861 -45.25063133 223.70703506 C-45.26764441 210.83424857 -45.28213806 197.96146293 -45.28938007 185.08866692 C-45.29128996 181.74791335 -45.29321029 178.40715979 -45.29516602 175.06640625 C-45.29564976 174.23608203 -45.2961335 173.4057578 -45.2966319 172.55027224 C-45.30493022 159.10289214 -45.33026342 145.65560105 -45.36274669 132.20825981 C-45.39582847 118.40049806 -45.41382989 104.59278152 -45.41702431 90.78497994 C-45.41918849 83.03310956 -45.42792344 75.28136894 -45.45348549 67.5295372 C-45.47520789 60.92684862 -45.48323543 54.32432132 -45.47351871 47.72160105 C-45.46897815 44.35427123 -45.4730331 40.98754347 -45.49028015 37.62021446 C-45.50795561 33.96453651 -45.50091301 30.30970061 -45.48774719 26.65402222 C-45.49871644 25.59670957 -45.50968568 24.53939693 -45.52098733 23.45004451 C-45.45178504 15.48263478 -43.84711619 9.28513406 -38.5625 3.1875 C-37.716875 2.465625 -36.87125 1.74375 -36 1 C-35.175 0.278125 -34.35 -0.44375 -33.5 -1.1875 C-23.20792567 -8.64925389 -10.08581303 -6.81976955 0 0 Z " fill="#96ED45" transform="translate(187,288)"/>
<path d="M0 0 C5.83172571 4.3817322 9.95287238 9.60524277 12.15234375 16.6171875 C12.56138602 19.69506334 12.55806525 22.73152604 12.53329468 25.83311462 C12.54031464 27.19344223 12.54031464 27.19344223 12.54747641 28.5812512 C12.55940725 31.60892398 12.54997652 34.63614252 12.54052734 37.66381836 C12.54459391 39.83903771 12.54993627 42.014255 12.55645752 44.18946838 C12.57012748 50.09028085 12.56483349 55.99093585 12.55532026 61.89175105 C12.5477211 68.06997395 12.55477009 74.24818343 12.55947876 80.42640686 C12.56493596 90.80244363 12.55774602 101.17841632 12.54345703 111.55444336 C12.52713491 123.54520123 12.53241601 135.53573855 12.54893625 147.52649778 C12.56255722 157.82563045 12.56446764 168.12471708 12.55662024 178.42385584 C12.55194656 184.57319908 12.55131049 190.72247041 12.56122971 196.87180901 C12.56990575 202.65436517 12.56386555 208.43672434 12.54654694 214.21925926 C12.54258536 216.33963952 12.54371049 218.4600364 12.55033493 220.58041 C12.55855346 223.47858824 12.54822481 226.37613833 12.53329468 229.27427673 C12.54333293 230.52784616 12.54333293 230.52784616 12.55357397 231.80674022 C12.46880817 240.31150335 9.86919874 246.59841543 4.0546875 252.85546875 C-2.69955536 259.11042466 -9.61567603 259.9782927 -18.51953125 259.8984375 C-25.85534356 259.2785097 -31.73315404 255.8479284 -36.84765625 250.6171875 C-41.71417753 243.25805776 -42.99675744 237.62032187 -42.99482727 228.84468079 C-42.99850396 227.94923166 -43.00218065 227.05378253 -43.00596875 226.13119859 C-43.01700042 223.12432517 -43.02084856 220.11748632 -43.0246582 217.1105957 C-43.03092323 214.95714712 -43.03757006 212.80369961 -43.04457092 210.6502533 C-43.06560843 203.57283277 -43.07597276 196.49541203 -43.0859375 189.41796875 C-43.08998512 186.98134029 -43.09410204 184.54471195 -43.09828758 182.10808372 C-43.11733826 170.66102758 -43.13156978 159.21397789 -43.13989955 147.76690894 C-43.14967308 134.55401498 -43.1759963 121.3412885 -43.21640044 108.12845355 C-43.2465603 97.91515184 -43.2613683 87.70189813 -43.26468056 77.48855275 C-43.26703111 71.38882626 -43.27599258 65.28927871 -43.30114174 59.18959999 C-43.32442507 53.4497463 -43.32865445 47.71018935 -43.31838036 41.97030067 C-43.31788496 39.86645521 -43.32420645 37.76259512 -43.3379364 35.6587944 C-43.35566697 32.78037969 -43.3485432 29.9030286 -43.33540344 27.02461243 C-43.34637269 26.19754785 -43.35734193 25.37048328 -43.36864358 24.51835614 C-43.27283623 15.78940902 -39.77130205 8.64086444 -33.8046875 2.34765625 C-24.68599078 -5.71538296 -10.33187635 -6.08566427 0 0 Z " fill="#96ED45" transform="translate(632.84765625,414.3828125)"/>
<path d="M0 0 C6.80513292 5.08841155 10.05358093 10.46213685 12.15234375 18.609375 C12.53834522 21.72841458 12.5630647 24.79832541 12.5400238 27.9384613 C12.54540934 28.83339344 12.55079488 29.72832557 12.55634362 30.65037686 C12.57056161 33.62570358 12.56353474 36.60058152 12.55639648 39.57592773 C12.56210325 41.71864172 12.56906869 43.86135266 12.57719421 46.00405884 C12.59510629 51.80777524 12.59396092 57.61134029 12.58825183 63.41507602 C12.58515732 68.2659568 12.59125532 73.11680862 12.59729058 77.96768528 C12.61132765 89.41378419 12.60978114 100.85980844 12.59838867 112.3059082 C12.58690669 124.10241197 12.60098649 135.89868842 12.62778515 147.69516224 C12.64995653 157.83555971 12.65657631 167.9758859 12.65070873 178.11630589 C12.64734162 184.16734421 12.64973818 190.21823681 12.66695976 196.26925468 C12.68244973 201.95996045 12.67845027 207.65032991 12.65965462 213.34102249 C12.65597454 215.42509078 12.65906018 217.50918411 12.66954041 219.59322929 C12.7244738 231.42346309 12.66971849 240.76877897 5.96484375 250.921875 C-1.3153186 257.87847458 -8.68774477 259.93678246 -18.55859375 259.81640625 C-26.8435502 259.29490662 -32.28807559 255.64329405 -37.84765625 249.609375 C-44.99657493 240.60454237 -43.55112081 228.99697333 -43.49462891 218.16210938 C-43.50141059 215.97983573 -43.51031681 213.79756782 -43.5211792 211.61531067 C-43.5439132 205.7082514 -43.5351603 199.8016303 -43.51928377 193.89456367 C-43.50659433 187.70260594 -43.51837335 181.51068485 -43.5262146 175.31872559 C-43.53530226 164.92188811 -43.52334629 154.52522843 -43.49951172 144.12841797 C-43.47230229 132.12107139 -43.48111705 120.11421972 -43.50864375 108.1068759 C-43.53135884 97.78384892 -43.5345231 87.4609495 -43.5214504 77.1379056 C-43.51366917 70.97843756 -43.51257796 64.81916885 -43.52913284 58.65971375 C-43.54361308 52.86795438 -43.53349028 47.07674055 -43.50466156 41.2850399 C-43.49806982 39.1638905 -43.49991552 37.04269491 -43.51097488 34.9215641 C-43.61268274 13.42714546 -43.61268274 13.42714546 -35.6015625 3.953125 C-34.51681641 3.04046875 -34.51681641 3.04046875 -33.41015625 2.109375 C-32.68957031 1.4803125 -31.96898437 0.85125 -31.2265625 0.203125 C-22.31930657 -5.76429769 -9.06919698 -5.37210337 0 0 Z " fill="#96ED45" transform="translate(71.84765625,414.390625)"/>
<path d="M0 0 C6.36454929 5.06270966 10.46142866 11.13632163 11.75 19.1875 C11.84464819 21.19654109 11.88898825 23.20826024 11.89717102 25.21951294 C11.90432632 26.43054184 11.91148163 27.64157074 11.91885376 28.88929749 C11.92169365 30.22323583 11.92440543 31.55717444 11.92700195 32.89111328 C11.93327181 34.30255804 11.93991907 35.71400116 11.94691467 37.1254425 C11.96789856 41.75288761 11.978313 46.38033282 11.98828125 51.0078125 C11.99233118 52.60519299 11.99644817 54.20257331 12.00063133 55.79995346 C12.01967199 63.30762956 12.03390435 70.81529591 12.0422433 78.32299149 C12.0520063 86.96838451 12.0783059 95.61352087 12.11874419 104.25882351 C12.14898078 110.95458437 12.16371937 117.65027197 12.16702431 124.34609973 C12.16936653 128.33881152 12.17821808 132.33124877 12.20348549 136.32388687 C12.22690337 140.08491508 12.23094506 143.84549065 12.22072411 147.6065731 C12.219999 149.62859879 12.23899392 151.65060221 12.25878906 153.67253113 C12.20775877 162.69675192 11.04784102 171.28086129 5.375 178.625 C-0.94741624 184.79688252 -7.18674754 187.45551438 -16 187.625 C-24.11629512 187.47121757 -29.57546029 185.55273502 -35.5703125 180.0625 C-44.81367545 170.25592138 -44.3999101 159.69466899 -44.39526367 146.88354492 C-44.39825961 145.53914802 -44.40166314 144.19475198 -44.40544128 142.85035706 C-44.41424142 139.21384784 -44.41661772 135.57736218 -44.41725707 131.94084334 C-44.41796986 129.66443563 -44.4201085 127.38803382 -44.42275429 125.11162758 C-44.43199463 117.15734098 -44.43609083 109.20307109 -44.43530273 101.2487793 C-44.43470235 93.85466106 -44.44524987 86.46061587 -44.4610464 79.0665161 C-44.47415677 72.70108741 -44.47948516 66.33568249 -44.47884732 59.97024041 C-44.47859336 56.17609447 -44.48138826 52.38201349 -44.49202538 48.58788109 C-44.50176541 45.01652096 -44.50174545 41.44528714 -44.49450874 37.87392235 C-44.49297848 35.95314287 -44.50126828 34.03236325 -44.50994873 32.11160278 C-44.47057949 21.17900632 -43.81009777 11.60011943 -36.25 3.1875 C-25.00678694 -6.35901 -12.62100402 -7.03863686 0 0 Z " fill="#108DE2" transform="translate(298.25,551.8125)"/>
<path d="M0 0 C5.47154576 5.44722778 7.87540665 11.16297202 7.90498352 18.82070923 C7.91213882 20.0907782 7.91929413 21.36084717 7.92666626 22.66940308 C7.92950653 24.07989477 7.93221826 25.49038674 7.93481445 26.90087891 C7.94108008 28.38423827 7.94772696 29.86759607 7.95472717 31.35095215 C7.97576315 36.22614449 7.98613103 41.10133713 7.99609375 45.9765625 C8.00014187 47.65632519 8.00425881 49.33608771 8.00844383 51.01585007 C8.02749669 58.91009869 8.04172595 66.80433798 8.0500558 74.69860518 C8.05982056 83.80191655 8.08611967 92.90498427 8.12655669 102.00820982 C8.15675759 109.04954373 8.17152855 116.09080797 8.17483681 123.13220537 C8.17718333 127.33502855 8.18609112 131.53759148 8.21129799 135.740345 C8.23465264 139.69832022 8.23878252 143.65586522 8.22853661 147.6138916 C8.22804288 149.06142995 8.23431506 150.50899 8.24809265 151.95646286 C8.33176781 161.27367135 7.59799757 168.32141721 2.15234375 176.01953125 C-4.35259715 182.36385632 -10.15131052 184.95279803 -19.3046875 185.1875 C-27.63710786 184.90975265 -33.44775835 183.23770845 -39.63671875 177.55859375 C-45.43303586 171.02892264 -47.35472325 164.25663036 -47.38935852 155.67329407 C-47.39651382 154.45240585 -47.40366913 153.23151764 -47.41104126 151.97363281 C-47.41388114 150.62866237 -47.41659292 149.28369164 -47.41918945 147.9387207 C-47.42545917 146.51580135 -47.43210642 145.09288362 -47.43910217 143.66996765 C-47.46008525 139.00525032 -47.47049946 134.34053288 -47.48046875 129.67578125 C-47.48451852 128.065996 -47.4886355 126.45621092 -47.49281883 124.84642601 C-47.5118582 117.2816208 -47.52609162 109.71682527 -47.5344308 102.15200073 C-47.54419756 93.43754808 -47.57050755 84.72334982 -47.61093169 76.00898677 C-47.64115154 69.2614373 -47.65590524 62.51396052 -47.65921181 55.76634473 C-47.66155566 51.74180778 -47.6704289 47.71754297 -47.69567299 43.69307899 C-47.71906184 39.90332768 -47.72314402 36.11402562 -47.71291161 32.32422066 C-47.71241874 30.93998972 -47.718665 29.55573584 -47.73246765 28.17157364 C-47.83931138 16.81370161 -46.1154471 7.87932082 -38.171875 -0.55859375 C-27.05249293 -10.30493472 -11.14071751 -9.0208239 0 0 Z " fill="#108DE2" transform="translate(411.2421875,554.25)"/>
</svg>
