<svg xmlns="http://www.w3.org/2000/svg" width="25" height="21" viewBox="0 0 25 21">
  <g id="Group_303" data-name="Group 303" transform="translate(-8 -10)">
    <path id="engineering_24dp_5F6368_FILL0_wght400_GRAD0_opsz24" d="M59.753-826.467l-.086-.408a3.351,3.351,0,0,1-.331-.131,1.038,1.038,0,0,1-.3-.219l-.345.117a.661.661,0,0,1-.388,0,.527.527,0,0,1-.3-.263l-.115-.2a.483.483,0,0,1-.072-.379A.692.692,0,0,1,58-828.3l.288-.262v-.7L58-829.529a.691.691,0,0,1-.187-.35.483.483,0,0,1,.072-.379l.115-.2a.528.528,0,0,1,.3-.262.661.661,0,0,1,.388,0l.345.117a1.1,1.1,0,0,1,.288-.2,2.614,2.614,0,0,1,.345-.146l.086-.408a.7.7,0,0,1,.2-.335.494.494,0,0,1,.345-.131h.23a.494.494,0,0,1,.345.131.7.7,0,0,1,.2.335l.086.408a2.614,2.614,0,0,1,.345.146,1.1,1.1,0,0,1,.288.2l.345-.117a.661.661,0,0,1,.388,0,.528.528,0,0,1,.3.262l.115.2a.483.483,0,0,1,.072.379.691.691,0,0,1-.187.35l-.288.263v.7l.288.262a.692.692,0,0,1,.187.35.483.483,0,0,1-.072.379l-.115.2a.527.527,0,0,1-.3.263.661.661,0,0,1-.388,0l-.345-.117a1.038,1.038,0,0,1-.3.219,3.351,3.351,0,0,1-.331.131l-.086.408a.7.7,0,0,1-.2.335.5.5,0,0,1-.345.131H60.3a.5.5,0,0,1-.345-.131A.7.7,0,0,1,59.753-826.467Zm.662-1.575a.823.823,0,0,0,.6-.263.845.845,0,0,0,.259-.612.845.845,0,0,0-.259-.612.823.823,0,0,0-.6-.263.823.823,0,0,0-.6.263.845.845,0,0,0-.259.612.845.845,0,0,0,.259.612A.823.823,0,0,0,60.415-828.042Zm1.957-4.433-.115-.583a2.37,2.37,0,0,1-.475-.219,2.008,2.008,0,0,1-.388-.306l-.6.2a.732.732,0,0,1-.518-.015.809.809,0,0,1-.4-.335l-.173-.292a.729.729,0,0,1-.1-.51.8.8,0,0,1,.273-.481l.489-.437a.679.679,0,0,1-.058-.233v-.467a.68.68,0,0,1,.058-.233l-.489-.437a.8.8,0,0,1-.273-.481.729.729,0,0,1,.1-.51l.173-.292a.809.809,0,0,1,.4-.335.732.732,0,0,1,.518-.015l.6.2a2.01,2.01,0,0,1,.388-.306,2.366,2.366,0,0,1,.475-.219l.115-.583a.772.772,0,0,1,.273-.467.776.776,0,0,1,.5-.175h.288a.776.776,0,0,1,.5.175.772.772,0,0,1,.273.467l.115.583a2.366,2.366,0,0,1,.475.219,2.01,2.01,0,0,1,.388.306l.6-.2a.732.732,0,0,1,.518.015.809.809,0,0,1,.4.335l.173.292a.729.729,0,0,1,.1.51.8.8,0,0,1-.273.481l-.489.437a.68.68,0,0,1,.058.233v.467a.679.679,0,0,1-.058.233l.489.438a.8.8,0,0,1,.273.481.729.729,0,0,1-.1.51l-.173.292a.809.809,0,0,1-.4.335.732.732,0,0,1-.518.015l-.6-.2a2.008,2.008,0,0,1-.388.306,2.37,2.37,0,0,1-.475.219l-.115.583a.772.772,0,0,1-.273.467.776.776,0,0,1-.5.175h-.288a.776.776,0,0,1-.5-.175A.772.772,0,0,1,62.372-832.475Zm.921-1.983a1.38,1.38,0,0,0,1.021-.423,1.418,1.418,0,0,0,.417-1.035,1.418,1.418,0,0,0-.417-1.035,1.38,1.38,0,0,0-1.021-.423,1.38,1.38,0,0,0-1.021.423,1.418,1.418,0,0,0-.417,1.035,1.418,1.418,0,0,0,.417,1.035A1.38,1.38,0,0,0,63.293-834.458Z" transform="translate(-34 850)" fill="#003346"/>
    <path id="engineering_24dp_5F6368_FILL0_wght400_GRAD0_opsz24-2" data-name="engineering_24dp_5F6368_FILL0_wght400_GRAD0_opsz24" d="M42-820.167v-2.1a3.553,3.553,0,0,1,.489-1.808,3.207,3.207,0,0,1,1.352-1.283,17.87,17.87,0,0,1,3.309-1.283,14.767,14.767,0,0,1,4.057-.525,14.767,14.767,0,0,1,4.057.525,17.87,17.87,0,0,1,3.309,1.283,3.207,3.207,0,0,1,1.352,1.283,3.553,3.553,0,0,1,.489,1.808v2.1a1.137,1.137,0,0,1-.331.831,1.106,1.106,0,0,1-.82.335H43.151a1.106,1.106,0,0,1-.82-.335A1.137,1.137,0,0,1,42-820.167Zm2.3-1.167H58.113v-.933a1.108,1.108,0,0,0-.158-.583,1.127,1.127,0,0,0-.417-.408,18.77,18.77,0,0,0-2.662-1.05,11.913,11.913,0,0,0-3.669-.525,11.913,11.913,0,0,0-3.669.525,18.77,18.77,0,0,0-2.662,1.05,1.127,1.127,0,0,0-.417.408,1.108,1.108,0,0,0-.158.583Zm6.906-7a4.4,4.4,0,0,1-3.251-1.371A4.525,4.525,0,0,1,46.6-833h-.288a.56.56,0,0,1-.417-.16.576.576,0,0,1-.158-.423.576.576,0,0,1,.158-.423.56.56,0,0,1,.417-.16H46.6a4.486,4.486,0,0,1,.633-2.363,4.743,4.743,0,0,1,1.669-1.662v1.108a.576.576,0,0,0,.158.423.56.56,0,0,0,.417.16.56.56,0,0,0,.417-.16.576.576,0,0,0,.158-.423v-1.575a3.219,3.219,0,0,1,.547-.131,4.025,4.025,0,0,1,.6-.044,4.025,4.025,0,0,1,.6.044,3.219,3.219,0,0,1,.547.131v1.575a.576.576,0,0,0,.158.423.56.56,0,0,0,.417.16.56.56,0,0,0,.417-.16.576.576,0,0,0,.158-.423v-1.108a4.743,4.743,0,0,1,1.669,1.662,4.486,4.486,0,0,1,.633,2.363H56.1a.56.56,0,0,1,.417.16.576.576,0,0,1,.158.423.576.576,0,0,1-.158.423.56.56,0,0,1-.417.16h-.288a4.525,4.525,0,0,1-1.352,3.3A4.4,4.4,0,0,1,51.208-828.333Zm0-2.333a2.2,2.2,0,0,0,1.626-.685A2.262,2.262,0,0,0,53.51-833h-4.6a2.262,2.262,0,0,0,.676,1.648A2.2,2.2,0,0,0,51.208-830.667ZM51.208-821.333Z" transform="translate(-34 850)" fill="#b5b5b5"/>
  </g>
</svg>
