<?xml version="1.0" encoding="UTF-8"?>
<svg version="1.1" xmlns="http://www.w3.org/2000/svg" width="3055" height="1034">
<path d="M0 0 C1.16943146 -0.00101212 1.16943146 -0.00101212 2.36248779 -0.00204468 C39.84743715 0.04944432 71.60363317 10.60794498 99.125 36.8125 C128.27999682 66.70911836 140.02088604 107.90636217 144.9375 148.375 C145.06543945 149.36733643 145.19337891 150.35967285 145.32519531 151.38208008 C146.6979569 163.75916926 146.1875 175.59657085 146.1875 188.25 C65.0075 188.25 -16.1725 188.25 -99.8125 188.25 C-95.34271561 220.65593682 -90.55248663 253.31063643 -67.8125 278.25 C-67.13832031 279.01699219 -66.46414063 279.78398438 -65.76953125 280.57421875 C-47.58581496 300.12256666 -19.90125672 309.39367731 6.27099609 310.45678711 C10.61840232 310.57700498 14.96376626 310.58400156 19.3125 310.5625 C20.07963318 310.56067719 20.84676636 310.55885437 21.637146 310.55697632 C39.93587143 310.48392229 56.84769514 308.22188851 74.1875 302.25 C75.07920898 301.94320313 75.97091797 301.63640625 76.88964844 301.3203125 C89.63265907 296.86694746 101.88952352 291.74348832 113.96533203 285.70458984 C114.87009277 285.25422363 115.77485352 284.80385742 116.70703125 284.33984375 C117.89969604 283.73450806 117.89969604 283.73450806 119.11645508 283.11694336 C121.1875 282.25 121.1875 282.25 124.1875 282.25 C125.95054513 286.01641769 127.71021125 289.78439157 129.46704102 293.55371094 C130.06251591 294.83016316 130.65884085 296.10621925 131.25610352 297.38183594 C142.1875 320.73402019 142.1875 320.73402019 142.1875 324.25 C83.25731863 356.35896733 18.98588918 368.21243424 -46.71875 349.94140625 C-84.14693995 338.66814947 -116.22509995 314.07233705 -135.07177734 279.74560547 C-162.19500715 228.79102503 -164.93343992 164.11198516 -148.8125 109.25 C-145.01762046 97.01832998 -139.95053328 85.47727096 -133.8125 74.25 C-133.29864746 73.29915527 -133.29864746 73.29915527 -132.77441406 72.32910156 C-127.25584862 62.24344748 -120.61645489 53.66864119 -112.8125 45.25 C-111.92691406 44.28191406 -111.04132813 43.31382812 -110.12890625 42.31640625 C-87.86379517 18.99262719 -57.41740559 5.68120326 -25.8125 1.25 C-24.50796875 1.064375 -23.2034375 0.87875 -21.859375 0.6875 C-14.60552292 -0.07957758 -7.28671914 0.00566112 0 0 Z M-70.22802734 75.77441406 C-86.95956316 94.98806745 -98.8125 124.76227956 -98.8125 150.25 C-36.4425 150.25 25.9275 150.25 90.1875 150.25 C89.54689494 141.92213424 88.88821887 134.44296023 87 126.4375 C86.67008057 125.02210938 86.67008057 125.02210938 86.33349609 123.578125 C84.29465055 115.15413528 81.6206561 107.20135906 78.1875 99.25 C77.67574219 98.06148437 77.16398437 96.87296875 76.63671875 95.6484375 C68.10830418 77.28893882 53.59772586 61.14912452 34.40625 53.70703125 C22.70430352 49.53112909 11.42061924 47.87653665 -1 47.9375 C-2.18674316 47.94241455 -3.37348633 47.9473291 -4.59619141 47.95239258 C-29.73508222 48.28673194 -52.90262159 57.11628479 -70.22802734 75.77441406 Z " fill="#000000" transform="translate(2077.8125,321.75)"/>
<path d="M0 0 C0.68425049 -0.00100708 1.36850098 -0.00201416 2.07348633 -0.00305176 C13.65485619 0.00843367 24.84809311 0.78879447 36.1875 3.25 C36.86119629 3.39453613 37.53489258 3.53907227 38.22900391 3.68798828 C68.63583886 10.46591274 97.93948188 27.88527357 115.1875 54.25 C120.58634288 62.80562687 124.64368247 71.64566208 127.625 81.3125 C127.85993164 82.0660376 128.09486328 82.8195752 128.33691406 83.59594727 C132.77426157 99.17432394 132.46815635 115.24175367 132.41455078 131.28125 C132.41398559 133.66781611 132.41430533 136.05438257 132.41543579 138.44094849 C132.41600609 144.87371115 132.40430436 151.30639817 132.39028788 157.73914337 C132.3780321 163.7946385 132.37703652 169.85014016 132.37498413 175.90564561 C132.37062379 187.88730651 132.35736013 199.86893993 132.33837891 211.85058594 C132.31997686 223.47883976 132.30584161 235.10708608 132.29736328 246.73535156 C132.29683783 247.45400092 132.29631239 248.17265027 132.29577102 248.91307688 C132.29316065 252.51889192 132.2906333 256.12470702 132.28814721 259.73052216 C132.26746651 289.57036791 132.23173017 319.41017927 132.1875 349.25 C117.9975 349.25 103.8075 349.25 89.1875 349.25 C87.83754148 345.20012444 86.76047974 341.6108508 85.93359375 337.484375 C85.61165039 335.90269531 85.61165039 335.90269531 85.28320312 334.2890625 C85.06599609 333.20367188 84.84878906 332.11828125 84.625 331 C84.18874187 328.82761257 83.75006286 326.65570945 83.30859375 324.484375 C83.1170874 323.52756836 82.92558105 322.57076172 82.72827148 321.58496094 C82.28205849 319.2442203 82.28205849 319.2442203 81.1875 317.25 C80.34832031 318.06791016 80.34832031 318.06791016 79.4921875 318.90234375 C51.03149816 345.67003389 11.44195792 359.1915751 -27.17382812 358.34326172 C-57.26412845 357.27974444 -87.93003945 349.37882759 -109.1796875 326.7265625 C-130.93296816 301.05919674 -138.18293586 270.85954132 -135.61035156 237.63964844 C-133.42806721 217.42263678 -125.27666603 199.45686837 -111.8125 184.25 C-111.27109375 183.62480469 -110.7296875 182.99960937 -110.171875 182.35546875 C-88.11967774 158.57696312 -52.31395505 149.38999944 -21.07397842 148.14046478 C-14.149905 147.97990529 -7.22609204 148.01939352 -0.30078125 148.0546875 C1.89166635 148.05842891 4.08411566 148.06127053 6.27656555 148.06326294 C11.9793479 148.07081072 17.6820244 148.09038045 23.38476562 148.1126709 C29.23110524 148.13332284 35.07746236 148.14230555 40.92382812 148.15234375 C52.34509797 148.17363688 63.7662901 148.20766242 75.1875 148.25 C75.05201945 144.31225118 74.90759377 140.37487637 74.76171875 136.4375 C74.70510071 134.78717773 74.70510071 134.78717773 74.64733887 133.10351562 C73.80345587 110.77560659 70.1455945 90.80425271 57.1875 72.25 C56.76855469 71.62738281 56.34960938 71.00476563 55.91796875 70.36328125 C47.30406124 58.76646584 30.95452444 52.99536905 17.21728516 50.95776367 C-21.18096862 46.14190048 -57.84983339 56.72081305 -92.8527832 71.56616211 C-94.8125 72.25 -94.8125 72.25 -97.8125 72.25 C-103.0925 58.72 -108.3725 45.19 -113.8125 31.25 C-110.17902767 27.61652767 -107.06930628 25.56431503 -102.5625 23.375 C-101.8514209 23.02767822 -101.1403418 22.68035645 -100.40771484 22.32250977 C-69.75444256 7.62504033 -33.91277039 0.0347174 0 0 Z M-66.125 206.4375 C-79.3445051 222.47977469 -84.27951235 240.79378311 -82.8125 261.25 C-80.70805415 277.10204574 -72.53363318 290.95701326 -60.47265625 301.24609375 C-44.3863403 313.36949232 -24.41641583 314.7654633 -5.06689453 312.30029297 C24.7044658 307.94333796 55.2672709 287.99353553 74.13207054 264.96866989 C75.96252236 261.9879473 75.84209841 258.87958535 75.75512695 255.50048828 C75.75585709 254.74858719 75.75658722 253.9966861 75.75733948 253.22200012 C75.7538754 250.75401896 75.71507431 248.28796099 75.67578125 245.8203125 C75.66644883 244.10253938 75.65933474 242.38475289 75.65434265 240.66696167 C75.63530643 236.15884269 75.58623546 231.65153683 75.53082275 227.14373779 C75.47955693 222.53864541 75.45681301 217.93342086 75.43164062 213.328125 C75.37811287 204.30172725 75.29284155 195.2759314 75.1875 186.25 C63.04284483 186.20346552 50.89821121 186.16802416 38.75348473 186.14637566 C33.11296798 186.13598053 27.47251266 186.12190014 21.83203125 186.09912109 C16.37903879 186.07723941 10.92610506 186.06539933 5.47307205 186.06024551 C3.40248313 186.05657708 1.33189708 186.04941435 -0.73866653 186.03853989 C-25.17579399 185.9154124 -48.28675529 187.80104589 -66.125 206.4375 Z " fill="#000000" transform="translate(2734.8125,321.75)"/>
<path d="M0 0 C0.68425049 -0.00100708 1.36850098 -0.00201416 2.07348633 -0.00305176 C13.65485619 0.00843367 24.84809311 0.78879447 36.1875 3.25 C36.86119629 3.39453613 37.53489258 3.53907227 38.22900391 3.68798828 C68.57771659 10.45295682 98.02912764 27.86601629 115.1875 54.25 C127.24745574 73.74516389 132.38064293 94.80666683 132.30775452 117.63980103 C132.30903615 119.1349469 132.30903615 119.1349469 132.31034368 120.66029775 C132.3119803 123.97358314 132.30650708 127.28681699 132.30102539 130.60009766 C132.3007431 132.9857788 132.30090207 135.37146002 132.3014679 137.75714111 C132.30172456 143.54571498 132.29740311 149.3342722 132.29103024 155.12284227 C132.28385925 161.86295893 132.28238312 168.60307328 132.28124207 175.34319322 C132.27905762 187.36144872 132.27241403 199.37969741 132.26293945 211.39794922 C132.2537496 223.06721971 132.24667647 234.73648834 132.24243164 246.40576172 C132.24203756 247.48610026 132.24203756 247.48610026 132.24163551 248.58826382 C132.2403304 252.20170271 132.23906671 255.81514161 132.23782361 259.42858052 C132.22746991 289.3690586 132.20959145 319.30952814 132.1875 349.25 C117.9975 349.25 103.8075 349.25 89.1875 349.25 C87.83754148 345.20012444 86.76047974 341.6108508 85.93359375 337.484375 C85.61165039 335.90269531 85.61165039 335.90269531 85.28320312 334.2890625 C85.06599609 333.20367188 84.84878906 332.11828125 84.625 331 C84.18874187 328.82761257 83.75006286 326.65570945 83.30859375 324.484375 C83.1170874 323.52756836 82.92558105 322.57076172 82.72827148 321.58496094 C82.28205849 319.2442203 82.28205849 319.2442203 81.1875 317.25 C80.34832031 318.06791016 80.34832031 318.06791016 79.4921875 318.90234375 C51.03149816 345.67003389 11.44195792 359.1915751 -27.17382812 358.34326172 C-56.43565484 357.30902617 -84.35999386 350.07372579 -105.8125 329.25 C-106.49828125 328.63769531 -107.1840625 328.02539062 -107.890625 327.39453125 C-125.47695928 311.15832894 -134.86194976 285.08161524 -135.93359375 261.59619141 C-136.91154772 232.35047792 -131.70842875 206.72111101 -111.8125 184.25 C-111.27109375 183.62480469 -110.7296875 182.99960937 -110.171875 182.35546875 C-88.11967774 158.57696312 -52.31395505 149.38999944 -21.07397842 148.14046478 C-14.149905 147.97990529 -7.22609204 148.01939352 -0.30078125 148.0546875 C1.89166635 148.05842891 4.08411566 148.06127053 6.27656555 148.06326294 C11.9793479 148.07081072 17.6820244 148.09038045 23.38476562 148.1126709 C29.23110524 148.13332284 35.07746236 148.14230555 40.92382812 148.15234375 C52.34509797 148.17363688 63.7662901 148.20766242 75.1875 148.25 C75.04195366 144.08708202 74.89061672 139.92439339 74.73828125 135.76171875 C74.67695007 134.004505 74.67695007 134.004505 74.61437988 132.21179199 C73.72142872 108.11903856 69.25997042 82.76504032 51.1875 65.25 C29.51928772 48.11775385 0.37207528 48.17473724 -25.82470703 51.20654297 C-48.95420286 54.27786054 -71.44494072 62.48673035 -92.8527832 71.56616211 C-94.8125 72.25 -94.8125 72.25 -97.8125 72.25 C-103.0925 58.72 -108.3725 45.19 -113.8125 31.25 C-110.17902767 27.61652767 -107.06930628 25.56431503 -102.5625 23.375 C-101.8514209 23.02767822 -101.1403418 22.68035645 -100.40771484 22.32250977 C-69.75444256 7.62504033 -33.91277039 0.0347174 0 0 Z M-65.8125 206.25 C-78.73572022 222.60528854 -84.76737728 240.37799654 -82.8125 261.25 C-80.54891336 277.15169614 -72.51027139 292.03578212 -59.6171875 301.7265625 C-49.51259202 308.87035658 -38.23218073 312.73807768 -25.8125 313.25 C-25.01070312 313.28996094 -24.20890625 313.32992187 -23.3828125 313.37109375 C12.89117177 314.2860162 42.2098321 295.87399865 67.7734375 271.81640625 C73.25194676 266.78717457 73.25194676 266.78717457 75.42800903 259.96601868 C75.43380687 258.59103884 75.42849064 257.21598585 75.41455078 255.84106445 C75.41484283 255.08960144 75.41513489 254.33813843 75.41543579 253.56390381 C75.41404253 251.08024547 75.39848166 248.59688718 75.3828125 246.11328125 C75.37908235 244.39121159 75.37623539 242.6691398 75.37423706 240.94706726 C75.36660073 236.41456238 75.34695225 231.88218568 75.3248291 227.34973145 C75.30437067 222.72470839 75.29523535 218.09966463 75.28515625 213.47460938 C75.26370635 204.39968327 75.2295704 195.32485229 75.1875 186.25 C63.04284483 186.20346552 50.89821121 186.16802416 38.75348473 186.14637566 C33.11296798 186.13598053 27.47251266 186.12190014 21.83203125 186.09912109 C16.37903879 186.07723941 10.92610506 186.06539933 5.47307205 186.06024551 C3.40248313 186.05657708 1.33189708 186.04941435 -0.73866653 186.03853989 C-24.40916807 185.91927508 -48.71316851 187.62937568 -65.8125 206.25 Z " fill="#000000" transform="translate(1089.8125,321.75)"/>
<path d="M0 0 C17.74984044 15.36216073 30.56407936 34.99394726 36 58 C36.16830259 58.69767864 36.33660519 59.39535728 36.51000786 60.1141777 C38.79811687 71.35308709 38.26385618 82.80638902 38.22705078 94.21972656 C38.22648603 96.67466731 38.22680447 99.1296084 38.22793579 101.58454895 C38.22838961 106.85056725 38.22275735 112.1165408 38.21146011 117.38254547 C38.19513737 124.99609965 38.18999021 132.60962992 38.18748413 140.2231997 C38.1831176 152.57866371 38.16983692 164.93410117 38.15087891 177.28955078 C38.13249303 189.28466663 38.11834981 201.27977523 38.10986328 213.27490234 C38.10933783 214.01551156 38.10881239 214.75612078 38.10827102 215.5191727 C38.10566076 219.23495878 38.10313338 222.95074492 38.10064721 226.66653109 C38.0799472 257.44437397 38.04419595 288.22218147 38 319 C23.81 319 9.62 319 -5 319 C-7.31 308.44 -9.62 297.88 -12 287 C-17.94 291.95 -17.94 291.95 -24 297 C-58.36020214 321.98923792 -98.50345702 332.56388883 -140.55810547 326.39794922 C-169.16481666 321.73598769 -193.33077024 310.30490097 -210.69921875 286.45703125 C-224.05715299 266.88557309 -229.44066999 245.95400267 -229.375 222.375 C-229.37478851 221.67200775 -229.37457703 220.9690155 -229.37435913 220.24472046 C-229.3408376 209.06107921 -228.45356474 198.68799285 -225 188 C-224.62617187 186.83082031 -224.25234375 185.66164063 -223.8671875 184.45703125 C-219.14320455 171.11412577 -211.87604769 160.8897835 -202 151 C-200.81083984 149.7934375 -200.81083984 149.7934375 -199.59765625 148.5625 C-171.6055497 121.73479056 -130.87190251 117.4215241 -94 117.70703125 C-91.81470028 117.71264904 -89.6293967 117.71690875 -87.4440918 117.71989441 C-81.78241946 117.73117178 -76.12099008 117.76048444 -70.45941162 117.79400635 C-64.64615157 117.82508343 -58.832851 117.83847889 -53.01953125 117.85351562 C-41.67958264 117.8853764 -30.33981177 117.93635643 -19 118 C-19.11466656 113.60731866 -19.23559047 109.21486475 -19.36201477 104.82250977 C-19.40406982 103.33199606 -19.4444914 101.84143524 -19.48316956 100.35083008 C-20.10242369 76.61126267 -24.73617231 54.1535101 -41.53515625 36.3203125 C-58.4854628 20.36392249 -82.020043 19.33787773 -104.03320312 19.890625 C-132.45030362 20.93826004 -159.46983862 29.72093951 -185.34765625 41.13671875 C-188.2486996 42.08094641 -189.22059844 42.11258246 -192 41 C-193.06393433 39.42607117 -193.06393433 39.42607117 -193.86279297 37.36987305 C-194.16925751 36.60205002 -194.47572205 35.83422699 -194.79147339 35.0431366 C-195.10520905 34.20776871 -195.4189447 33.37240082 -195.7421875 32.51171875 C-196.07421173 31.65697464 -196.40623596 30.80223053 -196.74832153 29.92158508 C-197.44672713 28.11125431 -198.13718877 26.29784194 -198.8203125 24.48168945 C-199.87016445 21.70031086 -200.95255888 18.93325072 -202.0390625 16.16601562 C-202.71293567 14.4070142 -203.38487616 12.64727089 -204.0546875 10.88671875 C-204.54350906 9.64277596 -204.54350906 9.64277596 -205.04220581 8.373703 C-205.47353317 7.20778374 -205.47353317 7.20778374 -205.91357422 6.01831055 C-206.17242401 5.33737839 -206.4312738 4.65644623 -206.69796753 3.95487976 C-207.10457889 1.32312193 -206.4622768 0.18960506 -205 -2 C-184.91329404 -15.84103718 -158.54500001 -21.35121555 -135 -26 C-133.96085449 -26.21027832 -132.92170898 -26.42055664 -131.85107422 -26.63720703 C-86.51471709 -35.55201616 -36.60861387 -30.26488294 0 0 Z M-159.87109375 176.4296875 C-171.64194469 190.6411002 -177.69906986 207.56143683 -176.875 226 C-175.04012635 244.83381802 -167.1728145 259.76305793 -152.625 271.8125 C-145.25405938 277.25723662 -137.03313494 280.60278848 -128 282 C-127.28328125 282.11085938 -126.5665625 282.22171875 -125.828125 282.3359375 C-96.49394292 286.18474862 -68.99697282 275.61555643 -45.6875 258.5 C-41.17193751 255.01070171 -36.80469699 251.40445379 -32.6723175 247.46626282 C-30 245 -30 245 -27.14933777 242.77970886 C-21.8865505 238.34629582 -18.49438512 234.89273752 -17.8332262 227.84506702 C-17.68755608 223.84117919 -17.78518789 219.86586676 -17.92578125 215.86328125 C-17.94633764 214.1302742 -17.96197681 212.39720253 -17.97294617 210.66410828 C-18.01463864 206.13651165 -18.122397 201.61289385 -18.24468994 197.08685303 C-18.35790218 192.45493387 -18.40759989 187.82236161 -18.46289062 183.18945312 C-18.58031431 174.12456854 -18.76765468 165.06261704 -19 156 C-31.14465517 155.95346552 -43.28928879 155.91802416 -55.43401527 155.89637566 C-61.07453202 155.88598053 -66.71498734 155.87190014 -72.35546875 155.84912109 C-77.80846121 155.82723941 -83.26139494 155.81539933 -88.71442795 155.81024551 C-90.78501687 155.80657708 -92.85560292 155.79941435 -94.92616653 155.78853989 C-119.24851096 155.66599074 -142.11345836 157.68728163 -159.87109375 176.4296875 Z " fill="#000000" transform="translate(1525,352)"/>
<path d="M0 0 C0.99687195 2.13946533 0.99687195 2.13946533 2.06518555 5.02050781 C2.67575554 6.6507766 2.67575554 6.6507766 3.29866028 8.3139801 C3.74021957 9.51489792 4.18177887 10.71581573 4.63671875 11.953125 C5.10768321 13.21813227 5.57931204 14.48289238 6.05155945 15.74742126 C7.06851609 18.47444541 8.08106828 21.2030498 9.090271 23.93295288 C10.70419691 28.29823873 12.32795326 32.65982455 13.95361328 37.02075195 C15.63848253 41.5415698 17.32294687 46.06253384 19.00427246 50.58467102 C23.95640473 63.90253024 28.95908673 77.20082119 33.97964478 90.49304199 C35.39046935 94.22845794 36.80031249 97.96424334 38.2097168 101.70019531 C38.44578424 102.32594137 38.68185167 102.95168743 38.92507267 103.59639549 C39.40453944 104.86733114 39.88400268 106.13826811 40.36346245 107.40920639 C41.0871257 109.32736824 41.81089045 111.24549176 42.53468323 113.16360474 C47.81194721 127.14921583 53.08194333 141.13756447 58.35202026 155.12588501 C61.07162725 162.34445022 63.79169388 169.56284224 66.51171875 176.78125 C67.59163511 179.64713504 68.67155056 182.51302043 69.75146484 185.37890625 C70.01859504 186.08781604 70.28572523 186.79672583 70.56095028 187.52711773 C72.20068571 191.87867262 73.84033085 196.23026153 75.47992134 200.58187103 C78.1649005 207.70801292 80.85017916 214.83404181 83.53601265 221.95986176 C84.78473214 225.2728795 86.03331018 228.58595037 87.28149414 231.89916992 C88.65202183 235.53712936 90.02324821 239.17482521 91.39453125 242.8125 C91.78921097 243.86046753 92.18389069 244.90843506 92.5905304 245.98815918 C93.723769 248.99334792 94.8613068 251.9968742 96 255 C96.67426529 256.78736572 96.67426529 256.78736572 97.3621521 258.61083984 C97.8120047 259.79500488 98.2618573 260.97916992 98.7253418 262.19921875 C99.13624557 263.28420654 99.54714935 264.36919434 99.97050476 265.48706055 C100.76931247 267.89806686 100.76931247 267.89806686 102 269 C102.20250366 268.44402634 102.40500732 267.88805267 102.61364746 267.31523132 C112.87532776 239.14616154 123.19812191 211.00196862 133.67816162 182.91342163 C138.30401482 170.51076206 142.90503462 158.09887174 147.50810623 145.68774414 C148.24986026 143.68787675 148.99171808 141.6880479 149.73361206 139.68823242 C154.92324048 125.69923867 160.10942157 111.70898535 165.28515625 97.71484375 C176.11131669 68.44649453 187.02324891 39.21232145 198 10 C216.81 10 235.62 10 255 10 C246.98154617 34.0553615 246.98154617 34.0553615 243.53125 43.26953125 C242.7165322 45.46613822 241.90183591 47.66275316 241.0871582 49.859375 C240.45639877 51.55416992 240.45639877 51.55416992 239.81289673 53.28320312 C237.49476359 59.51475194 235.1893447 65.75098934 232.88671875 71.98828125 C232.64675863 72.63811604 232.40679852 73.28795082 232.15956688 73.95747757 C226.69640199 88.76025831 221.36160189 103.60853061 216.04186249 118.46333694 C208.70616537 138.94744952 201.31659157 159.40912074 193.78765869 179.82324219 C187.68969622 196.35906906 181.67396953 212.92350204 175.6875 229.5 C168.20164846 250.2267906 160.62492199 270.91821806 152.98617554 291.58911133 C147.28653126 307.01773338 141.64613796 322.46555108 136.09451294 337.94805908 C129.75611233 355.62206134 123.39942644 373.28985465 116.95510483 390.92555618 C115.81438842 394.04747145 114.67767361 397.17067751 113.54736328 400.29638672 C105.47116659 422.6164456 97.12460909 443.28228154 80.37890625 460.56982422 C79.08988429 461.90677369 77.8251914 463.2670612 76.5625 464.62890625 C59.51511568 482.54548286 36.0903047 493.94905099 12.8125 501.4375 C12.01030029 501.69684326 11.20810059 501.95618652 10.3815918 502.22338867 C9.24330933 502.57494019 9.24330933 502.57494019 8.08203125 502.93359375 C7.41405518 503.14040771 6.7460791 503.34722168 6.05786133 503.56030273 C3.66310758 504.07198283 1.44171456 504.07249462 -1 504 C-5.43431822 495.46613991 -9.28410038 486.79370176 -12.875 477.875 C-13.37257813 476.658125 -13.87015625 475.44125 -14.3828125 474.1875 C-18 465.26377919 -18 465.26377919 -18 463 C-17.20005615 462.62302979 -16.4001123 462.24605957 -15.57592773 461.85766602 C13.25384507 448.55926333 13.25384507 448.55926333 38 429 C38.99773438 428.05253906 38.99773438 428.05253906 40.015625 427.0859375 C51.87047367 414.96408773 56.86181261 395.61545763 62.63061523 380.1418457 C63.83313391 376.91756543 65.05527082 373.70110421 66.28244877 370.48614216 C67.46168889 367.38704314 68.62241006 364.28110628 69.78515625 361.17578125 C70.44427757 359.45238274 70.44427757 359.45238274 71.11671448 357.69416809 C71.51140427 356.6250267 71.90609406 355.55588531 72.31274414 354.4543457 C72.66389786 353.51887405 73.01505157 352.5834024 73.37684631 351.61958313 C74.38528592 347.38035379 73.11076349 343.98685633 71.58325195 340.02246094 C71.29305679 339.26349518 71.00286163 338.50452942 70.70387268 337.7225647 C70.22590492 336.4909108 70.22590492 336.4909108 69.73828125 335.234375 C69.40050156 334.35453949 69.06272186 333.47470398 68.71470642 332.56820679 C67.58449533 329.62730411 66.44851229 326.68866617 65.3125 323.75 C64.50390469 321.64970272 63.69564406 319.54927656 62.88769531 317.44873047 C60.71167545 311.79475919 58.53048811 306.14279526 56.34796143 300.49133301 C54.56982248 295.8858042 52.79406026 291.27936064 51.01826477 286.67292786 C45.48857291 272.3295132 39.94983779 257.98959696 34.41003418 243.65008545 C30.23014705 232.82981923 26.0523356 222.00875149 21.875 211.1875 C21.41838989 210.00472473 20.96177979 208.82194946 20.49133301 207.60333252 C13.57026652 189.67420364 6.66528665 171.7389377 -0.2300415 153.79989624 C-6.34395225 137.89448545 -12.4722576 121.99468615 -18.61053467 106.09866333 C-19.98764905 102.53198849 -21.36428062 98.96512772 -22.74072266 95.39819336 C-23.19216644 94.22833389 -23.64361023 93.05847443 -24.10873413 91.85316467 C-25.0202253 89.49113946 -25.93170399 87.12910944 -26.84317017 84.76707458 C-29.44300138 78.03074365 -32.04546337 71.29543841 -34.6505928 64.56115532 C-36.77880581 59.0592 -38.90361722 53.55593483 -41.02734375 48.05224609 C-41.9209956 45.7381411 -42.81583964 43.42449612 -43.71191406 41.11132812 C-44.94381238 37.93085818 -46.17161818 34.7488381 -47.3984375 31.56640625 C-47.76601166 30.62040054 -48.13358582 29.67439484 -48.51229858 28.69972229 C-48.84259064 27.84047653 -49.17288269 26.98123077 -49.51318359 26.09594727 C-49.80212494 25.34853775 -50.09106628 24.60112823 -50.38876343 23.83106995 C-51 22 -51 22 -51 20 C-44.06297166 16.98004556 -37.12078291 13.97221211 -30.17480469 10.97290039 C-27.81063062 9.95032194 -25.4476691 8.92493548 -23.0859375 7.89672852 C-19.69843494 6.42251127 -16.30675385 4.95832278 -12.9140625 3.49609375 C-11.85256989 3.0315831 -10.79107727 2.56707245 -9.69741821 2.08848572 C-8.71655243 1.6679744 -7.73568665 1.24746307 -6.72509766 0.81420898 C-5.85905914 0.43892563 -4.99302063 0.06364227 -4.10073853 -0.32301331 C-2 -1 -2 -1 0 0 Z " fill="#000000" transform="translate(2304,321)"/>
<path d="M0 0 C1.00853027 0.21962402 2.01706055 0.43924805 3.05615234 0.66552734 C25.7962447 5.75852948 49.01937996 11.97084606 68 26 C66.5085545 30.7869539 64.61378989 35.26023291 62.5234375 39.8046875 C62.19332672 40.5286673 61.86321594 41.25264709 61.52310181 41.99856567 C60.47657751 44.29202176 59.42586008 46.58352783 58.375 48.875 C57.66117964 50.4373727 56.9476351 51.99987145 56.234375 53.5625 C54.49277094 57.37646568 52.74740578 61.18868917 51 65 C47.28200159 64.47473893 44.12548125 63.8099294 40.7421875 62.1796875 C39.96214355 61.81254639 39.18209961 61.44540527 38.37841797 61.06713867 C37.55229004 60.67373291 36.72616211 60.28032715 35.875 59.875 C4.58167521 45.44013886 -37.05672314 34.57480492 -71.06298828 46.25927734 C-86.25941669 52.07046512 -100.47548495 60.38132655 -107.375 75.8125 C-110.65041704 84.95814499 -111.12429551 94.09494671 -107 103 C-92.57404668 129.21447472 -53.97070486 139.69732048 -27.5625 148.625 C10.99978248 161.66317606 55.35095403 183.3750801 75 221 C84.9419455 243.73526116 84.18887511 268.96705305 75.75488281 292.08349609 C66.37088463 315.90768293 46.69331351 331.66096141 24 342 C15.09356988 345.68784931 5.84396876 348.20524195 -3.5625 350.25 C-4.25649902 350.40122314 -4.95049805 350.55244629 -5.66552734 350.70825195 C-20.38214761 353.66661001 -35.15275472 354.44281539 -50.125 354.4375 C-51.49096313 354.43860275 -51.49096313 354.43860275 -52.88452148 354.43972778 C-84.92441932 354.37235547 -138.82754335 350.17245665 -163 326 C-162.65228019 321.0731338 -160.87193501 316.73900417 -158.98046875 312.23046875 C-158.68062576 311.50886063 -158.38078278 310.7872525 -158.07185364 310.04377747 C-157.43902548 308.52877236 -156.8026244 307.01525523 -156.1628418 305.50317383 C-155.18581546 303.18350053 -154.23237042 300.85498973 -153.27929688 298.52539062 C-152.66027607 297.05148535 -152.03988098 295.57815633 -151.41796875 294.10546875 C-151.13551804 293.40761765 -150.85306732 292.70976654 -150.5620575 291.99076843 C-148.53425851 287.29244198 -148.53425851 287.29244198 -146.08569336 285.95214844 C-143.46268285 286.01232754 -141.63686176 286.65206883 -139.2109375 287.66015625 C-138.27894531 288.03881836 -137.34695313 288.41748047 -136.38671875 288.80761719 C-135.39285156 289.22172852 -134.39898438 289.63583984 -133.375 290.0625 C-131.27986929 290.90539123 -129.18350005 291.74521009 -127.0859375 292.58203125 C-126.04920898 292.99662598 -125.01248047 293.4112207 -123.94433594 293.83837891 C-86.58498174 308.57766641 -40.6771353 315.34285462 -2.60546875 299.2109375 C9.82021526 293.55755252 20.46091546 285.45887922 26.02734375 272.6328125 C29.75415553 261.88173335 28.79491262 251.2443237 24 241 C8.3667525 215.12428001 -27.91884278 203.6263563 -54.85842896 194.01467896 C-92.81155102 180.4629671 -139.81421198 163.22481488 -159.4375 125 C-159.7557373 124.38415039 -160.07397461 123.76830078 -160.40185547 123.13378906 C-165.13559385 113.29923727 -166.53944875 103.19461735 -166.4375 92.375 C-166.43065186 91.24562012 -166.42380371 90.11624023 -166.41674805 88.95263672 C-165.97327559 65.56984559 -157.8587333 44.60943595 -141 28 C-103.99867135 -5.43493553 -46.82435818 -10.19730467 0 0 Z " fill="#000000" transform="translate(1793,326)"/>
<path d="M0 0 C6.71749421 5.09291787 10.64284919 11.71845297 12 20 C12.09206933 22.39124138 12.12908754 24.78482438 12.13142776 27.17783642 C12.1334804 27.89310337 12.13553303 28.60837032 12.13764787 29.34531203 C12.14331431 31.74846974 12.14186106 34.15157007 12.14044189 36.55473328 C12.14302573 38.29258805 12.14603895 40.03044223 12.1494453 41.76829559 C12.15751633 46.54915983 12.15930493 51.33000905 12.16004276 56.1108793 C12.16189313 61.26509083 12.16944038 66.41929456 12.17617798 71.57350159 C12.18976249 82.84624364 12.19578618 94.11898214 12.20018864 105.39173102 C12.20295082 112.42975741 12.20718812 119.46778242 12.21169281 126.50580788 C12.22388555 145.99001701 12.23418491 165.47422505 12.2375679 184.95843792 C12.23789725 186.829149 12.23789725 186.829149 12.23823325 188.73765223 C12.23856067 190.61285167 12.23856067 190.61285167 12.2388947 192.52593392 C12.23933817 195.05920009 12.23978473 197.59246626 12.24023438 200.12573242 C12.2404558 201.38232124 12.24067723 202.63891007 12.24090537 203.93357734 C12.24485362 224.29607868 12.26230845 244.65854424 12.2855939 265.02103176 C12.30930481 285.92420915 12.32176963 306.82736859 12.32293582 327.73055965 C12.32385272 339.46800835 12.32960877 351.20541043 12.34775543 362.9428463 C12.36315288 372.93731604 12.36827896 382.93172476 12.36001733 392.92620411 C12.35610961 398.02511963 12.35704647 403.12391224 12.37107468 408.22281265 C12.38380601 412.89305895 12.38262275 417.56308986 12.37048396 422.23333583 C12.36852565 423.92043459 12.37161161 425.60754858 12.38032833 427.29462596 C12.43987479 439.60137397 12.0955016 449.79164409 3.1953125 459.0859375 C-3.3283774 464.77385218 -10.41252842 466.37530086 -18.8671875 466.2734375 C-26.97703509 465.56559544 -33.73631922 461.08538661 -39 455 C-43.03939375 448.19373828 -44.12371424 441.70332764 -44.13142776 433.85339832 C-44.1334804 433.14150812 -44.13553303 432.42961791 -44.13764787 431.69615528 C-44.14331404 429.3044843 -44.14186109 426.91287097 -44.14044189 424.52119446 C-44.14302575 422.79158928 -44.14603897 421.0619847 -44.1494453 419.33238095 C-44.15751615 414.57431984 -44.15930492 409.81627382 -44.16004276 405.05820668 C-44.16189316 399.92853524 -44.16944043 394.79887163 -44.17617798 389.66920471 C-44.18976236 378.45017996 -44.19578616 367.23115877 -44.20018864 356.01212716 C-44.20295084 349.00760271 -44.20718815 342.00307965 -44.21169281 334.99855614 C-44.22388553 315.60699328 -44.23418489 296.21543154 -44.2375679 276.82386494 C-44.23789725 274.96205669 -44.23789725 274.96205669 -44.23823325 273.06263615 C-44.23856067 271.19636156 -44.23856067 271.19636156 -44.2388947 269.29238445 C-44.23933817 266.77117622 -44.23978473 264.24996799 -44.24023438 261.72875977 C-44.2404558 260.47815217 -44.24067723 259.22754458 -44.24090537 257.93903979 C-44.24485361 237.67353626 -44.2623084 217.40806869 -44.2855939 197.14257906 C-44.30930501 176.33884275 -44.32176964 155.53512448 -44.32293582 134.73137444 C-44.32385271 123.049817 -44.32960848 111.3683064 -44.34775543 99.68676186 C-44.36315314 89.73986917 -44.3682788 79.79303781 -44.36001733 69.84613547 C-44.3561097 64.77152293 -44.35704602 59.69703389 -44.37107468 54.62243652 C-44.38380657 49.97439496 -44.38262226 45.3265698 -44.37048396 40.67852857 C-44.36852575 38.99950511 -44.37161117 37.32046636 -44.38032833 35.64146439 C-44.43819204 23.74028961 -44.2201916 12.49647444 -35.46875 3.41015625 C-25.53605755 -5.82273287 -11.72940099 -6.89127719 0 0 Z " fill="#96ED45" transform="translate(475,161)"/>
<path d="M0 0 C6.68733588 7.05885454 9.37093851 13.93343647 9.38422108 23.49225807 C9.38657331 24.21312467 9.38892554 24.93399128 9.39134905 25.67670232 C9.39803383 28.10492801 9.39758098 30.53310011 9.39717102 32.96133423 C9.40046997 34.71482531 9.4041956 36.46831563 9.4083125 38.22180498 C9.41833707 43.05053303 9.42205003 47.87924865 9.42470181 52.70798564 C9.42860349 57.9119779 9.4381819 63.11596031 9.44691467 68.31994629 C9.46668262 80.89240582 9.47674557 93.46486617 9.48564246 106.03733736 C9.4900247 111.956445 9.49539166 117.87555174 9.50063133 123.79465866 C9.51764371 143.46840797 9.53213831 163.14215671 9.53938007 182.81591225 C9.54129 187.92203395 9.54321033 193.02815565 9.54516602 198.13427734 C9.54564976 199.40339413 9.5461335 200.67251091 9.5466319 201.98008578 C9.55493381 222.54312432 9.58027344 243.10610473 9.61274669 263.66911788 C9.64580686 284.77566559 9.66382788 305.88218375 9.66702431 326.98875749 C9.66919034 338.84137411 9.67795263 350.69390594 9.70348549 362.54649734 C9.72517818 372.6398165 9.73324991 382.73303026 9.72351871 392.82637008 C9.71896993 397.97594672 9.72089396 403.12530585 9.74028015 408.27485275 C9.75788307 412.99145189 9.75693734 417.70767437 9.74138286 422.42427735 C9.73900244 424.1282321 9.74335284 425.83221273 9.75521151 427.53612788 C9.82266633 437.87065323 8.98654102 446.05162289 3.625 455.125 C-3.62268991 461.99123255 -10.9911931 464.77010568 -20.8046875 464.65234375 C-28.56485267 463.92161202 -35.67019529 460.3059422 -40.75 454.375 C-44.4389216 448.44798267 -45.87455034 443.34415791 -45.88422108 436.3467617 C-45.88657331 435.6233726 -45.88892554 434.8999835 -45.89134905 434.15467352 C-45.89804712 431.71185526 -45.89758058 429.2690901 -45.89717102 426.82626343 C-45.90046915 425.06467311 -45.9041946 423.30308355 -45.9083125 421.54149497 C-45.91834652 416.68577381 -45.92205155 411.83006501 -45.92470181 406.97433496 C-45.92860072 401.74307748 -45.93817936 396.51182983 -45.94691467 391.28057861 C-45.96669103 378.63948217 -45.97674689 365.99838491 -45.98564246 353.35727686 C-45.99002355 347.40715605 -45.99539083 341.45703614 -46.00063133 335.50691605 C-46.01764497 315.73198061 -46.03213962 295.95704574 -46.03938007 276.18210411 C-46.04129003 271.04864883 -46.04321035 265.91519355 -46.04516602 260.78173828 C-46.04564976 259.50581246 -46.0461335 258.22988663 -46.0466319 256.91529639 C-46.05493393 236.2415879 -46.08027318 215.56793724 -46.11274669 194.89425401 C-46.14580105 173.67813159 -46.16382738 152.46203857 -46.16702431 131.24589026 C-46.16919094 119.33013361 -46.17796192 107.41446129 -46.20348549 95.49872971 C-46.22517031 85.35155911 -46.23325382 75.2044933 -46.22351871 65.05730216 C-46.21896756 59.8795031 -46.22090763 54.70192037 -46.24028015 49.52415085 C-46.25786634 44.78289239 -46.256951 40.04200882 -46.24138286 35.30074663 C-46.23899988 33.58668567 -46.24336604 31.87259906 -46.25521151 30.15857737 C-46.32320901 19.66859207 -45.53934517 12.00488425 -39.5625 3.125 C-27.96749514 -8.21233809 -13.44832513 -7.94673758 0 0 Z " fill="#96ED45" transform="translate(367.75,162.625)"/>
<path d="M0 0 C7.94119025 4.65743613 12.46194602 10.49364672 14.99122548 19.23108196 C16.05462346 23.98186339 16.03781946 28.63580955 16.00595093 33.48596191 C16.01297089 35.14815883 16.01297089 35.14815883 16.02013266 36.84393549 C16.03204102 40.5347528 16.02264143 44.22519595 16.01318359 47.91601562 C16.01725114 50.57119318 16.02248607 53.22634547 16.02911377 55.8815155 C16.04241697 62.33120674 16.03958866 68.78079292 16.03087585 75.23048818 C16.02408622 80.47473787 16.0231881 85.71895823 16.0264473 90.96321106 C16.026907 91.71109183 16.02736669 92.4589726 16.02784032 93.22951642 C16.02879955 94.74907077 16.02977219 96.26862512 16.0307581 97.78817946 C16.03930199 112.01951331 16.0294936 126.25078909 16.013357 140.48211342 C15.99995472 152.67934818 16.0022831 164.87649726 16.01611328 177.07373047 C16.03218681 191.25596383 16.03847811 205.43814635 16.02927649 219.62038755 C16.0283209 221.13418801 16.02737778 222.64798847 16.0264473 224.16178894 C16.02598447 224.90650582 16.02552164 225.65122271 16.02504479 226.41850677 C16.02246022 231.6532693 16.02681439 236.88799944 16.03388596 242.12275696 C16.04232088 248.50675624 16.03997911 254.89064493 16.02404372 261.27463162 C16.01618765 264.52859033 16.0146528 267.78232804 16.02299118 271.03629112 C16.03121204 274.57072256 16.02087776 278.10463927 16.00595093 281.63903809 C16.01598918 283.16678415 16.01598918 283.16678415 16.02623022 284.72539377 C15.94619741 294.52323944 14.01455664 303.33521657 7.12890625 310.65234375 C1.47593684 315.9919846 -4.64652916 318.14992899 -12.375 318.4375 C-21.16635697 318.08421518 -27.04440467 315.30840988 -33.42578125 309.25 C-38.6272556 303.41267408 -40.49464664 296.96750137 -40.50642776 289.22726917 C-40.51218948 287.8003614 -40.51218948 287.8003614 -40.5180676 286.3446272 C-40.51720112 285.30767467 -40.51633463 284.27072214 -40.51544189 283.2023468 C-40.51841302 282.09440409 -40.52138414 280.98646139 -40.5244453 279.84494466 C-40.53313087 276.12489364 -40.53464043 272.40487481 -40.53613281 268.68481445 C-40.54076109 266.0205317 -40.54576524 263.35625187 -40.55117798 260.69197083 C-40.56474794 253.44802651 -40.57078399 246.20408774 -40.57518864 238.96013284 C-40.57795343 234.43475175 -40.58219122 229.90937279 -40.58669281 225.38399315 C-40.59888393 212.84825557 -40.60918342 200.31251969 -40.6125679 187.77677631 C-40.61278747 186.97477728 -40.61300703 186.17277824 -40.61323325 185.34647621 C-40.61345153 184.54258545 -40.61366981 183.73869469 -40.6138947 182.9104436 C-40.61433816 181.28152295 -40.61478473 179.65260229 -40.61523438 178.02368164 C-40.6154558 177.21568503 -40.61567723 176.40768843 -40.61590537 175.57520708 C-40.61985202 162.48753878 -40.63730268 149.39992622 -40.6605939 136.31227944 C-40.68432759 122.8671831 -40.69677068 109.4221147 -40.69793582 95.97699708 C-40.69885147 88.43138893 -40.70457593 80.88585338 -40.72275543 73.34026527 C-40.7381837 66.91407169 -40.74326086 60.48797316 -40.73501733 54.06176458 C-40.73112037 50.78555282 -40.73363789 47.50957158 -40.74607468 44.23337555 C-40.75879016 40.67461041 -40.75291894 37.11633337 -40.74249268 33.55757141 C-40.75054908 32.53177249 -40.75860548 31.50597356 -40.76690602 30.44908983 C-40.70164386 20.89909271 -39.05061974 12.85059693 -32.34765625 5.8203125 C-23.33334286 -2.21224398 -11.42007357 -5.16833812 0 0 Z " fill="#96ED45" transform="translate(584.375,421.9375)"/>
<path d="M0 0 C6.90973552 4.81009213 10.37269716 10.11809148 13 18 C13.09362673 19.55356518 13.13088691 21.11084173 13.13422108 22.66722202 C13.13867892 23.63192875 13.14313676 24.59663549 13.14772969 25.59057575 C13.14754533 26.65280871 13.14736097 27.71504167 13.14717102 28.8094635 C13.15084771 29.93611512 13.1545244 31.06276674 13.1583125 32.22355932 C13.16937234 36.01891714 13.1731971 39.8142476 13.17700195 43.60961914 C13.18273179 46.3228682 13.18989864 49.03611314 13.19691467 51.74935913 C13.21667987 59.90691925 13.22674622 68.06448061 13.23564246 76.22205868 C13.24002604 80.06459408 13.24539274 83.90712809 13.25063133 87.7496624 C13.2676451 100.52551137 13.28213827 113.30135949 13.28938007 126.07721806 C13.29128994 129.39286869 13.29321028 132.70851932 13.29516602 136.02416992 C13.29564976 136.8482506 13.2961335 137.67233129 13.2966319 138.52138411 C13.30492841 151.86462458 13.33025823 165.20777529 13.36274669 178.55097658 C13.395838 192.25365202 13.41383078 205.95628188 13.41702431 219.65899748 C13.4191877 227.35109645 13.42791095 235.0430646 13.45348549 242.73512459 C13.47522099 249.28764593 13.48322903 255.84000468 13.47351871 262.39255799 C13.46898182 265.73368481 13.47301701 269.07420512 13.49028015 272.41533089 C13.50797967 276.04438607 13.50090114 279.67259505 13.48774719 283.301651 C13.49871644 284.34826891 13.50968568 285.39488681 13.52098733 286.47322041 C13.45083855 294.50892482 11.45649606 300.84285282 7.375 307.75 C0.12523126 314.61820196 -7.23736637 317.38606618 -17.05078125 317.28125 C-23.30165676 316.68514002 -30.06731304 314.09076224 -34.63272953 309.65720749 C-44.48740664 297.71279337 -42.82934419 283.93768922 -42.72875977 269.24511719 C-42.72865704 266.51742565 -42.73756255 263.78977991 -42.74601746 261.06210327 C-42.7610767 254.44344018 -42.74430512 247.82522982 -42.71646655 241.20662305 C-42.68519115 233.49149819 -42.68552832 225.77646912 -42.68698429 218.0612928 C-42.68848332 204.29402195 -42.66107532 190.52696082 -42.61743164 176.75976562 C-42.57514208 163.41272157 -42.55392098 150.06586197 -42.5559082 136.71875 C-42.55602807 135.89604114 -42.55614794 135.07333227 -42.55627144 134.22569284 C-42.5563925 133.40437833 -42.55651357 132.58306382 -42.5566383 131.73686099 C-42.55870941 116.51918558 -42.54103299 101.30158819 -42.51417865 86.08393811 C-42.50514397 80.71046415 -42.50194172 75.33700457 -42.50058174 69.96352386 C-42.49853225 63.41517031 -42.48509479 56.86694841 -42.45758332 50.31865069 C-42.44376453 46.97985015 -42.436181 43.64135999 -42.43836594 40.30250931 C-42.43983947 36.67988139 -42.42285794 33.05779422 -42.40113831 29.4352417 C-42.40578411 28.38504624 -42.41042992 27.33485078 -42.41521651 26.25283122 C-42.32422604 17.06368978 -40.24318891 10.58516523 -33.90234375 3.76171875 C-25.17495135 -4.3205276 -10.36059589 -6.20315932 0 0 Z " fill="#96ED45" transform="translate(251,423)"/>
<path d="M0 0 C6.33498027 4.70250458 9.94779689 10.90612514 11.53705311 18.59995556 C12.090682 22.6660004 12.14163258 26.61149974 12.13371277 30.70930481 C12.13597833 31.57379437 12.13824388 32.43828392 12.14057809 33.32897013 C12.14689656 36.21908296 12.14609011 39.10914862 12.14526367 41.99926758 C12.14825651 44.07419393 12.15165932 46.14911973 12.15544128 48.2240448 C12.16427287 53.85634855 12.16661905 59.48863711 12.16725707 65.12094712 C12.16796806 68.64110042 12.1701033 72.16124986 12.17275429 75.68140221 C12.18200495 87.96574524 12.18608953 100.25007743 12.18530273 112.53442383 C12.18470203 123.97920378 12.19525323 135.42393659 12.2110464 146.86870462 C12.22412871 156.69988502 12.22948634 166.53105002 12.22884732 176.36223906 C12.22859254 182.23160471 12.23143306 188.10092845 12.24202538 193.97028542 C12.25171793 199.49177831 12.25177755 205.01318933 12.24450874 210.53468513 C12.24346434 212.55789561 12.24581719 214.58111121 12.2518692 216.6043129 C12.25961258 219.37288565 12.2549288 222.14117735 12.24723816 224.90974426 C12.25238172 225.70431701 12.25752529 226.49888976 12.26282471 227.31754047 C12.20480702 236.813476 10.37995838 244.74756867 4 252 C-2.80187757 257.98360658 -9.94142004 260.387304 -18.9375 259.9375 C-27.05062597 258.83976756 -33.82086502 255.27229866 -38.8203125 248.76171875 C-43.55280638 241.69431895 -44.14903874 235.56475291 -44.14717102 227.23458862 C-44.15084771 226.35194686 -44.1545244 225.4693051 -44.1583125 224.55991662 C-44.16932559 221.60227573 -44.17318915 218.64467001 -44.17700195 215.68701172 C-44.1832684 213.56621693 -44.18991537 211.44542323 -44.19691467 209.32463074 C-44.21793612 202.35965741 -44.22831538 195.39468391 -44.23828125 188.4296875 C-44.24232954 186.0299389 -44.24644649 183.63019041 -44.25063133 181.23044205 C-44.2696789 169.95531262 -44.28391077 158.68018972 -44.2922433 147.4050473 C-44.30201402 134.39933401 -44.3283312 121.393791 -44.36874419 108.3881377 C-44.39892535 98.32934802 -44.41371409 88.27060711 -44.41702431 78.21177304 C-44.41937252 72.20701166 -44.42830339 66.20243229 -44.45348549 60.19771957 C-44.476806 54.54566811 -44.48098328 48.89391797 -44.47072411 43.24183083 C-44.47022961 41.17268813 -44.47652457 39.1035304 -44.49028015 37.03443336 C-44.64176719 12.88797057 -44.64176719 12.88797057 -36.3125 3.5625 C-25.994666 -5.67423742 -12.08859679 -7.1935664 0 0 Z " fill="#96ED45" transform="translate(701,552)"/>
<path d="M0 0 C8.65258334 4.54062171 13.06135326 10.18405977 16.125 19.375 C16.22987076 22.28984574 16.27718942 25.1811965 16.27890015 28.09645081 C16.28547353 29.44953517 16.28547353 29.44953517 16.2921797 30.82995456 C16.30557863 33.86523547 16.31174908 36.90048732 16.31787109 39.93579102 C16.32577131 42.10717399 16.33404021 44.27855564 16.34265137 46.44993591 C16.3688846 53.59291325 16.38418204 60.73589648 16.3984375 67.87890625 C16.40379697 70.33748821 16.40917448 72.79607014 16.41456985 75.25465202 C16.43620202 85.48272601 16.45493814 95.71079842 16.46619225 105.9388895 C16.48242665 120.59715519 16.51558833 135.25505235 16.57259309 149.91321808 C16.61130496 160.2190821 16.63082654 170.5248752 16.63611281 180.83081001 C16.639765 186.98596066 16.65177259 193.14082843 16.68421555 199.29590034 C16.71431704 205.08995858 16.72060025 210.8835631 16.70883179 216.67768288 C16.70861122 218.80046531 16.7169023 220.92326892 16.73448563 223.04597855 C16.90362296 244.64646642 16.90362296 244.64646642 8.84375 254.03125 C8.1115625 254.6396875 7.379375 255.248125 6.625 255.875 C5.8928125 256.5040625 5.160625 257.133125 4.40625 257.78125 C-1.73580155 262.07227231 -9.27390678 263.16601889 -16.6015625 261.90625 C-24.71663422 259.65070136 -31.27365726 255.54123687 -35.875 248.375 C-38.51015691 242.3810929 -39.30977071 237.59041792 -39.26268005 231.08351135 C-39.27075836 229.72908579 -39.27075836 229.72908579 -39.27899987 228.34729809 C-39.29324218 225.33889436 -39.2861849 222.33093296 -39.27905273 219.32250977 C-39.28475823 217.15861662 -39.29172318 214.99472647 -39.29985046 212.83084106 C-39.31777669 206.9651516 -39.31661449 201.09961179 -39.31090808 195.23390317 C-39.3078156 190.33327183 -39.31390933 185.43266921 -39.31994683 180.53204197 C-39.33398857 168.96949777 -39.33243353 157.40702747 -39.32104492 145.84448242 C-39.30956268 133.92358036 -39.3236421 122.00290325 -39.3504414 110.08203083 C-39.37260514 99.83891007 -39.37923427 89.59585989 -39.37336498 79.35271686 C-39.36999602 73.23853889 -39.37240676 67.12450513 -39.38961601 61.01034737 C-39.40509376 55.26056322 -39.40112004 49.51111212 -39.38231087 43.76134109 C-39.3786274 41.65427781 -39.38172636 39.5471898 -39.39219666 37.44014931 C-39.40542455 34.55754151 -39.39384287 31.67603342 -39.37620544 28.79347229 C-39.38581045 27.96524525 -39.39541546 27.1370182 -39.40531152 26.28369337 C-39.30119803 17.9792992 -36.17827298 11.0076925 -30.58984375 4.87890625 C-22.45695601 -2.25358072 -9.95346524 -4.13583642 0 0 Z " fill="#96ED45" transform="translate(134.875,549.625)"/>
<path d="M0 0 C6.92027257 4.2677484 11.21906048 9.89301436 13.39990807 17.79062271 C14.37417958 23.15065107 14.10909302 28.65837385 14.09887695 34.08740234 C14.1032291 35.50238818 14.10841392 36.91737167 14.11436462 38.33235168 C14.12771245 42.1609585 14.12833797 45.98946634 14.12580132 49.81809187 C14.12472866 53.02119091 14.12962257 56.22427016 14.13440675 59.42736495 C14.14548754 66.98805013 14.14594751 74.54868563 14.13989258 82.109375 C14.13385449 89.89322673 14.14616283 97.67689763 14.16746265 105.46071851 C14.18511174 112.15819648 14.19107477 118.85561705 14.1878249 125.55311739 C14.18601703 129.54678749 14.18859835 133.5403286 14.20253944 137.53397751 C14.21516704 141.29170498 14.21312747 145.04915178 14.20012856 148.80687523 C14.19665698 150.83162043 14.20790454 152.85637441 14.21969604 154.88108826 C14.16491293 164.42754823 13.04862867 172.55477172 6.82421875 180.125 C0.65358105 185.84686405 -5.72866925 188.62290671 -14.05078125 189.5625 C-21.56011072 189.21776032 -29.21747846 186.13058005 -34.67578125 180.9609375 C-40.48787941 173.84717152 -42.29470737 166.13361171 -42.30949402 157.11112976 C-42.313759 155.92949249 -42.31802399 154.74785522 -42.32241821 153.53041077 C-42.32196503 152.24766769 -42.32151184 150.96492462 -42.32104492 149.64331055 C-42.32403974 148.26788238 -42.32744301 146.89245505 -42.33122253 145.51702881 C-42.34003432 141.79168749 -42.34239947 138.06636917 -42.34303832 134.34101844 C-42.34375047 132.01018331 -42.34588792 129.67935397 -42.34853554 127.34852028 C-42.3577799 119.20735937 -42.3618716 111.06621481 -42.36108398 102.92504883 C-42.36048356 95.35200055 -42.37103078 87.77902359 -42.38682765 80.20599335 C-42.39993002 73.69113255 -42.40526674 67.17629499 -42.40462857 60.66142112 C-42.40437436 56.7761899 -42.40718291 52.89102209 -42.41780663 49.00580406 C-42.42753301 45.34910053 -42.42753588 41.69252042 -42.42028999 38.03581238 C-42.41875649 36.0659271 -42.42705924 34.09604172 -42.43572998 32.12617493 C-42.39762813 21.31558766 -41.36975622 12.60302543 -34.17578125 4.125 C-25.03970836 -4.31303586 -10.97149952 -5.84065039 0 0 Z " fill="#108DE2" transform="translate(473.17578125,687.875)"/>
<path d="M0 0 C6.21280459 4.65678457 10.2594844 10.00301189 12.15234375 17.61328125 C12.59300814 22.42490306 12.57355009 27.22884153 12.55639648 32.05639648 C12.56210656 33.51094078 12.56907328 34.9654806 12.57719421 36.42001343 C12.59507023 40.35190192 12.59396782 44.28356657 12.58825183 48.21548343 C12.58515197 51.50562731 12.59126126 54.79572869 12.59729058 58.08586651 C12.61131587 65.85130731 12.60979111 73.61663804 12.59838867 81.38208008 C12.58690861 89.3767505 12.60098566 97.37108541 12.62778515 105.36571163 C12.64997972 112.24581074 12.65657111 119.12580481 12.65070873 126.00593716 C12.64734701 130.10805333 12.64970176 134.20995447 12.66695976 138.31204033 C12.68248706 142.17081299 12.67840997 146.02909058 12.65965462 149.88784409 C12.65598468 151.29828233 12.65903041 152.70875774 12.66954041 154.11916161 C12.7478952 165.50975137 10.91755694 173.44587348 3.08203125 181.88671875 C-2.21249015 186.62392211 -8.08142056 188.31789022 -15.03515625 188.86328125 C-22.66944413 188.36267221 -30.40529615 186.25475209 -35.84765625 180.61328125 C-40.2512143 174.38653061 -42.9624873 169.28408172 -43.0015564 161.58726501 C-43.01015686 160.32705536 -43.01875732 159.0668457 -43.02761841 157.76844788 C-43.0320536 156.36898845 -43.03635197 154.96952858 -43.04052734 153.57006836 C-43.04843001 152.09818326 -43.05669907 150.62630009 -43.06530762 149.15441895 C-43.09151715 144.31650642 -43.10683805 139.47858531 -43.12109375 134.640625 C-43.1264546 132.97326718 -43.13183211 131.30590942 -43.1372261 129.63855171 C-43.15885671 122.69942315 -43.1775908 115.7602969 -43.1888485 108.82114315 C-43.20506951 98.88883574 -43.23820001 88.95692067 -43.29524934 79.02476114 C-43.33402142 72.03521793 -43.35348998 65.04577931 -43.35876906 58.05613142 C-43.36241371 53.88506595 -43.37433915 49.71441902 -43.4068718 45.54347038 C-43.43707946 41.61415307 -43.44321964 37.68550473 -43.43148804 33.75609589 C-43.43126833 32.32025463 -43.43948769 30.88438119 -43.45714188 29.44864845 C-43.57005843 19.73018969 -42.6815651 11.83936522 -35.87312889 4.47856045 C-26.07658319 -4.81439564 -11.97308867 -7.07229031 0 0 Z " fill="#108DE2" transform="translate(364.84765625,688.38671875)"/>
<path d="M0 0 C1.85332743 1.47176002 3.5380099 2.93345831 5.125 4.6875 C6.176875 3.759375 6.176875 3.759375 7.25 2.8125 C12.71175205 -1.22444717 18.46416627 -2.25552126 25.125 -1.3125 C29.74491147 0.8263479 31.63550686 2.99200245 33.52944946 7.68484497 C34.57263985 11.19277645 34.492839 14.61314589 34.41796875 18.24609375 C34.41372391 19.03524673 34.40947906 19.82439972 34.40510559 20.63746643 C34.38844452 23.13367261 34.35081779 25.62904192 34.3125 28.125 C34.29743683 29.82746222 34.28375129 31.52993721 34.27148438 33.23242188 C34.2385825 37.3844322 34.18688951 41.5358247 34.125 45.6875 C31.485 45.6875 28.845 45.6875 26.125 45.6875 C26.095271 44.22727417 26.095271 44.22727417 26.06494141 42.73754883 C25.98864633 39.11245649 25.89996664 35.48775306 25.80761719 31.86303711 C25.76942591 30.29670919 25.73455606 28.73029651 25.703125 27.16381836 C25.65725929 24.907082 25.59930231 22.65092417 25.5390625 20.39453125 C25.52751129 19.69850296 25.51596008 19.00247467 25.50405884 18.28535461 C25.38609394 14.36515933 25.01908895 11.15674614 23.125 7.6875 C20.07110527 6.45139975 18.13310643 6.31648685 15.0234375 7.4609375 C11.96353504 8.9408176 9.54068822 10.27181178 7.125 12.6875 C6.87984303 15.19125468 6.75166342 17.59299479 6.7109375 20.1015625 C6.69157135 20.83120209 6.6722052 21.56084167 6.6522522 22.31259155 C6.59241578 24.64577502 6.54605577 26.97900773 6.5 29.3125 C6.46182386 30.89325082 6.42277235 32.47398076 6.3828125 34.0546875 C6.28671122 37.9321223 6.20269588 41.80965449 6.125 45.6875 C3.485 45.6875 0.845 45.6875 -1.875 45.6875 C-1.89481934 44.71401611 -1.91463867 43.74053223 -1.93505859 42.73754883 C-2.01135367 39.11245649 -2.10003336 35.48775306 -2.19238281 31.86303711 C-2.23057409 30.29670919 -2.26544394 28.73029651 -2.296875 27.16381836 C-2.34274071 24.907082 -2.40069769 22.65092417 -2.4609375 20.39453125 C-2.47248871 19.69850296 -2.48403992 19.00247467 -2.49594116 18.28535461 C-2.61395667 14.36347744 -2.98840658 11.16141449 -4.875 7.6875 C-7.49631308 6.31509111 -7.49631308 6.31509111 -10.875 6.6875 C-14.98333303 8.44821416 -18.70595714 10.51845714 -21.875 13.6875 C-22.12001495 16.11926397 -22.24824921 18.44614884 -22.2890625 20.8828125 C-22.30842865 21.59025604 -22.3277948 22.29769958 -22.3477478 23.02658081 C-22.40757652 25.28843085 -22.45394101 27.5503317 -22.5 29.8125 C-22.53817686 31.3450744 -22.57722842 32.87762728 -22.6171875 34.41015625 C-22.71328039 38.16909624 -22.79729849 41.92813668 -22.875 45.6875 C-25.515 45.6875 -28.155 45.6875 -30.875 45.6875 C-30.875 30.5075 -30.875 15.3275 -30.875 -0.3125 C-28.895 -0.3125 -26.915 -0.3125 -24.875 -0.3125 C-24.215 1.3375 -23.555 2.9875 -22.875 4.6875 C-22.33230469 4.33816406 -21.78960938 3.98882813 -21.23046875 3.62890625 C-20.15732422 2.94634766 -20.15732422 2.94634766 -19.0625 2.25 C-18.35480469 1.79753906 -17.64710937 1.34507812 -16.91796875 0.87890625 C-11.71038172 -2.15802309 -5.46129914 -2.49320178 0 0 Z " fill="#000000" transform="translate(1970.875,775.3125)"/>
<path d="M0 0 C0.66 -0.66 1.32 -1.32 2 -2 C4.625 -2.125 4.625 -2.125 7 -2 C7.10150834 5.86528488 7.17151159 13.7304005 7.21972656 21.59619141 C7.23756825 24.27163375 7.26711049 26.94622016 7.30175781 29.62158203 C7.35033506 33.46918571 7.37298365 37.31620787 7.390625 41.1640625 C7.41127014 42.35802643 7.43191528 43.55199036 7.45318604 44.78213501 C7.45490165 51.1460889 7.37579692 55.20494973 3 60 C-3.28542087 65.03109346 -10.26136169 65.61644914 -18 65 C-21.47113849 64.3506536 -24.88085105 63.68875135 -28 62 C-28.90234375 60.078125 -28.90234375 60.078125 -29 58 C-28.34 57.01 -27.68 56.02 -27 55 C-26.443125 55.144375 -25.88625 55.28875 -25.3125 55.4375 C-18.79282164 57.02336771 -13.07480178 58.19575625 -6.625 55.6875 C-3.78301625 54.10779753 -3.78301625 54.10779753 -2 51 C-1.75944532 48.94290404 -1.75944532 48.94290404 -1.875 46.8125 C-1.91625 45.554375 -1.9575 44.29625 -2 43 C-2.639375 43.33 -3.27875 43.66 -3.9375 44 C-10.05797178 45.9985214 -16.21179138 45.61190024 -22.14453125 43.11328125 C-27.17303922 40.09617647 -30.16633591 35.46853805 -32 30 C-33.5772659 20.89256143 -33.6596472 12.56423869 -28.4375 4.6875 C-20.94195744 -4.42722529 -9.99068027 -5.10162397 0 0 Z M-19 7 C-24.04527717 12.4543537 -24.28804694 16.86988607 -24.21875 24.05078125 C-23.86766549 28.78415279 -22.02782288 31.53732897 -19.375 35.3125 C-15.81147686 37.84447697 -12.32336404 38.21691619 -8 38 C-4.17422681 36.50647636 -4.17422681 36.50647636 -1 34 C-0.69081445 29.71575443 -0.7215796 25.41902937 -0.6875 21.125 C-0.64399414 19.30935547 -0.64399414 19.30935547 -0.59960938 17.45703125 C-0.59123047 16.29816406 -0.58285156 15.13929688 -0.57421875 13.9453125 C-0.55963623 12.87812988 -0.54505371 11.81094727 -0.5300293 10.71142578 C-0.75111469 7.90901879 -0.75111469 7.90901879 -2.78442383 6.18310547 C-8.61634145 3.06889359 -13.62350091 3.33420517 -19 7 Z " fill="#000000" transform="translate(1694,777)"/>
<path d="M0 0 C2.64 0 5.28 0 8 0 C8 9.57 8 19.14 8 29 C17.57 29 27.14 29 37 29 C37 19.43 37 9.86 37 0 C39.64 0 42.28 0 45 0 C45 21.12 45 42.24 45 64 C42.36 64 39.72 64 37 64 C37 54.43 37 44.86 37 35 C27.43 35 17.86 35 8 35 C8 44.57 8 54.14 8 64 C5.36 64 2.72 64 0 64 C0 42.88 0 21.76 0 0 Z " fill="#000000" transform="translate(1224,757)"/>
<path d="M0 0 C2.64 0 5.28 0 8 0 C10.6152571 6.59753689 13.22947829 13.1954836 15.84301758 19.79370117 C16.73015516 22.03305099 17.6175201 24.27231075 18.50512695 26.51147461 C21.34335101 33.67172135 24.17557808 40.83429754 27 48 C27.30198303 48.76459534 27.60396606 49.52919067 27.9151001 50.31695557 C28.65162092 52.18507285 29.382768 54.05530658 30.11328125 55.92578125 C30.48880127 56.88524658 30.86432129 57.84471191 31.2512207 58.83325195 C32 61 32 61 32 63 C29.04335481 64.4783226 26.25770263 64.06032783 23 64 C21.99600476 61.37646482 20.99665555 58.75132205 20 56.125 C19.71382812 55.37863281 19.42765625 54.63226562 19.1328125 53.86328125 C17 48.2265625 17 48.2265625 17 46 C8.42 46 -0.16 46 -9 46 C-9.495 48.475 -9.495 48.475 -10 51 C-10.81685641 53.28451972 -11.67325043 55.55517417 -12.5625 57.8125 C-13.01753906 58.97394531 -13.47257812 60.13539063 -13.94140625 61.33203125 C-14.46541016 62.65267578 -14.46541016 62.65267578 -15 64 C-17.64 64 -20.28 64 -23 64 C-22.34641559 58.06736887 -20.21323591 52.80162216 -18.10546875 47.265625 C-17.71684158 46.23242126 -17.32821442 45.19921753 -16.92781067 44.13470459 C-15.68616404 40.83784422 -14.43682421 37.54395756 -13.1875 34.25 C-12.35824331 32.04966025 -11.52946229 29.84914117 -10.70117188 27.6484375 C-7.21344076 18.3991009 -3.70442389 9.16515673 0 0 Z M3 13 C1.4946891 16.95633425 -0.00334593 20.91538367 -1.5 24.875 C-1.92925781 26.00292969 -2.35851563 27.13085938 -2.80078125 28.29296875 C-3.40986328 29.90751953 -3.40986328 29.90751953 -4.03125 31.5546875 C-4.40830078 32.54968262 -4.78535156 33.54467773 -5.17382812 34.56982422 C-6.10729068 36.8877992 -6.10729068 36.8877992 -6 39 C0.6 39 7.2 39 14 39 C12.29378089 32.8386532 10.27473087 26.88287543 7.9375 20.9375 C7.6801709 20.27032959 7.4228418 19.60315918 7.15771484 18.91577148 C5.89196944 15.27854784 5.89196944 15.27854784 3 13 Z " fill="#000000" transform="translate(1136,757)"/>
<path d="M0 0 C2.64 0 5.28 0 8 0 C10.61705784 6.7209497 13.2310437 13.44308853 15.84301758 20.16601562 C16.7297004 22.44720724 17.61705518 24.72813781 18.50512695 27.00878906 C27.96839375 51.31399428 27.96839375 51.31399428 32 63 C29.04335481 64.4783226 26.25770263 64.06032783 23 64 C21.99600476 61.37646482 20.99665555 58.75132205 20 56.125 C19.71382812 55.37863281 19.42765625 54.63226562 19.1328125 53.86328125 C17 48.2265625 17 48.2265625 17 46 C8.42 46 -0.16 46 -9 46 C-9.99 49.3 -10.98 52.6 -12 56 C-12.97618706 58.67547565 -13.9677526 61.34564953 -15 64 C-17.64 64 -20.28 64 -23 64 C-21.68391153 57.44756831 -19.84269854 51.3816717 -17.48046875 45.13671875 C-17.14002029 44.22348343 -16.79957184 43.31024811 -16.44880676 42.36933899 C-15.73127888 40.44806116 -15.01091274 38.52784115 -14.2878418 36.60864258 C-13.1953077 33.70822757 -12.11153979 30.80465924 -11.02929688 27.90039062 C-7.524929 18.52493162 -3.97555056 9.18796584 0 0 Z M3 13 C1.4946891 16.95633425 -0.00334593 20.91538367 -1.5 24.875 C-1.92925781 26.00292969 -2.35851562 27.13085938 -2.80078125 28.29296875 C-3.40986328 29.90751953 -3.40986328 29.90751953 -4.03125 31.5546875 C-4.40830078 32.54968262 -4.78535156 33.54467773 -5.17382812 34.56982422 C-6.10729068 36.8877992 -6.10729068 36.8877992 -6 39 C0.6 39 7.2 39 14 39 C9.46850849 25.81204396 9.46850849 25.81204396 4 13 C3.67 13 3.34 13 3 13 Z " fill="#000000" transform="translate(1006,757)"/>
<path d="M0 0 C5.61334859 3.32774463 8.62842273 8.56013051 10.3828125 14.7109375 C12.00611672 22.97626147 11.09212992 30.89861506 6.59765625 38.109375 C3.1167907 42.63355175 -0.54789188 44.97754713 -6.1484375 46.09765625 C-11.6452445 46.66755932 -14.90619526 46.19455315 -20.1484375 44.09765625 C-20.4784375 50.69765625 -20.8084375 57.29765625 -21.1484375 64.09765625 C-23.7884375 64.42765625 -26.4284375 64.75765625 -29.1484375 65.09765625 C-29.1484375 43.31765625 -29.1484375 21.53765625 -29.1484375 -0.90234375 C-27.4984375 -0.90234375 -25.8484375 -0.90234375 -24.1484375 -0.90234375 C-23.4884375 -0.24234375 -22.8284375 0.41765625 -22.1484375 1.09765625 C-21.1790625 0.60265625 -20.2096875 0.10765625 -19.2109375 -0.40234375 C-12.88189173 -3.08198006 -6.28275999 -2.6908235 0 0 Z M-17.3984375 7.09765625 C-18.10484375 7.46890625 -18.81125 7.84015625 -19.5390625 8.22265625 C-20.33570313 8.65578125 -20.33570313 8.65578125 -21.1484375 9.09765625 C-21.26432912 13.36826243 -21.33558552 17.63846609 -21.3984375 21.91015625 C-21.43195313 23.12509766 -21.46546875 24.34003906 -21.5 25.59179688 C-21.51289062 26.75517578 -21.52578125 27.91855469 -21.5390625 29.1171875 C-21.56000977 30.19073486 -21.58095703 31.26428223 -21.60253906 32.37036133 C-21.40678659 35.20932569 -21.40678659 35.20932569 -19.26049805 36.93286133 C-15.69599703 38.89867272 -12.18031723 39.2132657 -8.1484375 39.09765625 C-3.42038036 37.20643339 -0.40971916 33.62021958 1.8515625 29.09765625 C2.69541528 19.76680598 2.69541528 19.76680598 0.2890625 10.91015625 C-2.77589195 7.37367034 -4.69565658 6.44939331 -9.1484375 5.09765625 C-13.01633753 5.09765625 -14.16163163 5.37135979 -17.3984375 7.09765625 Z " fill="#000000" transform="translate(2045.1484375,775.90234375)"/>
<path d="M0 0 C0.33 7.92 0.66 15.84 1 24 C4.3 22.35 7.6 20.7 11 19 C16.03793932 18.525841 19.23399089 18.30895296 23.875 20.125 C27.00235983 22.88443515 29.61096524 25.76757143 30.34924316 30.00408936 C30.46103005 32.31250812 30.45022906 34.58809703 30.390625 36.8984375 C30.38496521 37.73339752 30.37930542 38.56835754 30.37347412 39.42861938 C30.35120223 42.07801266 30.30102523 44.72602016 30.25 47.375 C30.22992302 49.17836579 30.21167435 50.98175292 30.1953125 52.78515625 C30.15136786 57.19063269 30.08240601 61.59508194 30 66 C27.36 66 24.72 66 22 66 C21.98018066 64.99098633 21.96036133 63.98197266 21.93994141 62.94238281 C21.86376664 59.19245804 21.77506784 55.44291529 21.68261719 51.69335938 C21.64437642 50.07169141 21.60951497 48.44994004 21.578125 46.828125 C21.53236743 44.49448883 21.47439184 42.16142438 21.4140625 39.828125 C21.40251129 39.10506165 21.39096008 38.38199829 21.37905884 37.63702393 C21.27259043 33.99119593 21.16635096 31.02259767 19 28 C15.73203314 26.61111408 13.74832137 26.70847603 10.453125 27.9921875 C5.35845922 30.46325866 5.35845922 30.46325866 1 34 C0.75498505 36.43176397 0.62675079 38.75864884 0.5859375 41.1953125 C0.56657135 41.90275604 0.5472052 42.61019958 0.5272522 43.33908081 C0.46742348 45.60093085 0.42105899 47.8628317 0.375 50.125 C0.33682314 51.6575744 0.29777158 53.19012728 0.2578125 54.72265625 C0.16171961 58.48159624 0.07770151 62.24063668 0 66 C-2.64 66 -5.28 66 -8 66 C-8 44.55 -8 23.1 -8 1 C-4 0 -4 0 0 0 Z " fill="#000000" transform="translate(1454,755)"/>
<path d="M0 0 C1.609375 0.94921875 1.609375 0.94921875 2.609375 3.94921875 C1.671875 6.13671875 1.671875 6.13671875 0.609375 7.94921875 C-5.04425628 7.04977741 -5.04425628 7.04977741 -7.328125 6.38671875 C-13.49901318 5.07774247 -17.96815339 6.07849849 -23.390625 8.94921875 C-25.66954215 11.74722045 -25.66954215 11.74722045 -25.328125 14.82421875 C-23.95238898 19.41000547 -21.29873507 21.8119931 -17.28100586 24.20654297 C-14.83571786 25.49460216 -12.37242558 26.73302245 -9.890625 27.94921875 C-2.95688307 31.34707084 2.2167345 34.36025801 6.609375 40.94921875 C7.28925521 46.42778835 7.31038345 51.37895983 5.046875 56.44921875 C-0.71762474 62.36152618 -6.96622815 64.06925512 -15.078125 64.19921875 C-21.59750097 64.15892594 -27.54346903 62.87279673 -33.390625 59.94921875 C-32.730625 57.63921875 -32.070625 55.32921875 -31.390625 52.94921875 C-30.6171875 53.16578125 -29.84375 53.38234375 -29.046875 53.60546875 C-19.95775785 56.03523274 -12.96414621 57.5789202 -4.390625 52.94921875 C-2.04512826 49.43097364 -1.81071097 48.09146181 -2.390625 43.94921875 C-6.0987409 39.49378583 -10.12044305 37.31504073 -15.265625 34.94921875 C-30.27869001 27.96771782 -30.27869001 27.96771782 -33.73046875 19.98828125 C-35.2588474 15.2674904 -34.79857318 11.35800126 -33.015625 6.82421875 C-26.52611401 -4.79811103 -10.9303089 -3.76975982 0 0 Z " fill="#000000" transform="translate(1206.390625,758.05078125)"/>
<path d="M0 0 C4.47964996 4.27602951 6.84509883 8.89686375 8 15 C8 17.64 8 20.28 8 23 C-2.56 23 -13.12 23 -24 23 C-21.71016056 31.48228275 -21.71016056 31.48228275 -16 36 C-8.580496 38.473168 -2.12925426 36.45433343 5 34 C7 37 7 37 7 41 C-2.06673413 45.49324877 -10.63295172 46.77660483 -20.375 43.5 C-26.13318802 40.87085949 -29.47381202 36.82287863 -31.8046875 30.984375 C-34.17493113 22.73722592 -33.37736006 14.82527953 -30 7 C-27.06197468 2.11244385 -23.61205814 -0.88529798 -18.140625 -2.56640625 C-11.48394524 -3.91474832 -5.97964731 -3.44979652 0 0 Z M-20 7 C-22.01499795 10.05680803 -24 13.27191412 -24 17 C-16.08 17 -8.16 17 0 17 C-2.09887726 8.76973483 -2.09887726 8.76973483 -4.75 6 C-10.45503928 3.46442698 -14.89010016 3.25274012 -20 7 Z " fill="#000000" transform="translate(1762,777)"/>
<path d="M0 0 C3.99013335 3.20097365 6.16721434 7.63836178 7.7578125 12.41015625 C7.7578125 16.04015625 7.7578125 19.67015625 7.7578125 23.41015625 C-7.5871875 23.90515625 -7.5871875 23.90515625 -23.2421875 24.41015625 C-21.2518365 33.04657257 -21.2518365 33.04657257 -17.1171875 35.97265625 C-9.43052698 39.48563737 -1.82073276 37.06818465 5.7578125 34.41015625 C7.218441 37.05754541 7.7578125 38.30463959 7.7578125 41.41015625 C-1.88285495 45.58715723 -11.06257866 47.41401166 -21.16796875 43.5859375 C-25.99216088 40.85132012 -29.30326786 36.67553619 -31.40625 31.6015625 C-33.43666538 23.84992996 -33.54125739 15.14964819 -30.1796875 7.78515625 C-27.35406759 2.96073135 -23.78694676 -0.47804553 -18.32421875 -2.19140625 C-11.88227879 -3.42419776 -5.78615349 -3.26788831 0 0 Z M-20.4921875 8.09765625 C-22.88499722 10.87142865 -22.88499722 10.87142865 -23.2421875 17.41015625 C-15.6521875 17.41015625 -8.0621875 17.41015625 -0.2421875 17.41015625 C-1.26440115 11.27687434 -1.84896088 9.51686809 -6.2421875 5.41015625 C-12.1368714 3.72596085 -15.67312709 4.48336094 -20.4921875 8.09765625 Z " fill="#000000" transform="translate(1386.2421875,776.58984375)"/>
<path d="M0 0 C5.59191815 4.7930727 8.57331164 10.6086656 9.28125 17.89453125 C9.52496212 25.96749511 8.27068164 31.52719278 3.875 38.25 C-1.29354832 43.19382883 -6.47693145 45.21166816 -13.625 45.4375 C-19.8379248 45.17718192 -23.79625685 43.79374443 -28.6875 39.8125 C-34.57582679 32.65102147 -35.66753498 26.99928035 -35.37890625 17.6328125 C-34.6720179 10.85542937 -32.63322556 6.20427003 -27.625 1.5625 C-19.80028611 -4.40942751 -8.53886742 -5.17840992 0 0 Z M-23.25 8.8125 C-26.64672096 13.0584012 -27.41513519 17.52652679 -27.25 22.9140625 C-26.65653549 27.86578203 -25.14678245 31.7221567 -21.8125 35.4375 C-18.18930526 37.45038597 -15.14398623 38.20353567 -11 38 C-5.63663248 36.1434497 -2.52750556 33.05501111 0 28 C0.82014023 17.9628471 0.82014023 17.9628471 -3 9 C-9.60058806 2.21606227 -16.2871315 3.2035226 -23.25 8.8125 Z " fill="#000000" transform="translate(1923,777)"/>
<path d="M0 0 C5.83282536 5.10803641 8.55067081 9.97179235 9.24609375 17.75390625 C9.57620377 25.58651669 8.6373952 32.75490439 3.38671875 38.8828125 C-2.55716124 44.33905711 -8.40159748 45.4218276 -16.31640625 45.25 C-22.70837377 44.65453287 -26.81863152 41.87826323 -31 37 C-35.87742103 29.85806206 -35.65043003 22.44629857 -35 14 C-33.38474038 7.2567776 -29.77591919 2.74482673 -24 -1 C-16.73750963 -4.55055085 -6.92726351 -4.30264814 0 0 Z M-23.25 9.3125 C-26.57602014 14.42031665 -27.52257506 18.9381293 -27 25 C-25.99731982 29.17522293 -24.69553065 32.22498014 -21.8125 35.4375 C-18.18930526 37.45038597 -15.14398623 38.20353567 -11 38 C-6.29727222 36.37213269 -3.54622643 34.27402294 -1 30 C1.068935 23.81452423 1.81413388 18.0267292 -1 12 C-3.04897702 8.54486227 -5.13239237 5.72546512 -8.9609375 4.23828125 C-14.94090409 3.1728849 -19.01846662 4.96342403 -23.25 9.3125 Z " fill="#000000" transform="translate(1647,777)"/>
<path d="M0 0 C5.01912268 4.8870405 7.34720014 10.96159574 7.46850586 17.89892578 C7.45315796 18.90802002 7.45315796 18.90802002 7.4375 19.9375 C7.42920166 20.64116699 7.42090332 21.34483398 7.41235352 22.06982422 C7.19524495 28.73451626 5.91178834 32.93641227 1.3515625 37.734375 C-4.64180978 43.23048058 -9.9356357 44.47085974 -17.9921875 44.3125 C-23.94291598 43.6942425 -27.54880796 41.38669462 -31.8125 37.3125 C-36.18127076 30.69693286 -37.97947114 23.90194957 -37 16 C-35.66606498 9.533315 -34.01417227 3.75739871 -28.328125 -0.1484375 C-19.18820988 -5.65582225 -9.09203346 -5.70115213 0 0 Z M-25.3125 8.5 C-28.94116868 13.87580545 -28.46473371 19.73439378 -28 26 C-26.50439704 30.18768829 -24.64976693 33.40674455 -21 36 C-16.52176478 37.34781837 -12.46040237 37.6344893 -8.1875 35.5625 C-4.27060931 32.90265795 -2.3341251 29.48678977 -1 25 C-0.07487237 18.97615761 -1.01104803 13.32708375 -4 8 C-7.24324657 4.38609668 -10.29114706 3.26683234 -15.01171875 2.90234375 C-19.58271967 3.12685264 -22.30418152 5.24776381 -25.3125 8.5 Z " fill="#000000" transform="translate(1578,778)"/>
<path d="M0 0 C3.80333488 2.71415815 5.89497275 5.65788691 6.69140625 10.20703125 C6.77456803 12.82600144 6.80775077 15.41704878 6.7890625 18.03515625 C6.78764755 18.78416199 6.7862326 19.53316772 6.78477478 20.30487061 C6.77919284 22.68896537 6.7666437 25.07296503 6.75390625 27.45703125 C6.74888891 29.07682156 6.74432641 30.69661334 6.74023438 32.31640625 C6.72922933 36.27998437 6.71197716 40.2434917 6.69140625 44.20703125 C4.38140625 44.20703125 2.07140625 44.20703125 -0.30859375 44.20703125 C-0.30859375 43.21703125 -0.30859375 42.22703125 -0.30859375 41.20703125 C-0.93765625 41.49578125 -1.56671875 41.78453125 -2.21484375 42.08203125 C-9.45330313 45.22160399 -14.30626584 46.40772962 -22.05859375 44.08203125 C-26.01453612 41.79975681 -27.44089284 40.39068129 -29.30859375 36.20703125 C-30.01058356 31.75668073 -30.38502395 27.35563698 -28.3203125 23.234375 C-26.05698655 20.38244416 -23.63954857 18.57180822 -20.30859375 17.20703125 C-18.20214844 16.97998047 -18.20214844 16.97998047 -15.98046875 17.01171875 C-15.18125 17.01816406 -14.38203125 17.02460937 -13.55859375 17.03125 C-12.73359375 17.04800781 -11.90859375 17.06476562 -11.05859375 17.08203125 C-10.218125 17.09105469 -9.37765625 17.10007812 -8.51171875 17.109375 C-6.44388771 17.13287308 -4.3762038 17.16874217 -2.30859375 17.20703125 C-2.59101016 15.74687834 -2.88485989 14.28893332 -3.18359375 12.83203125 C-3.34601562 12.01992188 -3.5084375 11.2078125 -3.67578125 10.37109375 C-4.17518307 8.02029202 -4.17518307 8.02029202 -6.30859375 6.20703125 C-11.00282238 4.83311068 -14.5601888 5.51578713 -19.16015625 6.734375 C-21.30859375 7.20703125 -21.30859375 7.20703125 -25.30859375 7.20703125 C-25.63859375 5.22703125 -25.96859375 3.24703125 -26.30859375 1.20703125 C-17.67176495 -3.30767471 -8.8618642 -5.06647994 0 0 Z M-20.30859375 25.20703125 C-21.85446251 28.29876877 -21.60218896 30.80132677 -21.30859375 34.20703125 C-19.89192708 36.79036458 -19.89192708 36.79036458 -17.30859375 38.20703125 C-12.92589098 38.85632055 -10.8699711 38.52479201 -6.99609375 36.33203125 C-4.34258852 34.31842121 -4.34258852 34.31842121 -2.30859375 32.20703125 C-2.06571886 29.76690176 -2.06571886 29.76690176 -2.18359375 27.08203125 C-2.20164062 26.17195312 -2.2196875 25.261875 -2.23828125 24.32421875 C-2.26148437 23.62554688 -2.2846875 22.926875 -2.30859375 22.20703125 C-11.78079928 21.59311878 -11.78079928 21.59311878 -20.30859375 25.20703125 Z " fill="#000000" transform="translate(2092.30859375,776.79296875)"/>
<path d="M0 0 C-0.33 1.98 -0.66 3.96 -1 6 C-4.25968187 7.03619026 -5.1576583 6.95724521 -8.6875 6 C-14.958044 4.31311896 -20.51895752 4.88670813 -26.25 8 C-31.15535513 11.3583569 -33.81382415 16.3122097 -35.609375 21.89453125 C-37.24326009 30.70117189 -36.46509715 39.1933759 -32 47 C-28.60424577 51.31352564 -25.21469679 53.32069086 -20 55 C-13.74330999 55.51284344 -8.09222789 54.39821624 -2 53 C-0.5393715 55.64738916 0 56.89448334 0 60 C-8.69875426 63.29885037 -18.26905494 64.85986988 -27.3125 61.875 C-35.3893366 58.19441623 -40.61117341 53.24568738 -44 45 C-47.45500254 34.8520606 -46.9276331 23.92167019 -43 14 C-38.59545822 5.7351558 -32.88706029 0.10437953 -23.75 -2.6875 C-15.2397967 -3.65456856 -8.1535584 -2.60417835 0 0 Z " fill="#000000" transform="translate(1883,759)"/>
<path d="M0 0 C0.35827881 0.93384521 0.71655762 1.86769043 1.08569336 2.82983398 C2.41178319 6.2841584 3.74136429 9.73712998 5.07202148 13.18969727 C5.64817578 14.68607317 6.2233741 16.18281751 6.79760742 17.67993164 C7.62169195 19.82795524 8.44917074 21.97464372 9.27734375 24.12109375 C9.53466782 24.79401962 9.79199188 25.4669455 10.05711365 26.16026306 C11.12532781 29.32029351 11.12532781 29.32029351 13 32 C13.32798584 31.09644775 13.65597168 30.19289551 13.99389648 29.26196289 C15.20804209 25.91946327 16.42584524 22.57830629 17.64477539 19.23754883 C18.17247265 17.78967237 18.69916861 16.34143057 19.22485352 14.89282227 C19.97932068 12.81430433 20.73734369 10.73711394 21.49609375 8.66015625 C21.73154404 8.00910416 21.96699432 7.35805206 22.20957947 6.68727112 C23.88612829 2.11387171 23.88612829 2.11387171 25 1 C27.67058851 0.85884839 30.32432238 0.95752893 33 1 C31.63488613 7.84083421 29.65025392 14.19577618 27.2265625 20.73046875 C26.86154633 21.72452225 26.49653015 22.71857574 26.12045288 23.74275208 C25.35178864 25.83047843 24.58014493 27.91710998 23.80566406 30.00268555 C22.62592518 33.18500434 21.46090992 36.37245545 20.296875 39.56054688 C19.54515515 41.59668086 18.79258005 43.63249935 18.0390625 45.66796875 C17.6941275 46.6149614 17.3491925 47.56195404 16.99380493 48.53764343 C14.11630551 56.22706028 11.49187643 61.87182319 4 66 C1.125 66.75 1.125 66.75 -1 67 C-3 64 -3 64 -3 60 C-1.906875 59.484375 -0.81375 58.96875 0.3125 58.4375 C4.41718178 56.0860325 5.65994357 53.57195723 7 49 C7.5774565 43.34902734 5.77352251 39.03128531 3.71875 33.8828125 C3.21933899 32.5970784 3.21933899 32.5970784 2.70983887 31.28536987 C1.64931197 28.56145592 0.57489974 25.84326994 -0.5 23.125 C-1.22358081 21.27379862 -1.94624742 19.42223962 -2.66796875 17.5703125 C-4.43474985 13.04266424 -6.21400012 8.52009971 -8 4 C-5.29881977 1.17603885 -4.05589853 0 0 0 Z " fill="#000000" transform="translate(2161,774)"/>
<path d="M0 0 C3.31398952 1.48071872 5.60169023 3.30625802 8 6 C10.69350138 14.33915163 10.22633375 22.9022886 10.125 31.5625 C10.11494923 33.06314506 10.10582709 34.56379665 10.09765625 36.06445312 C10.07581091 39.70977281 10.0413969 43.35484376 10 47 C7.03 47 4.06 47 1 47 C0.9906543 45.96069336 0.98130859 44.92138672 0.97167969 43.85058594 C0.93175877 39.98866162 0.86599522 36.1275322 0.79248047 32.26611328 C0.76428282 30.59596989 0.74306221 28.92569335 0.72900391 27.25537109 C0.70755663 24.85184628 0.66090155 22.44992017 0.609375 20.046875 C0.60814636 19.30193787 0.60691772 18.55700073 0.60565186 17.78948975 C0.50801449 14.3213189 0.24345445 12.33033782 -1.83886719 9.50488281 C-3.99772575 7.71338566 -3.99772575 7.71338566 -7.1875 7.875 C-12.35429498 9.39962803 -16.46609768 10.77034261 -20 15 C-21.28557404 20.46244802 -21.17093132 25.79108985 -21.0625 31.375 C-21.06557726 32.88933672 -21.07269829 34.40367096 -21.08398438 35.91796875 C-21.10275519 39.61310777 -21.06632822 43.30529624 -21 47 C-23.64 47 -26.28 47 -29 47 C-29 31.82 -29 16.64 -29 1 C-26.69 1 -24.38 1 -22 1 C-22 2.65 -22 4.3 -22 6 C-21.24976562 5.566875 -20.49953125 5.13375 -19.7265625 4.6875 C-13.0705692 1.06610314 -7.6387576 -1.43226705 0 0 Z " fill="#000000" transform="translate(2138,774)"/>
<path d="M0 0 C0.4439209 0.80743652 0.8878418 1.61487305 1.34521484 2.44677734 C2.99369026 5.44129915 4.64521028 8.43409833 6.29882812 11.42578125 C7.01392477 12.72100166 7.72780071 14.01689681 8.44042969 15.31347656 C9.4648949 17.17691886 10.49372401 19.03789139 11.5234375 20.8984375 C12.14138184 22.01911621 12.75932617 23.13979492 13.39599609 24.29443359 C14.86972411 27.03482168 14.86972411 27.03482168 17 29 C17.47945068 28.18732666 17.95890137 27.37465332 18.45288086 26.53735352 C20.22771889 23.53061723 22.00389913 20.5246826 23.78100586 17.51928711 C24.55075433 16.21687335 25.31996195 14.91413979 26.08862305 13.61108398 C27.19178451 11.74118619 28.2968681 9.8724366 29.40234375 8.00390625 C30.06741943 6.87799072 30.73249512 5.7520752 31.41772461 4.59204102 C33 2 33 2 34 1 C35.51928038 0.92820036 37.04167482 0.91607993 38.5625 0.9375 C39.38878906 0.94652344 40.21507812 0.95554687 41.06640625 0.96484375 C41.70449219 0.97644531 42.34257813 0.98804688 43 1 C41.47526564 5.17342137 39.4148768 8.91751479 37.15625 12.7265625 C36.60161072 13.67080582 36.60161072 13.67080582 36.0357666 14.63412476 C35.25739341 15.95788072 34.47737433 17.28067013 33.69580078 18.60253906 C32.50079869 20.62364917 31.31050497 22.6474706 30.12109375 24.671875 C29.36224986 25.96109687 28.60314424 27.25016473 27.84375 28.5390625 C27.48849243 29.14223297 27.13323486 29.74540344 26.76721191 30.36685181 C25.23479633 32.95757745 23.67030773 35.4945384 22 38 C21.63112811 40.90644244 21.63112811 40.90644244 21.5859375 44.19921875 C21.54726562 45.40771484 21.50859375 46.61621094 21.46875 47.86132812 C21.4378125 49.12396484 21.406875 50.38660156 21.375 51.6875 C21.33632812 52.96173828 21.29765625 54.23597656 21.2578125 55.54882812 C21.16342314 58.69907292 21.0778417 61.84930991 21 65 C18.03 65 15.06 65 12 65 C12.04825928 64.31824707 12.09651855 63.63649414 12.14624023 62.93408203 C13.32919564 41.61242261 7.59856613 29.27795464 -4 12 C-5.49575481 9.68606783 -6.77748834 7.47779843 -8 5 C-7 2 -7 2 -5.125 0.8125 C-3 0 -3 0 0 0 Z " fill="#000000" transform="translate(1069,756)"/>
<path d="M0 0 C3.0204453 2.72576771 5.25693426 5.04812022 5.82064819 9.22549438 C5.90919676 11.52752758 5.89975013 13.80997274 5.85546875 16.11328125 C5.85122391 16.94965622 5.84697906 17.78603119 5.84260559 18.64775085 C5.82587364 21.30716765 5.78823226 23.965814 5.75 26.625 C5.73494604 28.43293173 5.72125888 30.24087539 5.70898438 32.04882812 C5.67598816 36.47034689 5.62424428 40.89129302 5.5625 45.3125 C2.9225 45.3125 0.2825 45.3125 -2.4375 45.3125 C-2.45731934 44.30348633 -2.47713867 43.29447266 -2.49755859 42.25488281 C-2.57373336 38.50495804 -2.66243216 34.75541529 -2.75488281 31.00585938 C-2.79312358 29.38419141 -2.82798503 27.76244004 -2.859375 26.140625 C-2.90513257 23.80698883 -2.96310816 21.47392438 -3.0234375 19.140625 C-3.03498871 18.41756165 -3.04653992 17.69449829 -3.05844116 16.94952393 C-3.16490957 13.30369593 -3.27114904 10.33509767 -5.4375 7.3125 C-8.70546686 5.92361408 -10.68917863 6.02097603 -13.984375 7.3046875 C-19.07904078 9.77575866 -19.07904078 9.77575866 -23.4375 13.3125 C-23.68251495 15.74426397 -23.81074921 18.07114884 -23.8515625 20.5078125 C-23.87092865 21.21525604 -23.8902948 21.92269958 -23.9102478 22.65158081 C-23.97007652 24.91343085 -24.01644101 27.1753317 -24.0625 29.4375 C-24.10067686 30.9700744 -24.13972842 32.50262728 -24.1796875 34.03515625 C-24.27578039 37.79409624 -24.35979849 41.55313668 -24.4375 45.3125 C-27.0775 45.3125 -29.7175 45.3125 -32.4375 45.3125 C-32.4375 30.1325 -32.4375 14.9525 -32.4375 -0.6875 C-30.4575 -0.6875 -28.4775 -0.6875 -26.4375 -0.6875 C-25.7775 0.9625 -25.1175 2.6125 -24.4375 4.3125 C-23.89480469 3.96316406 -23.35210938 3.61382813 -22.79296875 3.25390625 C-21.71982422 2.57134766 -21.71982422 2.57134766 -20.625 1.875 C-19.91730469 1.42253906 -19.20960937 0.97007812 -18.48046875 0.50390625 C-12.7280018 -2.85078289 -5.88830487 -2.89062239 0 0 Z " fill="#000000" transform="translate(1527.4375,775.6875)"/>
<path d="M0 0 C16.5 0 33 0 50 0 C50 2.31 50 4.62 50 7 C43.07 7 36.14 7 29 7 C29 25.81 29 44.62 29 64 C26.36 64 23.72 64 21 64 C21 45.19 21 26.38 21 7 C14.07 7 7.14 7 0 7 C0 4.69 0 2.38 0 0 Z " fill="#000000" transform="translate(1300,757)"/>
<path d="M0 0 C0.875 1.921875 0.875 1.921875 1 4 C0.01 5.485 0.01 5.485 -1 7 C-2.155 6.67 -3.31 6.34 -4.5 6 C-9.62140096 4.73781076 -14.76710813 3.66026488 -19.5 6.5 C-19.995 6.995 -20.49 7.49 -21 8 C-21.11012044 10.4029037 -21.11012044 10.4029037 -20 13 C-17.37835161 14.43951242 -15.02401353 15.52468684 -12.25 16.5625 C-1.43399366 20.75467512 -1.43399366 20.75467512 2.3125 25.75 C3.72000722 30.35638726 3.65889456 34.43946024 1.8125 38.8125 C-1.17999116 42.42412726 -4.46897605 44.08232426 -9 45 C-16.54064866 45.62637976 -22.91544808 44.58178899 -30 42 C-29.125 37.25 -29.125 37.25 -28 35 C-26.865625 35.33 -25.73125 35.66 -24.5625 36 C-18.80074757 37.42000636 -13.37673116 38.16411322 -7.9375 35.5 C-7.298125 35.005 -6.65875 34.51 -6 34 C-6.05759918 31.59176952 -6.05759918 31.59176952 -7 29 C-9.53230385 27.1872755 -9.53230385 27.1872755 -12.6875 25.875 C-13.72261719 25.39804687 -14.75773437 24.92109375 -15.82421875 24.4296875 C-16.87222656 23.95789063 -17.92023438 23.48609375 -19 23 C-27.0067903 19.13767224 -27.0067903 19.13767224 -30 15 C-30.89879403 10.25593065 -30.70308439 6.3768736 -28.5 2.0625 C-20.69057598 -4.38027482 -8.80219223 -5.26559714 0 0 Z " fill="#000000" transform="translate(1806,777)"/>
<path d="M0 0 C0.87109375 1.921875 0.87109375 1.921875 1 4 C0.34 4.99 -0.32 5.98 -1 7 C-1.6290625 6.84402344 -2.258125 6.68804688 -2.90625 6.52734375 C-9.75133112 4.97070633 -15.36701742 4.06240929 -21.8125 7.5 C-25.36471455 11.55967377 -26.92033903 15.97288316 -27.0625 21.375 C-26.6805369 26.08587826 -25.72304027 30.0562865 -23 34 C-17.91731977 37.4654638 -13.50899088 37.65583376 -7.5546875 36.54296875 C-5.35899718 36.06459735 -3.17792595 35.55312405 -1 35 C-0.34 36.98 0.32 38.96 1 41 C-6.44226723 44.89027605 -13.94196379 46.7190325 -22.28515625 44.3515625 C-28.52694456 41.53734581 -32.67856249 37.06333241 -35.375 30.8125 C-36.87486444 21.66332692 -36.93368401 13.13117423 -32 5 C-24.30390731 -3.98188057 -10.31906947 -6.2995686 0 0 Z " fill="#000000" transform="translate(1436,777)"/>
<path d="M0 0 C0 21.78 0 43.56 0 66 C-2.97 66 -5.94 66 -9 66 C-9 44.55 -9 23.1 -9 1 C-4 0 -4 0 0 0 Z " fill="#000000" transform="translate(1603,755)"/>
<path d="M0 0 C2.64 0 5.28 0 8 0 C8 15.18 8 30.36 8 46 C5.36 46 2.72 46 0 46 C0 30.82 0 15.64 0 0 Z " fill="#000000" transform="translate(1713,775)"/>
<path d="M0 0 C3.375 -0.125 3.375 -0.125 7 0 C9 2 9 2 9.375 4.9375 C9 8 9 8 7.375 10 C5 11 5 11 1.75 10.1875 C0.38875 9.5996875 0.38875 9.5996875 -1 9 C-1.80967438 6.08517222 -2.21845993 4.53886783 -1.0625 1.6875 C-0.711875 1.130625 -0.36125 0.57375 0 0 Z " fill="#000000" transform="translate(1713,757)"/>
</svg>
