<svg xmlns="http://www.w3.org/2000/svg" width="57" height="57" viewBox="0 0 57 57">
  <g id="Group_39045" data-name="Group 39045" transform="translate(-15430 -12991)">
    <circle id="Ellipse_65" data-name="Ellipse 65" cx="28.5" cy="28.5" r="28.5" transform="translate(15430 12991)" fill="#7ea8ab"/>
    <g id="noun-chatbot-6794264" transform="translate(15442.883 13003.883)">
      <g id="Group_39044" data-name="Group 39044" transform="translate(0 0)">
        <path id="Path_4281" data-name="Path 4281" d="M40.061,23.729l-1.439-.72a13.01,13.01,0,0,0-26.02,0l-1.438.72A2.31,2.31,0,0,0,10,25.612v2.6A2.315,2.315,0,0,0,11.164,30.1l1.438.72h1.951V23.011a11.059,11.059,0,1,1,22.117,0V33.418a5.854,5.854,0,0,1-5.854,5.854h-3.9V37.321h-2.6v3.9h6.505a7.805,7.805,0,0,0,7.806-7.806v-2.6l1.439-.72a2.307,2.307,0,0,0,1.163-1.881v-2.6A2.311,2.311,0,0,0,40.061,23.729Z" transform="translate(-10 -10)" fill="#fff"/>
        <path id="Path_4282" data-name="Path 4282" d="M40.975,25.854H36.748V23.089a1.687,1.687,0,0,0,1.3-1.464c0-.9-1.018-1.625-2.276-1.625s-2.278.727-2.278,1.625a1.684,1.684,0,0,0,1.3,1.464v2.766H30.567a3.9,3.9,0,0,0-3.9,3.9v5.2a6.51,6.51,0,0,0,6.507,6.505h5.2a6.507,6.507,0,0,0,6.5-6.505v-5.2A3.9,3.9,0,0,0,40.975,25.854ZM31.219,32.36v-1.3a1.3,1.3,0,1,1,2.6,0v1.3a1.3,1.3,0,1,1-2.6,0Zm7.8,5.2-2.6.651h-1.3l-2.6-.651v-1.3h6.505Zm1.3-5.2a1.3,1.3,0,0,1-2.6,0v-1.3a1.3,1.3,0,1,1,2.6,0Z" transform="translate(-20.16 -16.097)" fill="#fff"/>
      </g>
    </g>
  </g>
</svg>
