<svg xmlns="http://www.w3.org/2000/svg" width="25" height="25" viewBox="0 0 25 25">
  <g id="Group_39202" data-name="Group 39202" transform="translate(-159 -410)">
    <g id="noun-save-2209758" transform="translate(145.686 368.5)">
      <g id="Group_39297" data-name="Group 39297" transform="translate(13.314 41.5)">
        <path id="Path_4353" data-name="Path 4353" d="M66.2,258.284v5.511a1.25,1.25,0,0,1-.039.306h0a1.187,1.187,0,0,1-1.157.949H42.389A1.183,1.183,0,0,1,41.216,264a.924.924,0,0,1-.016-.212v-5.511a1.181,1.181,0,0,1,2.361,0v4.413H63.846v-4.413a1.181,1.181,0,0,1,2.015-.831A1.239,1.239,0,0,1,66.2,258.284Z" transform="translate(-41.2 -240.049)" fill="#707070"/>
        <path id="Path_4354" data-name="Path 4354" d="M122.554,54.066l-5.819,5.777c-.008.016-.024.024-.032.031a1.375,1.375,0,0,1-.766.384c-.024,0-.047.008-.071.008a.865.865,0,0,1-.142.008h0l-.134-.008c-.024,0-.047-.008-.071-.008a1.35,1.35,0,0,1-.766-.384l-.032-.031L108.9,54.066a1.375,1.375,0,0,1,0-1.944,1.4,1.4,0,0,1,1.958,0l3.5,3.473V42.872A1.383,1.383,0,0,1,115.74,41.5a1.418,1.418,0,0,1,.979.4,1.35,1.35,0,0,1,.4.972V55.595l3.5-3.473a1.371,1.371,0,1,1,1.934,1.944Z" transform="translate(-103.224 -41.5)" fill="#707070"/>
      </g>
    </g>
  </g>
</svg>
