<svg xmlns="http://www.w3.org/2000/svg" width="88.913" height="71.323" viewBox="0 0 88.913 71.323">
  <g id="Group_2586" data-name="Group 2586" transform="translate(-406.336 -314.903)">
    <path id="Path_2805" data-name="Path 2805" d="M363,324.3a41.456,41.456,0,0,1,82.913,0" transform="translate(46.336 34.903)" fill="none" stroke="#e1dfe2" stroke-linecap="round" stroke-linejoin="round" stroke-width="6"/>
    <path id="Path_2806" data-name="Path 2806" d="M363,325.312a41.271,41.271,0,0,1,21.484-36.189" transform="translate(46.336 33.889)" fill="none" stroke="#ffcb00" stroke-linecap="round" stroke-linejoin="round" stroke-width="6"/>
    <g id="Group_2563" data-name="Group 2563" transform="translate(423.663 332.175)">
      <ellipse id="Ellipse_52" data-name="Ellipse 52" cx="27.13" cy="27.026" rx="27.13" ry="27.026" fill="#f4eac2"/>
    </g>
    <g id="noun-warning-8242805" transform="translate(409.642 341.597)">
      <path id="Path_4213" data-name="Path 4213" d="M41.15,2.777a3.99,3.99,0,0,0-4.043,4.133l1.067,16.536a.975.975,0,0,0,.974.911h4.006a.972.972,0,0,0,.971-.911L45.193,6.911a3.989,3.989,0,0,0-4.044-4.133Zm0,1.945a2.067,2.067,0,0,1,2.1,2.064L42.242,22.413H40.058L39.048,6.787a2.067,2.067,0,0,1,2.1-2.064Zm0,20.551A3.579,3.579,0,1,0,44.7,28.852,3.583,3.583,0,0,0,41.15,25.273Zm0,1.947a1.631,1.631,0,1,1-1.608,1.634A1.608,1.608,0,0,1,41.15,27.22Z" fill="#ffc400"/>
    </g>
  </g>
</svg>
