<svg xmlns="http://www.w3.org/2000/svg" width="58" height="40.6" viewBox="0 0 58 40.6">
  <path id="Icon_awesome-cloud-upload-alt" data-name="Icon awesome-cloud-upload-alt" d="M48.72,20.136A8.71,8.71,0,0,0,40.6,8.3a8.656,8.656,0,0,0-4.83,1.468A14.5,14.5,0,0,0,8.7,17c0,.245.009.489.018.734A13.053,13.053,0,0,0,13.05,43.1H46.4a11.6,11.6,0,0,0,2.32-22.964ZM35.652,25.7H29.725V35.85a1.454,1.454,0,0,1-1.45,1.45h-4.35a1.454,1.454,0,0,1-1.45-1.45V25.7H16.548a1.447,1.447,0,0,1-1.024-2.474l9.552-9.552a1.455,1.455,0,0,1,2.048,0l9.552,9.552A1.449,1.449,0,0,1,35.652,25.7Z" transform="translate(0 -2.5)" fill="#4c8b92"/>
</svg>
