<svg xmlns="http://www.w3.org/2000/svg" width="20" height="23" viewBox="0 0 20 23">
  <g id="noun-logout-6733782" transform="translate(-14 -8)">
    <g id="Group_39319" data-name="Group 39319" transform="translate(14 8)">
      <path id="Path_4374" data-name="Path 4374" d="M41.728,29.244a.831.831,0,0,0-1.175,1.175l3.567,3.567H32.831a.831.831,0,1,0,0,1.662h11.29l-3.567,3.567a.831.831,0,1,0,1.175,1.175L47.3,34.817Z" transform="translate(-27.302 -23.317)" fill="#fff"/>
      <path id="Path_4375" data-name="Path 4375" d="M26.465,26.893a.826.826,0,0,0-.831.821v.821a.828.828,0,0,1-.831.821h-8.31a.828.828,0,0,1-.831-.821V10.464a.828.828,0,0,1,.831-.821H24.8a.828.828,0,0,1,.831.821v.821a.831.831,0,0,0,1.662,0v-.821A2.482,2.482,0,0,0,24.8,8h-8.31A2.482,2.482,0,0,0,14,10.464V28.536A2.481,2.481,0,0,0,16.493,31H24.8A2.481,2.481,0,0,0,27.3,28.536v-.821A.826.826,0,0,0,26.465,26.893Z" transform="translate(-14 -8)" fill="#fff"/>
    </g>
  </g>
</svg>
