<svg xmlns="http://www.w3.org/2000/svg" width="65.746" height="65.746" viewBox="0 0 65.746 65.746">
  <g id="noun-chatbot-6794264" transform="translate(-10 -10)">
    <g id="Group_39035" data-name="Group 39035" transform="translate(10 10)">
      <path id="Path_4231" data-name="Path 4231" d="M73.3,38.908l-3.03-1.515a27.395,27.395,0,0,0-54.789,0L12.45,38.912A4.865,4.865,0,0,0,10,42.873v5.48a4.875,4.875,0,0,0,2.449,3.965l3.027,1.515h4.109V37.4a23.286,23.286,0,1,1,46.571,0V59.31A12.326,12.326,0,0,1,53.83,71.637H45.612V67.528h-5.48v8.218h13.7A16.435,16.435,0,0,0,70.266,59.31V53.83l3.03-1.515a4.857,4.857,0,0,0,2.449-3.961v-5.48A4.867,4.867,0,0,0,73.3,38.908Z" transform="translate(-10 -10)" fill="#fff"/>
      <path id="Path_4232" data-name="Path 4232" d="M56.8,32.327H47.9V26.5c1.615-.552,2.738-1.717,2.738-3.082,0-1.891-2.144-3.422-4.793-3.422s-4.8,1.531-4.8,3.422c0,1.364,1.124,2.536,2.742,3.082v5.823H34.882a8.222,8.222,0,0,0-8.218,8.218V51.5a13.708,13.708,0,0,0,13.7,13.7H51.322A13.7,13.7,0,0,0,65.017,51.5V40.546A8.22,8.22,0,0,0,56.8,32.327Zm-20.542,13.7V43.287a2.738,2.738,0,1,1,5.477,0v2.738a2.738,2.738,0,1,1-5.477,0ZM52.689,56.982l-5.477,1.371H44.474l-5.483-1.371V54.244h13.7Zm2.742-10.957a2.74,2.74,0,0,1-5.48,0V43.287a2.74,2.74,0,1,1,5.48,0Z" transform="translate(-12.969 -11.782)" fill="#fff"/>
    </g>
  </g>
</svg>
