<svg xmlns="http://www.w3.org/2000/svg" width="36" height="36" viewBox="0 0 36 36">
  <g id="Group_39203" data-name="Group 39203" transform="translate(-20451 -22197)">
    <rect id="Rectangle_2236" data-name="Rectangle 2236" width="36" height="36" rx="5" transform="translate(20451 22197)" fill="#fef2f2"/>
    <g id="noun-pdf-749513" transform="translate(20459.248 22202.637)">
      <g id="Group_39298" data-name="Group 39298" transform="translate(0 0)">
        <path id="Path_4355" data-name="Path 4355" d="M76.114,7.67a.183.183,0,0,0,.275,0l1.269-1.279a.183.183,0,0,0-.138-.305h-.455v-.9A.183.183,0,0,0,76.882,5H75.621a.183.183,0,0,0-.183.183v.9h-.455a.183.183,0,0,0-.137.305Z" transform="translate(-58.182 -5)" fill="#ed0f0f" stroke="#ed0f0f" stroke-width="0.2"/>
        <path id="Path_4356" data-name="Path 4356" d="M35.617,26.576c-.52-.585-1.033-1.238-1.5-1.826-.218-.278-.427-.543-.622-.783l-.014-.018a8.3,8.3,0,0,0,.485-2,3.507,3.507,0,0,0-.435-2.531.951.951,0,0,0-1.017-.256,1.352,1.352,0,0,0-.823.957A5.208,5.208,0,0,0,32.4,24.1a29.482,29.482,0,0,1-1.514,3.3,7.17,7.17,0,0,0-2.674,1.561c-.843.831-1.186,1.656-.941,2.263a.964.964,0,0,0,.935.6,1.752,1.752,0,0,0,.945-.318,11.585,11.585,0,0,0,2.4-3.3,14.761,14.761,0,0,1,2.881-.571c.263-.026.524-.046.775-.06a5.259,5.259,0,0,0,2.613,1.8,2.487,2.487,0,0,0,.459.044,1.533,1.533,0,0,0,1.38-.672,1,1,0,0,0-.01-1.018c-.425-.743-1.707-1.151-3.611-1.151C35.9,26.57,35.763,26.572,35.617,26.576Zm-6.993,4.108a.848.848,0,0,1-.416.159.186.186,0,0,1-.043,0c-.019-.1.049-.518.725-1.184a5.106,5.106,0,0,1,1.193-.851A7.243,7.243,0,0,1,28.624,30.684Zm3.991-10.261c.07-.218.158-.316.212-.335h0c.052.06.276.4.176,1.793a5.027,5.027,0,0,1-.175.915A3.9,3.9,0,0,1,32.615,20.424Zm1.727,6.236a16.28,16.28,0,0,0-2.172.362c.339-.683.653-1.376.915-2.017l.278.354c.316.4.672.855,1.04,1.3Zm4.472,1.55c.014.025.014.035.01.042a.667.667,0,0,1-.544.184A1.539,1.539,0,0,1,38,28.407a3.2,3.2,0,0,1-1.419-.849C38.084,27.631,38.692,28,38.814,28.209Z" transform="translate(-23.735 -15.293)" fill="#ed0f0f" stroke="#ed0f0f" stroke-width="0.2"/>
        <path id="Path_4357" data-name="Path 4357" d="M28.728,5H16.177a1.388,1.388,0,0,0-1.394,1.382V28.346a1.389,1.389,0,0,0,1.394,1.382H32.911a1.388,1.388,0,0,0,1.394-1.382V10.529Zm0,1.954,3.606,3.575H28.728Zm4.184,21.392H16.177V6.382H27.333v4.147a1.388,1.388,0,0,0,1.394,1.382h4.184V28.346Z" transform="translate(-14.783 -5)" fill="#ed0f0f" stroke="#ed0f0f" stroke-width="0.2"/>
        <path id="Path_4358" data-name="Path 4358" d="M35.147,68.619a1.022,1.022,0,0,0-.408-.218,2.524,2.524,0,0,0-.656-.066h-.934a.568.568,0,0,0-.4.122.52.52,0,0,0-.132.394v2.77a.54.54,0,0,0,.119.374.432.432,0,0,0,.628,0,.544.544,0,0,0,.121-.378v-.947h.6a1.607,1.607,0,0,0,1.052-.3,1.093,1.093,0,0,0,.363-.885,1.3,1.3,0,0,0-.088-.489A.989.989,0,0,0,35.147,68.619Zm-.6,1.158a.431.431,0,0,1-.228.151,1.409,1.409,0,0,1-.409.051h-.421v-.959h.421c.379,0,.533.076.594.137a.473.473,0,0,1,.121.34A.461.461,0,0,1,34.544,69.778Z" transform="translate(-27.68 -51.042)" fill="#ed0f0f" stroke="#ed0f0f" stroke-width="0.2"/>
        <path id="Path_4359" data-name="Path 4359" d="M47.27,68.677a1.241,1.241,0,0,0-.509-.272,2.647,2.647,0,0,0-.652-.071h-.948a.449.449,0,0,0-.516.516v2.635a1.133,1.133,0,0,0,.033.3.346.346,0,0,0,.162.21.648.648,0,0,0,.335.07h.948a2.891,2.891,0,0,0,.456-.033,1.522,1.522,0,0,0,.387-.116A1.319,1.319,0,0,0,47.3,71.7a1.573,1.573,0,0,0,.316-.4,1.827,1.827,0,0,0,.181-.5,2.942,2.942,0,0,0,.058-.605A1.894,1.894,0,0,0,47.27,68.677Zm-.634,2.52a.524.524,0,0,1-.168.1.82.82,0,0,1-.2.045c-.066.006-.16.009-.278.009h-.482v-2.3h.411a1.884,1.884,0,0,1,.548.069.647.647,0,0,1,.356.306,1.511,1.511,0,0,1,.151.76A1.273,1.273,0,0,1,46.636,71.2Z" transform="translate(-36.378 -51.041)" fill="#ed0f0f" stroke="#ed0f0f" stroke-width="0.2"/>
        <path id="Path_4360" data-name="Path 4360" d="M60.128,68.335H58.413a.672.672,0,0,0-.283.052.358.358,0,0,0-.18.178.669.669,0,0,0-.053.286v2.765a.544.544,0,0,0,.12.38.438.438,0,0,0,.627,0,.546.546,0,0,0,.12-.382V70.5h1.129a.431.431,0,0,0,.294-.091.319.319,0,0,0,.107-.251.323.323,0,0,0-.1-.251.426.426,0,0,0-.3-.093H58.765v-.78h1.364a.44.44,0,0,0,.306-.1.357.357,0,0,0,0-.51A.442.442,0,0,0,60.128,68.335Z" transform="translate(-45.958 -51.042)" fill="#ed0f0f" stroke="#ed0f0f" stroke-width="0.2"/>
      </g>
    </g>
  </g>
</svg>
